<?xml version="1.0" standalone="no"?>
<!DOCTYPE svg PUBLIC "-//W3C//DTD SVG 1.1//EN" "http://www.w3.org/Graphics/SVG/1.1/DTD/svg11.dtd" >
<svg xmlns="http://www.w3.org/2000/svg" xmlns:xlink="http://www.w3.org/1999/xlink" version="1.1">
<metadata>
Created by FontForge 20190801 at Thu Oct 14 08:00:10 2004
 By root
</metadata>
<defs>
<font id="Cursivestandardbold" horiz-adv-x="609" >
  <font-face 
    font-family="Cursive standard"
    font-weight="700"
    font-stretch="normal"
    units-per-em="1000"
    panose-1="0 0 0 0 0 0 0 0 0 0"
    ascent="800"
    descent="-200"
    x-height="345"
    cap-height="926"
    bbox="-174 -630 1079 963"
    underline-thickness="50"
    underline-position="-100"
    unicode-range="U+0020-E00A"
  />
<missing-glyph horiz-adv-x="400" 
 />
    <glyph glyph-name=".notdef" horiz-adv-x="400" 
 />
    <glyph glyph-name=".null" horiz-adv-x="0" 
 />
    <glyph glyph-name="glyph2" horiz-adv-x="400" 
 />
    <glyph glyph-name="space" unicode=" " horiz-adv-x="400" 
 />
    <glyph glyph-name="space" unicode="&#xa0;" horiz-adv-x="400" 
 />
    <glyph glyph-name="dollar" unicode="$" horiz-adv-x="227" 
d="M75 217h2h-2zM75 218q-5 -14 -10 -26.5t-11 -26.5q18 -1 32 -11.5t14 -32.5q0 -25 -11 -31.5t-24 -11.5q2 -13 11 -19.5t21 -6.5q35 0 60.5 21t25.5 57q0 15 -10 27.5t-26 23t-34.5 19.5t-35.5 17q-1 0 -2 1zM274 130q0 -38 -14 -68.5t-38 -53t-56.5 -34.5t-68.5 -12
q-53 0 -88.5 32.5t-35.5 89.5q0 17 6 32q-11 5 -17.5 15t-6.5 24q0 5 9.5 29t18.5 47q7 17 10 23t5 11q-13 14 -21.5 30.5t-8.5 36.5q0 16 4 32t12.5 28.5t22.5 20t34 7.5q14 0 27.5 -5.5t23.5 -15.5t16 -22.5t6 -27.5q0 -25 -7 -47q2 -1 6.5 -2.5t6.5 -3.5q26 -12 53 -27
t49.5 -34.5t37 -45t14.5 -59.5z" />
    <glyph glyph-name="percent" unicode="%" horiz-adv-x="557" 
d="M187 676q0 20 -14 34t-34 14t-34 -14t-14 -34q0 -22 13 -40t35 -18t35 18t13 40zM497 110q0 20 -14 34t-34 14t-34 -14t-14 -34q0 -21 13 -40t35 -19t35 19t13 40zM278 676q0 -29 -10 -56t-28.5 -47.5t-44 -33t-56.5 -12.5t-56.5 12.5t-44 33t-28.5 47.5t-10 56
q0 27 11.5 52t30.5 44t44.5 30.5t52.5 11.5q28 0 53.5 -11t44.5 -30t30 -44t11 -53zM588 110q0 -29 -10 -56t-28.5 -47.5t-44 -33t-56.5 -12.5t-56.5 12.5t-44 33t-28.5 47.5t-10 56q0 27 11.5 52.5t30.5 44.5t44.5 30.5t52.5 11.5q28 0 53.5 -11t44.5 -30t30 -44.5
t11 -53.5zM491 757q-48 -126 -97.5 -248.5t-100.5 -247.5q-6 -14 -13 -30.5t-12 -31.5l-56 -140q-2 -3 -3.5 -7.5l-3.5 -10.5l1 1q-4 -12 -9.5 -27t-13.5 -27.5t-18.5 -21t-23.5 -8.5q-20 0 -33 15t-13 35q46 120 94 240t96 238q7 16 13 31.5t13 31.5v-1q17 41 33 81t32 82
q2 3 3.5 7.5l3.5 10.5l-1 -1q4 12 9.5 27t13.5 27.5t18 21t24 8.5q20 0 33 -14t13 -32z" />
    <glyph glyph-name="ampersand" unicode="&#x26;" horiz-adv-x="555" 
d="M320 302q19 -33 39 -65.5t43 -64.5q7 20 8.5 40t1.5 43q0 16 -0.5 31.5t-2.5 29.5l-2 1q-17 10 -26 12q0 -1 -4 -3.5t-7 -4.5q-11 -7 -21.5 -13t-22.5 -6h-6zM282 628q0 24 -14 46.5t-38 22.5q-12 0 -20.5 -7t-14.5 -17.5t-9 -23t-3 -23.5q0 -17 8.5 -44.5t18.5 -52.5
q26 20 49 45t23 54zM238 52q31 0 58.5 10.5t50.5 30.5q-52 70 -94.5 145t-80.5 155q-21 -15 -41 -32t-35.5 -37t-25 -42.5t-9.5 -47.5q0 -37 13.5 -70t37 -58t56 -39.5t70.5 -14.5zM601 366q0 -18 -14 -32q-17 -17 -39 -27t-46 -13q1 -8 1 -18v-17q0 -47 -8 -87t-33 -81
q12 -14 25 -25t30 -15q17 -5 28 -12t11 -32q0 -20 -14 -32.5t-32 -12.5q-30 0 -57 20t-47 41q-35 -29 -78.5 -45t-89.5 -16q-56 0 -105 21.5t-85 58.5t-57 86.5t-21 105.5q0 43 14 78.5t37 65t52.5 54t60.5 46.5q-7 16 -14.5 36t-13.5 39.5t-10 38.5t-4 34q0 29 9 57.5
t27 51.5t43.5 37.5t58.5 14.5q32 0 58.5 -13.5t45 -36t29 -51t10.5 -58.5q0 -32 -11 -58.5t-29 -49t-40.5 -41t-45.5 -34.5q9 -20 18.5 -39.5t19.5 -38.5q2 5 6.5 9t9.5 9l1 1q1 0 2 1q16 11 36 21.5t41 10.5t37.5 -7t31.5 -15q9 -5 17 -9t14 -4q16 0 26.5 5t18.5 10
t12.5 8.5t16.5 3.5q18 0 32 -13t14 -32z" />
    <glyph glyph-name="quotesingle" unicode="'" horiz-adv-x="173" 
d="M111 552q0 -19 -14 -31.5t-32 -12.5q-19 0 -32 12.5t-13 31.5v125q0 19 13 31.5t32 12.5q18 0 32 -12.5t14 -31.5v-125z" />
    <glyph glyph-name="parenleft" unicode="(" horiz-adv-x="237" 
d="M217 -160q0 -19 -14 -32t-32 -13q-22 0 -36 17l1 -1q-38 41 -68.5 103t-53 131t-34.5 137.5t-12 123.5q0 57 12.5 124.5t34.5 134.5t53 128t68 106q15 18 35 18q18 0 32 -14t14 -32q0 -12 -12.5 -34t-26.5 -42v1q-5 -8 -8.5 -14.5t-8.5 -14.5q-47 -83 -74.5 -175
t-27.5 -186q0 -96 27.5 -188t74.5 -175q1 -2 6 -10t11 -18v1q14 -20 26.5 -42.5t12.5 -33.5z" />
    <glyph glyph-name="parenright" unicode=")" horiz-adv-x="237" 
d="M270 306q0 -55 -12.5 -123.5t-35 -137.5t-53.5 -131t-68 -103l1 1q-14 -17 -36 -17q-18 0 -32 13t-14 32q0 13 8 25q33 51 60.5 103.5t47.5 106.5t31 111.5t11 119.5t-11 119t-31 111.5t-47.5 106.5t-60.5 103q-8 12 -8 25q0 18 14 32t32 14q20 0 35 -18q37 -44 68 -105
t53.5 -128t35 -135t12.5 -125z" />
    <glyph glyph-name="asterisk" unicode="*" horiz-adv-x="474" 
d="M412 510q0 -19 -14 -32t-32 -13q-5 0 -14 3.5t-21 9t-25 12.5t-25 13v-68q0 -19 -14 -32t-32 -13q-19 0 -32 13t-13 32v63q-23 -13 -47.5 -25t-35.5 -12q-19 0 -32 13t-13 32q0 26 23 38h-1l18 10.5t11 6t11 6l18 10.5l-57 30l1 -1q-25 11 -25 40q0 19 14 32t32 13
q11 0 35.5 -12.5t47.5 -25.5v64q0 19 13 32t32 13q18 0 32 -13t14 -32v-64q12 6 24.5 13t24 12.5t20.5 9t14 3.5q18 0 32 -12.5t14 -31.5q0 -25 -24 -39l-55 -31l29 -14.5t28 -14.5q24 -11 24 -38z" />
    <glyph glyph-name="plus" unicode="+" horiz-adv-x="869" 
d="M678 349q0 -19 -14 -32t-32 -13h-152v-144q0 -19 -14 -32t-32 -13q-19 0 -32 13t-13 32v144h-152q-19 0 -31.5 13t-12.5 32t12.5 32t31.5 13h152v146q0 19 13 32t32 13q18 0 32 -13t14 -32v-146h152q18 0 32 -13t14 -32z" />
    <glyph glyph-name="comma" unicode="," horiz-adv-x="149" 
d="M101 23q0 -38 -9.5 -78.5t-29 -75t-49 -56.5t-69.5 -22q-17 0 -29.5 12.5t-12.5 31.5t12.5 31.5t29.5 12.5q12 0 22 7.5t18 19t14 26t10 28.5v-1q8 34 8 64q0 19 12.5 31.5t29.5 12.5q16 0 29.5 -12.5t13.5 -31.5z" />
    <glyph glyph-name="hyphen" unicode="-" horiz-adv-x="474" 
d="M416 172q0 -12 -4.5 -19.5t-11.5 -11.5t-15 -5.5t-15 -1.5h-267q-14 0 -29.5 7t-15.5 31t15.5 31t29.5 7h267q7 0 15 -1.5t15 -5.5t11.5 -11.5t4.5 -19.5z" />
    <glyph glyph-name="period" unicode="." horiz-adv-x="138" 
d="M140 32q0 -29 -22.5 -46t-47.5 -17q-12 0 -24.5 4t-23 12.5t-17 20t-6.5 26.5t6.5 26.5t17 20t23 12.5t24.5 4q25 0 47.5 -17t22.5 -46z" />
    <glyph glyph-name="slash" unicode="/" horiz-adv-x="474" 
d="M372 753q0 -1 -0.5 -2.5t-0.5 -3.5l-180 -751l1 1q-8 -35 -44 -35q-18 0 -32 13t-14 32v6l182 759q4 12 15.5 19.5t26.5 7.5q20 0 33 -14t13 -32z" />
    <glyph glyph-name="zero" unicode="0" 
d="M533 382q0 73 -23 144q-11 34 -30 68t-45 60.5t-58.5 43t-71.5 16.5q-38 0 -70.5 -16.5t-58.5 -43.5t-45.5 -60.5t-31.5 -67.5q-23 -69 -23 -144q0 -50 14 -108.5t42 -108.5t71 -83.5t101 -33.5q40 0 73.5 18t59.5 46.5t45.5 64t30.5 70.5q20 66 20 135zM624 382
q0 -80 -24 -161q-15 -50 -41.5 -97t-64 -84t-85.5 -59.5t-105 -22.5q-54 0 -98 19t-79.5 51t-62 74.5t-44 89.5t-26.5 96t-9 94q0 88 27 172q16 48 43 93.5t63.5 80t83.5 55.5t103 21t102.5 -21t83.5 -55.5t63.5 -80t42.5 -93.5q27 -84 27 -172z" />
    <glyph glyph-name="one" unicode="1" 
d="M451 7q0 -20 -14 -32.5t-32 -12.5q-19 0 -32 12.5t-13 32.5l-2 603q-19 -24 -41 -50t-43 -47.5t-39.5 -36t-30.5 -14.5q-19 0 -32 14t-13 32q0 19 13 32q5 5 8.5 9t8.5 9l9.5 9.5l9.5 9.5q40 41 76 85h-1q9 11 17.5 21.5t16.5 22.5q13 18 25.5 35.5t25.5 31.5l-1 -2
q14 20 38 20q20 0 31.5 -15t12.5 -32z" />
    <glyph glyph-name="two" unicode="2" 
d="M586 7q0 -20 -14 -32.5t-32 -12.5h-453q-18 0 -32 13t-14 32q0 53 21 99.5t55 88t76.5 79.5t86.5 75q36 30 70 59.5t60.5 59.5t42.5 60.5t16 62.5q0 30 -14.5 53.5t-37 40t-50.5 25.5t-56 9q-43 0 -79 -17.5t-62.5 -47t-41 -67.5t-14.5 -80q0 -20 -14 -32.5t-32 -12.5
q-19 0 -32 12.5t-13 32.5q0 60 22 114.5t61 96.5t91.5 66.5t113.5 24.5q45 0 90 -15.5t80 -44t57 -68.5t22 -90q0 -47 -19.5 -89t-51.5 -80.5t-72 -74t-80 -69.5q-30 -25 -61 -52.5t-59 -56.5t-48.5 -58.5t-29.5 -58.5h401q18 0 32 -12.5t14 -32.5z" />
    <glyph glyph-name="three" unicode="3" 
d="M596 248q0 -60 -25 -112.5t-66.5 -92t-96 -62.5t-112.5 -23q-53 0 -104 17.5t-90.5 50.5t-63.5 79.5t-24 103.5q0 20 13 32.5t32 12.5q18 0 32 -12.5t14 -32.5q0 -38 16.5 -67.5t43.5 -50t61.5 -31.5t69.5 -11q40 0 77.5 15.5t67 42.5t47 63.5t17.5 77.5q0 64 -45 109
q-52 -29 -113 -29q-15 0 -34.5 6t-37.5 17t-30 26.5t-12 35.5q0 23 11 38.5t27 25t35 13.5t36 4q28 0 56.5 -5.5t54.5 -17.5q34 43 34 101q0 32 -17 58t-43.5 45t-58.5 29t-62 10q-26 0 -52 -7t-49.5 -19.5t-43 -31t-32.5 -41.5v2l-2 -6q-8 -14 -16.5 -27.5t-33.5 -13.5
q-19 0 -32 13t-13 32q0 5 0.5 9.5t3.5 10.5h-1q18 39 46.5 70.5t64 53t76.5 33.5t84 12q46 0 94.5 -16.5t88 -47t64.5 -73.5t25 -95q0 -41 -13.5 -80.5t-37.5 -72.5q35 -35 52 -78.5t17 -92.5z" />
    <glyph glyph-name="four" unicode="4" 
d="M592 260q0 -17 -8.5 -27t-20.5 -14.5t-26 -5t-26 -0.5h-8h-27h-22q-10 0 -21.5 0.5t-26.5 0.5v-207q0 -20 -14 -32.5t-32 -12.5q-19 0 -32 12.5t-13 32.5v210q-34 2 -68 2h-67q-15 0 -29 -0.5t-28 -1.5t-29.5 -1.5t-29.5 -0.5q-20 0 -33.5 10.5t-13.5 33.5q0 12 6 24
l286 489q19 26 42 26q17 0 32 -12.5t15 -32.5q0 -5 -1 -11t-6 -13q-62 -104 -123.5 -209.5t-123.5 -210.5h29h38h34t32.5 -0.5t37.5 -1.5v81q0 20 13 32.5t32 12.5q18 0 32 -12.5t14 -32.5v-84q16 -1 32 -1h33h17t18 1q9 0 19 0.5t20 0.5q20 0 33.5 -11.5t13.5 -33.5z" />
    <glyph glyph-name="five" unicode="5" 
d="M610 261q0 -61 -24 -115t-65 -95t-95.5 -65t-115.5 -24q-58 0 -109 22t-89.5 59.5t-61 87.5t-22.5 106q0 20 13 32.5t32 12.5q17 0 32 -12.5t15 -32.5q0 -38 15 -71.5t41 -58.5t60.5 -39t73.5 -14q43 0 80.5 16t66 44t45 66t16.5 81q0 40 -18.5 73t-48.5 55.5t-68 35
t-76 12.5q-29 0 -51.5 -2.5t-42.5 -9t-38.5 -18t-40.5 -29.5l-2 -1q-9 -5 -16.5 -8.5t-14.5 -3.5q-22 0 -34 14t-11 33q0 1 0.5 2t0.5 2q1 17 2.5 33.5t3.5 32.5q3 27 5 53.5t2 53.5q0 16 -3 35t-6 39t-5.5 40t-2.5 43q0 11 1.5 23.5t7 22.5t15 16.5t25.5 6.5
q17 0 33.5 -0.5t33.5 -0.5q17 -1 34 -1h35q33 0 65.5 0.5t65.5 0.5q30 1 68 1h70q19 0 32 -11.5t13 -32.5q0 -20 -13 -33t-32 -13q-35 0 -69 -0.5t-69 -1.5t-70 -1h-69h-54h-9h-4h-4h-9q0 -2 1 -6t1 -6l6 -58t3 -63v-24v-17t-0.5 -17.5t-1.5 -25.5q35 14 72.5 19t75.5 5
q56 0 110.5 -19t97 -54.5t69 -85t26.5 -109.5z" />
    <glyph glyph-name="six" unicode="6" 
d="M491 210q0 37 -15 68t-40.5 53.5t-58.5 35t-69 12.5q-35 0 -67 -12.5t-57 -35t-40 -52.5t-15 -66t14.5 -66.5t39.5 -52.5t57 -34.5t68 -12.5q34 0 67 12t58.5 34t41.5 51.5t16 65.5zM582 210q0 -56 -23 -102t-61.5 -80t-88 -52.5t-101.5 -18.5q-48 0 -91.5 15.5
t-78.5 43.5t-60 67.5t-36 86.5q-8 32 -11 66t-3 66q0 44 11 98.5t32 110t51.5 108.5t69.5 94t86 66t100 25q20 0 33 -12.5t13 -32.5q0 -22 -11 -31t-28 -14q-4 -1 -10 -1q-5 0 -8 -1q-14 -2 -25.5 -4.5t-28.5 -11.5q-32 -17 -60.5 -48.5t-52 -71.5t-41 -84t-27.5 -85
q37 30 84 46t92 16q54 0 103.5 -19.5t87.5 -54.5t60.5 -82.5t22.5 -102.5z" />
    <glyph glyph-name="seven" unicode="7" 
d="M630 757q0 -14 -9 -27l-197 -294q25 0 52 3q3 0 5.5 0.5t5.5 0.5q5 1 11.5 1.5t14.5 0.5q19 0 33.5 -11.5t14.5 -33.5q0 -19 -10 -29t-27 -15q-19 -5 -41.5 -6.5t-47.5 -1.5h-26t-24 1q-9 0 -10.5 0.5t-9.5 0.5q-62 -92 -123 -183t-123 -182q-15 -20 -38 -20
q-19 0 -32 13t-13 32q0 9 2 14.5t5 10.5l215 320q-19 1 -39 1h-39q-8 0 -14 -0.5t-13 -0.5h-27q-20 0 -33 11.5t-13 33.5q0 16 6 25.5t15.5 14t20.5 5.5t20 1q48 0 87.5 -1t86.5 -3q25 37 46.5 68.5t42.5 62.5t42.5 63.5t47.5 70.5h-50q-41 0 -82 1t-82 3t-80.5 3t-80.5 1
q-12 0 -22.5 -0.5t-22.5 -0.5q-11 -1 -25 -1h-24q-20 0 -33 12.5t-13 32.5q0 18 8.5 28t21.5 14.5t27 4.5h26h8q47 0 93.5 -1t93.5 -3t92 -3t93 -1q32 0 68 3q17 1 36 2t37 1t32 -11.5t14 -31.5z" />
    <glyph glyph-name="eight" unicode="8" 
d="M453 578q0 30 -13 54.5t-35 42.5t-49.5 27.5t-55.5 9.5t-55 -9.5t-48 -26.5t-34 -41t-13 -53q0 -28 11.5 -51.5t31 -41t45 -27t52.5 -9.5q5 0 11 -0.5t11 -0.5q5 -1 8 -1h6q2 0 13 3.5t14 5.5q40 16 70 45.5t30 72.5zM501 207q0 28 -11 51t-30 41t-43 30.5t-49 20.5
q-6 2 -21 5.5t-20 3.5h-1q-5 -3 -10 -3q-12 -2 -26.5 -2.5t-27.5 -0.5q-32 0 -60 -13t-49 -34.5t-33 -50.5t-12 -61q0 -35 19.5 -61.5t49 -44.5t64.5 -27t67 -9q34 0 68 10.5t62 30.5t45.5 49t17.5 65zM592 207q0 -56 -25 -101.5t-65.5 -77.5t-91.5 -49t-102 -17
q-48 0 -99.5 15t-94 44.5t-70 72.5t-27.5 100q0 34 9 66.5t25.5 60.5t40 51.5t52.5 39.5q-38 30 -61.5 74t-23.5 96q0 49 20.5 89.5t54 69.5t77 45t89.5 16q47 0 91 -16.5t78 -46t54.5 -70.5t20.5 -91q0 -52 -26 -94t-64 -71q59 -30 98.5 -81.5t39.5 -124.5z" />
    <glyph glyph-name="nine" unicode="9" 
d="M480 542q0 37 -15.5 68t-41 53.5t-58.5 35t-68 12.5q-34 0 -66.5 -12.5t-57.5 -35t-40.5 -52.5t-15.5 -66t15 -67t40 -53.5t57.5 -35t67.5 -12.5q34 0 67 12.5t59 34t41.5 52t15.5 66.5zM583 432q0 -47 -12 -100t-34 -105.5t-54 -100t-72 -84t-88.5 -58.5t-102.5 -22
q-20 0 -33 12.5t-13 32.5q0 39 40 45q5 1 10 1.5t10 1.5q15 2 27.5 4.5t27.5 8.5q38 16 69 46.5t55.5 69.5t41.5 83.5t27 88.5q-38 -34 -86.5 -51.5t-98.5 -17.5q-54 0 -103 19.5t-86.5 54t-59.5 81.5t-22 103q0 55 22.5 101.5t60.5 81t86.5 54t101.5 19.5q56 0 104.5 -18
t87.5 -57q29 -29 47 -64.5t28.5 -73.5t14.5 -78t4 -78z" />
    <glyph glyph-name="colon" unicode=":" horiz-adv-x="296" 
d="M199 37q0 -29 -21.5 -48.5t-49.5 -19.5t-49 19.5t-21 48.5t21 48.5t49 19.5t49.5 -19.5t21.5 -48.5zM199 236q0 -29 -21.5 -48.5t-49.5 -19.5t-49 19.5t-21 48.5t21 49t49 20t49.5 -20t21.5 -49z" />
    <glyph glyph-name="semicolon" unicode=";" horiz-adv-x="169" 
d="M173 235q0 -29 -21 -49t-49 -20t-49.5 20t-21.5 49t21.5 49.5t49.5 20.5t49 -21t21 -49zM147 23q0 -38 -9.5 -78.5t-29 -75t-49 -56.5t-69.5 -22q-17 0 -29.5 12.5t-12.5 31.5t12.5 31.5t29.5 12.5q12 0 22 7.5t18 19t14 26t10 28.5v-1q8 34 8 64q0 19 12.5 31.5
t29.5 12.5q16 0 29.5 -12.5t13.5 -31.5z" />
    <glyph glyph-name="less" unicode="&#x3c;" horiz-adv-x="473" 
d="M310 161q0 -19 -15 -32t-32 -13q-21 0 -36 18l-145 190l2 -3q-8 8 -9 15.5t-1 14.5t1 14.5t9 15.5l-2 -3q36 48 72.5 94.5t72.5 94.5q13 18 36 18q17 0 32 -13t15 -32q0 -17 -12 -29l2 3q-34 -44 -63 -81.5t-63 -81.5q32 -41 63 -80.5t62 -80.5q11 -17 11 -29z" />
    <glyph glyph-name="equal" unicode="=" horiz-adv-x="869" 
d="M678 294q0 -19 -14 -31.5t-32 -12.5h-394q-19 0 -32 12.5t-13 31.5q0 20 13 31.5t32 11.5h394q18 0 32 -11.5t14 -31.5zM678 400q0 -20 -14 -31.5t-32 -11.5h-395q-44 0 -44 43q0 44 44 44h395q18 0 32 -12.5t14 -31.5z" />
    <glyph glyph-name="greater" unicode="&#x3e;" horiz-adv-x="473" 
d="M401 354q0 -5 -2 -12t-7 -14l-146 -191q-14 -17 -36 -17q-18 0 -32 13t-14 32t11 30l-2 -3q34 44 63 81t63 81q-32 41 -63.5 81.5t-62.5 81.5l2 -3q-11 11 -11 30t14 32t32 13q22 0 36 -18l146 -190l-2 3q11 -11 11 -30z" />
    <glyph glyph-name="question" unicode="?" horiz-adv-x="533" 
d="M306 39q0 -28 -21 -49t-49 -21t-49.5 20.5t-21.5 49.5t21.5 49t49.5 20t49 -20t21 -49zM495 580q0 -42 -12.5 -73.5t-33 -55t-46 -41t-50.5 -33.5q-28 -17 -52 -36.5t-33 -40.5q-10 -27 -10 -60q0 -14 5 -31q2 -11 5 -21t3 -21q0 -20 -15.5 -34t-33.5 -14
q-22 0 -33.5 14.5t-11.5 33.5q0 3 -1.5 13t-3.5 19q-5 22 -5 41q0 44 9 74t25 52t39 39.5t51 37.5v-1q8 5 15.5 10.5t15.5 11.5q32 22 57 49t25 67q0 33 -16 57t-40.5 39.5t-55.5 23.5t-61 8t-60 -8t-55 -23.5t-40.5 -39.5t-15.5 -57q0 -19 -14 -32t-32 -13q-19 0 -32 13
t-13 32q0 54 23 95t60.5 68.5t84.5 41t94 13.5t94.5 -13.5t85 -41t61 -68.5t23.5 -95z" />
    <glyph glyph-name="at" unicode="@" horiz-adv-x="766" 
d="M470 396q0 19 -7 37t-19 32t-29 22t-37 8t-36.5 -8t-28.5 -22t-19 -32t-7 -37q0 -20 7 -37.5t19 -31.5t28.5 -22t36.5 -8t37 8t29 22t19 31.5t7 37.5zM743 400q0 -33 -10.5 -67.5t-31.5 -62t-51 -45.5t-69 -18q-27 0 -51 10.5t-40 30.5q-23 -19 -51.5 -30t-60.5 -11
q-39 0 -72 15.5t-57.5 41.5t-38.5 60t-14 72q0 37 14 71.5t38.5 60.5t57.5 41.5t72 15.5q51 0 96 -28q4 11 13.5 18t27.5 7t32 -13t14 -32v-223q0 -17 20 -17q17 0 30 10t22 25.5t13.5 33.5t4.5 34q0 55 -21.5 102.5t-58 82.5t-85.5 55.5t-103 20.5t-102.5 -20.5t-85 -55.5
t-58 -82.5t-21.5 -102.5t21.5 -102.5t58 -83t85 -56t102.5 -20.5q18 0 32 -13t14 -32t-14 -32t-32 -13q-73 0 -138 27.5t-114 75t-77.5 111.5t-28.5 138t28.5 138t77.5 111.5t114 74.5t138 27t138.5 -27t114.5 -74.5t78 -111.5t29 -138z" />
    <glyph glyph-name="A" unicode="A" horiz-adv-x="733" 
d="M368 701q0 11 -0.5 32.5t-2.5 42.5t-6 36.5t-12 15.5q-12 0 -19.5 -14.5t-11.5 -35t-5.5 -42.5t-1.5 -36q0 -22 -0.5 -44t-1.5 -45q0 -11 -0.5 -19t-1 -15t-0.5 -15v-18q13 -3 22 -6t17 -6l15 -6q3 44 6 87.5t3 87.5zM726 188q0 -47 -15 -88t-41.5 -72.5t-62 -49.5
t-77.5 -18q-43 0 -73 17t-50 45t-32 64.5t-17.5 76t-7 78.5t-1.5 72q0 34 0.5 58t2.5 57q-10 3 -22 8q-6 2 -8 2.5t-3.5 1.5t-4 1.5t-9.5 2.5v-71q0 -47 -2.5 -95.5t-10 -94.5t-22.5 -86.5t-40.5 -71t-63 -48t-90.5 -17.5q-18 0 -39.5 6t-39.5 18t-30 31.5t-12 46.5
q0 19 7 35.5t18.5 29t27 19.5t32.5 7q20 0 33 -12.5t13 -35.5q0 -24 -10.5 -33t-24.5 -14q5 -2 12 -2h13q49 0 77 30.5t41.5 76t16.5 99t3 98.5v96q-7 -2 -12.5 -6t-10.5 -7l1 1q-8 -6 -15.5 -10t-16.5 -4q-19 0 -32 14.5t-13 33.5q0 22 14 36v-1q18 20 40 30t45 12
q0 16 0.5 31t1.5 30q1 21 1.5 41.5t0.5 42.5q0 31 5.5 70t20 73.5t39.5 58t64 23.5q40 0 62.5 -25t33.5 -60.5t13.5 -75t2.5 -68.5q0 -42 -2.5 -82.5t-5.5 -81.5q0 -6 -0.5 -8t-0.5 -4q0 -1 -0.5 -3.5t-0.5 -8.5h1q8 0 15 6t14 13q10 10 19 16.5t23 6.5q18 0 32 -15.5
t14 -33.5q0 -8 -3 -17t-11 -17v1q-20 -22 -46.5 -39t-56.5 -17h-8q-3 -54 -3 -107q0 -32 1.5 -74.5t10 -81.5t27 -66t52.5 -27q22 0 41.5 11t33.5 29t22 42t8 50q0 12 -6 23t-15 11l-2 -8q-5 -17 -12 -29.5t-33 -12.5q-19 0 -32 12.5t-13 35.5q0 44 27.5 71t64.5 27
q25 0 45.5 -11t35.5 -29t23 -41.5t8 -48.5z" />
    <glyph glyph-name="B" unicode="B" horiz-adv-x="750" 
d="M399 817q0 -20 -14 -34t-32 -14q-4 0 -6 -26t-3.5 -62.5t-2 -77t-0.5 -68.5v-18q16 17 37.5 27t38.5 10q23 0 48.5 -4.5t47.5 -10.5q33 52 33 118q0 38 -20 72q-20 38 -54.5 59t-72.5 32v-3zM343 325q0 -13 -0.5 -25.5t-0.5 -24.5q18 20 42.5 31.5t52.5 11.5q20 0 33 -14
t13 -34t-13 -34t-33 -14t-32.5 -17t-12.5 -40q0 -22 6 -42t16.5 -35t26 -23.5t33.5 -8.5q35 0 65 15t51.5 41.5t33.5 61.5t12 75q0 56 -28 101.5t-70 72.5q-25 -21 -59 -32.5t-62 -11.5q-17 0 -38 9t-37 26v-3q0 -22 0.5 -43.5t0.5 -42.5zM727 249q0 -61 -19 -113.5
t-53 -91.5t-80 -61.5t-101 -22.5q-30 0 -56.5 10.5t-47.5 29t-36.5 43.5t-23.5 55q-12 -30 -29 -55.5t-40.5 -43.5t-54.5 -28.5t-70 -10.5q-18 0 -39.5 6t-39.5 18t-30 31.5t-12 46.5q0 18 7 35.5t18.5 31t27 22t32.5 8.5q20 0 33 -14.5t13 -34.5q0 -27 -11.5 -35t-25.5 -12
q-1 0 -1 -1h-1h-1q0 -4 11.5 -5t18.5 -1q46 0 72.5 25.5t40.5 65t18 87t4 91.5v50q0 25 -1 51t-1.5 52.5t-0.5 52.5q0 20 1 59.5t5.5 84t14.5 87.5t29 70q-50 -3 -98 -21q-29 -10 -56.5 -28.5t-49.5 -44.5t-35 -58t-13 -68q0 -13 6 -25t15.5 -21.5t20.5 -15.5t22 -6
q12 0 21 8.5t15.5 21t9.5 27.5t3 29q0 23 13 35.5t32 12.5q20 0 33 -12.5t13 -35.5q0 -32 -9.5 -64t-27.5 -58t-44 -42.5t-59 -16.5q-28 0 -55.5 13t-49.5 35.5t-36 52t-14 62.5q0 78 33.5 137t85.5 99t114.5 60t121.5 20q53 0 110.5 -15t105.5 -47t79.5 -84t31.5 -125
q0 -42 -10 -83.5t-29 -76.5q58 -41 93.5 -103.5t35.5 -144.5z" />
    <glyph glyph-name="C" unicode="C" horiz-adv-x="540" 
d="M66 603q18 63 48 122.5t72 107.5q-26 -1 -51 -11.5t-45 -28.5t-32 -44t-12 -57q0 -23 5 -46t15 -43zM409 781q0 18 -7.5 35t-21.5 17q-47 0 -84.5 -26.5t-67 -68t-50 -92.5t-32.5 -100h11q43 0 88 16t81.5 46.5t59.5 74t23 98.5zM533 180q0 -50 -19.5 -91t-51 -69.5
t-71.5 -44t-80 -15.5q-66 0 -118 32.5t-88.5 85.5t-55.5 119t-19 134q0 41 2.5 81t8.5 78q-46 35 -66 88.5t-20 113.5q0 54 20.5 97.5t54.5 74.5t76 48t86 17q18 0 32 -14t14 -34q31 23 66 35.5t76 12.5q28 0 50.5 -12.5t38 -33.5t23.5 -47.5t8 -54.5q0 -77 -30.5 -138.5
t-79.5 -104.5t-110.5 -65.5t-122.5 -22.5q-8 0 -15 0.5t-14 1.5q-4 -30 -5.5 -61t-1.5 -60q0 -48 13 -96.5t37 -88.5t59.5 -65t80.5 -25q23 0 46.5 8.5t42 24.5t30.5 39t12 52q0 16 -7.5 29t-19.5 13q-10 0 -12 -8q-5 -14 -12.5 -25.5t-30.5 -11.5q-19 0 -32 13.5t-13 36.5
t9.5 40t24 28.5t32 17t34.5 5.5q25 0 46.5 -11.5t37.5 -31t25 -44.5t9 -51z" />
    <glyph glyph-name="D" unicode="D" horiz-adv-x="696" 
d="M230 686q11 0 21 -5q5 43 15 84.5t29 67.5q-3 0 -6 0.5t-6 0.5q-41 0 -83 -16t-76.5 -45.5t-56 -70.5t-21.5 -92q0 -20 4.5 -42.5t13.5 -41t22.5 -31t31.5 -12.5q20 0 33 16.5t20.5 40t10.5 50.5t3 48q0 23 13 35.5t32 12.5zM594 477q0 56 -15 107.5t-42 94.5t-63.5 76.5
t-79.5 53.5q-3 -17 -16 -28.5t-29 -11.5q-3 0 -5.5 -23t-3.5 -56t-1.5 -68.5t-0.5 -60.5v-34v-51q0 -24 1 -49q1 -26 1.5 -51t0.5 -51q0 -67 -14 -134t-51 -122q20 -8 40 -10.5t42 -2.5q45 0 80.5 19t61.5 51t44 74t29 89t16 95.5t5 92.5zM685 477q0 -57 -7 -117
t-22.5 -117.5t-41 -109t-61.5 -90t-84.5 -61t-110.5 -22.5q-42 0 -78 10t-74 27q-30 -20 -62.5 -28.5t-67.5 -8.5q-17 0 -38 5t-39.5 16t-31 29t-12.5 45q0 26 12.5 44t31 29.5t39.5 17t38 5.5q32 0 60 -12.5t56 -28.5q32 43 44.5 100.5t12.5 114.5q0 27 -0.5 54t-1.5 55
q-1 12 -1 23q0 12 -1 24q-18 -40 -48.5 -67t-78.5 -27q-39 0 -69.5 20.5t-51.5 52.5t-31.5 72t-10.5 78q0 72 29.5 131t77 101t106 65t115.5 23q81 0 154 -36t128 -97.5t87.5 -144t32.5 -175.5z" />
    <glyph glyph-name="E" unicode="E" horiz-adv-x="521" 
d="M116 695q2 38 17 73t40 64q-14 0 -35.5 -6.5t-41.5 -17t-35 -25t-15 -31.5q0 -24 23 -37.5t47 -19.5zM388 799q0 33 -31 33q-42 0 -80 -28t-58 -70h1q-5 -11 -9 -22.5t-4 -22.5q25 3 56.5 10.5t59 20.5t46.5 32.5t19 46.5zM519 188q0 -48 -19.5 -90t-50.5 -72.5
t-70.5 -48t-79.5 -17.5q-65 0 -117 31.5t-89.5 83t-57.5 116.5t-20 133q0 80 31 146t92 108q-3 5 -4 7.5t-3 8.5q-27 4 -58 14.5t-57.5 30t-43.5 47.5t-17 66q0 40 23.5 72.5t57.5 55.5t71.5 35.5t66.5 12.5q18 0 32 -14t14 -34v-5q32 25 67.5 39t69.5 14q54 0 88 -33
t34 -96q0 -34 -11.5 -61.5t-31 -49t-45 -37.5t-53.5 -28q22 -8 40 -24.5t18 -44.5q0 -23 -9.5 -39.5t-24.5 -27.5t-33 -16.5t-34 -5.5q-26 0 -51 10.5t-47 27.5q-43 -26 -67 -73.5t-24 -105.5q0 -49 13.5 -97t38.5 -86t60.5 -61.5t80.5 -23.5q22 0 45 10.5t42 28.5t30.5 42
t11.5 51q0 12 -6 23t-15 11q-11 0 -14.5 -3t-4.5 -6v1q-4 -14 -11.5 -24.5t-28.5 -10.5q-23 0 -36 17.5t-13 39.5q0 20 12 35t29 25.5t35.5 16t31.5 5.5q24 0 44.5 -11t35.5 -29t23.5 -41.5t8.5 -48.5z" />
    <glyph glyph-name="F" unicode="F" horiz-adv-x="367" 
d="M248 514v49q0 27 2 56q-5 -35 -16 -69t-32 -60q6 -1 12.5 -3.5t11.5 -4.5q4 -2 8 -2q9 0 14 1v33zM255 672q5 49 15.5 92.5t29.5 69.5q-35 -1 -79 -15.5t-83 -40t-65.5 -62t-26.5 -81.5q0 -17 4.5 -33.5t12.5 -29.5t20 -21t27 -8q17 0 27.5 15t16.5 37t8 46t2 42
q0 20 13 34t32 14q18 0 32 -14t14 -34v-11zM588 850q0 -20 -14 -34t-32 -14q-30 0 -61 5t-62 12q-7 1 -13.5 2t-12.5 3q0 -2 0.5 -4.5t0.5 -4.5q0 -23 -14 -35.5t-32 -12.5q-2 0 -3.5 -10t-2.5 -26.5t-2 -37.5t-1 -43q10 19 24.5 32t36.5 13q17 0 31 -8t23.5 -21t15 -29.5
t5.5 -32.5q0 -22 -5 -47h1q20 0 33 -14.5t13 -34.5q0 -18 -11.5 -30t-27.5 -19.5t-32 -10.5t-26 -3h-8t-8 1q-14 -13 -30.5 -22.5t-32.5 -17.5q1 -16 1 -41v-40q0 -60 -8.5 -125t-32.5 -119t-67.5 -88.5t-113.5 -34.5q-19 0 -40 5.5t-39 18t-30 31.5t-12 46q0 19 7 35.5
t19 29t27 19.5t32 7q18 0 32 -14t14 -34q0 -23 -10.5 -32.5t-23.5 -14.5q5 -1 12 -1h12q43 0 69 26.5t40 66.5t18 88t4 90q0 11 -0.5 22t-0.5 22v16h-16q-8 0 -21.5 3.5t-27.5 11t-24 18t-10 24.5q0 4 2 12q-18 -7 -43 -7q-36 0 -64.5 15.5t-48.5 41t-31 59.5t-11 72
q0 70 35.5 124.5t89 92.5t114.5 58t112 20q30 0 60.5 -5.5t62.5 -11.5q27 -5 55 -9.5t58 -4.5q18 0 32 -14.5t14 -34.5z" />
    <glyph glyph-name="G" unicode="G" horiz-adv-x="618" 
d="M66 600q18 62 47 122.5t71 108.5q-26 -1 -50.5 -11t-44 -28.5t-31.5 -44.5t-12 -58q0 -23 4.5 -46t15.5 -43zM402 778q0 17 -7 35t-21 18q-46 0 -83 -27t-65.5 -69t-49 -93.5t-32.5 -99.5h10q43 0 87.5 16t80 46.5t58 74t22.5 99.5zM393 -290v48q0 19 -0.5 37t-1 37.5
t-1.5 46.5q-8 -7 -15 -13t-15 -13q-26 -21 -49.5 -42t-41.5 -47.5t-28.5 -59.5t-10.5 -78q0 -26 6.5 -52t17.5 -47t27 -34t34 -13q28 0 44 23.5t23.5 58.5t9 75t1.5 73zM654 176q0 -12 -7 -23q-31 -57 -71 -104.5t-94 -92.5q2 -54 3.5 -107t1.5 -107q0 -38 -1.5 -80
t-6.5 -83.5t-16 -78.5t-30 -65.5t-48 -45.5t-70 -17q-39 0 -72 22t-56.5 58t-36.5 81.5t-13 92.5q0 84 25 142t64 102q37 41 92 80q2 2 5 3.5t5 3.5q-6 -1 -11.5 -1.5t-10.5 -0.5q-64 0 -115.5 33t-87.5 86t-55 119.5t-19 133.5q0 41 2.5 82t8.5 79q-42 35 -63.5 88.5
t-21.5 112.5q0 54 20.5 98t54 75t75.5 47.5t84 16.5q18 0 32 -12.5t14 -35.5v-1q30 23 64.5 36t74.5 13q28 0 50 -13t37 -34t23 -47.5t8 -53.5q0 -77 -30 -138t-78 -104.5t-108.5 -66.5t-121.5 -23q-8 0 -14 0.5t-14 1.5q-4 -29 -5.5 -60.5t-1.5 -60.5q0 -48 13 -96.5
t37 -88.5t58.5 -65t78.5 -25q19 0 34.5 11t26 29t16 40t5.5 44q0 11 -0.5 21.5t-0.5 21.5v44q0 20 13 34.5t32 14.5q18 0 32 -14.5t14 -34.5v-51t1 -39.5t1.5 -39t2.5 -50.5q34 35 63 79q3 5 5 9t5 9v-1q4 7 7.5 14t8.5 13l-1 -1q14 20 37 20q18 0 32 -15.5t14 -33.5z" />
    <glyph glyph-name="H" unicode="H" horiz-adv-x="811" 
d="M680 759q0 7 -1 18.5t-3 22.5t-5 18.5t-8 7.5q-34 0 -59.5 -26t-44.5 -65t-31.5 -85t-19.5 -86q30 14 60.5 32.5t55.5 42.5t40.5 54t15.5 66zM55 143q0 -8 1 -19.5t3 -22.5t5.5 -19t9.5 -8q35 0 61.5 26.5t45.5 66.5t32 87.5t21 88.5q-31 -15 -63 -34t-57.5 -43.5
t-42 -55t-16.5 -67.5zM373 303q-20 0 -30 9t-13 23q-11 -59 -30 -122t-49.5 -115t-74 -86.5t-102.5 -35.5q-30 0 -51.5 17t-34.5 42t-19 54.5t-6 53.5q0 65 27 115t69 87t92 63.5t97 44.5q0 45 0.5 89t0.5 89q0 42 3 81.5t13 78.5q-3 2 -6 3.5t-6 3.5h1q-21 11 -44 22
t-35 11q-20 0 -43 -6.5t-42 -19t-31.5 -32t-12.5 -44.5q0 -23 12 -44t31 -21q14 0 26 9.5t12 26.5q0 21 13 34t32 13q18 0 32 -13t14 -34q0 -30 -11 -54t-29.5 -41.5t-41.5 -26.5t-47 -9q-30 0 -54.5 13.5t-42 35.5t-27.5 51t-10 60q0 49 21 86t53 61.5t71 37t75 12.5
q26 0 57.5 -14t60.5 -28q4 -2 5 -2h1q1 0 2 -0.5t4 -1.5q17 20 39.5 32.5t49.5 12.5q15 0 33.5 -4.5t34 -14t26 -26t10.5 -40.5q0 -23 -10.5 -39t-26 -26.5t-33.5 -15.5t-34 -5q-23 0 -42 4q-8 -32 -10 -63.5t-2 -63.5v-49q11 13 32 13q14 0 25 -7.5t16 -20.5
q10 57 28 119.5t47.5 115t72.5 87t102 34.5q29 0 49.5 -16.5t33.5 -41t19 -53.5t6 -53q0 -64 -26.5 -113t-67 -85.5t-89.5 -62t-94 -43.5q-1 -8 -1 -16v-16q0 -22 2.5 -58t8.5 -76.5t15.5 -82t22.5 -74.5t31 -54t40 -21t40.5 11t32 29t20.5 41.5t7 49.5q0 12 -5.5 23
t-14.5 11q-1 0 -3 -8q-5 -17 -12 -29.5t-33 -12.5q-19 0 -32 12.5t-13 35.5q0 22 8 40t20.5 31t29.5 20t35 7q24 0 44.5 -11t35.5 -29t23 -41.5t8 -48.5q0 -45 -14 -86t-39 -72.5t-60 -50t-78 -18.5q-49 0 -84.5 35t-59.5 88.5t-38.5 117t-21.5 120.5q-14 -19 -36 -19z" />
    <glyph glyph-name="I" unicode="I" horiz-adv-x="380" 
d="M498 839q0 -23 -10.5 -39.5t-26 -26.5t-33.5 -14.5t-34 -4.5q-23 0 -42 4q-8 -32 -10 -64t-2 -64q0 -43 0.5 -86t0.5 -86q1 -38 1 -87v-86q0 -59 -10 -117.5t-34.5 -104.5t-66.5 -74.5t-106 -28.5q-18 0 -39.5 6t-39.5 18t-30 31.5t-12 46.5q0 19 7 35.5t18.5 29t27 19.5
t32.5 7q20 0 33 -14t13 -34q0 -23 -10.5 -32.5t-22.5 -14.5q5 -2 11 -2h12q39 0 63.5 21t38.5 54.5t19 74t5 79.5v87t-1 86q0 43 -0.5 86t-0.5 86q0 41 3 81.5t13 79.5q-4 2 -6.5 3.5t-6.5 3.5q-20 11 -42.5 21.5t-34.5 10.5q-20 0 -43 -6.5t-42 -19t-31.5 -32t-12.5 -44.5
q0 -23 12 -44t31 -21q14 0 26 9.5t12 26.5q0 20 13 34t32 14q18 0 32 -14t14 -34q0 -30 -11 -54t-29.5 -41t-41.5 -26.5t-47 -9.5q-30 0 -54.5 13.5t-42 36t-27.5 51t-10 59.5q0 49 21 86.5t53 62t71 37t75 12.5q27 0 58 -13.5t57 -27.5l14 -7q17 20 40 33t50 13
q15 0 33.5 -4.5t34 -14.5t26 -26.5t10.5 -39.5z" />
    <glyph glyph-name="J" unicode="J" horiz-adv-x="474" 
d="M263 -116v18q-26 -20 -51.5 -42.5t-45.5 -50t-32.5 -62.5t-12.5 -78q0 -23 1 -44t6 -39q3 -17 9.5 -35.5t15.5 -34.5t19 -26t21 -10q19 0 32 21.5t21.5 52.5t12.5 65.5t4 60.5v204zM521 176q0 -5 -0.5 -8.5t-4.5 -8.5q-13 -32 -31 -59t-40 -50t-45.5 -43.5t-47.5 -39.5
q0 -5 0.5 -9.5t0.5 -9.5q1 -14 1.5 -32t0.5 -32v-204q0 -45 -9.5 -98.5t-29.5 -100t-50.5 -77.5t-72.5 -31q-41 0 -71.5 28.5t-51 72.5t-31 96t-10.5 99q0 71 19.5 124t51 93.5t70 71.5t76.5 58l12 9q-5 152 -7 301.5t-2 301.5q0 39 3 81t13 81q-4 2 -6.5 3.5t-6.5 3.5
q-20 11 -43 22t-34 11q-20 0 -43 -6.5t-42 -19.5t-31.5 -32.5t-12.5 -44.5q0 -23 11.5 -44t31.5 -21q14 0 26 9.5t12 26.5q0 21 13 34t32 13q18 0 32 -13t14 -34q0 -30 -11 -54.5t-29.5 -41.5t-41.5 -26.5t-47 -9.5q-30 0 -54.5 13.5t-42.5 36t-27.5 51.5t-9.5 60
q0 48 20.5 85.5t52.5 62.5t71 38t76 13q27 0 57.5 -13.5t56.5 -27.5q5 -3 6 -4t9 -4q17 22 39.5 34.5t50.5 12.5q16 0 34 -4.5t33.5 -14t26 -26t10.5 -40.5q0 -23 -10.5 -39.5t-26 -27t-33.5 -15.5t-34 -5q-20 0 -42 5q-8 -32 -10 -64.5t-2 -64.5q0 -75 0.5 -140.5t1 -130
t2.5 -130.5t5 -141q20 18 38 38t31 43q2 4 3.5 6.5t3.5 6.5q2 5 5.5 11t5.5 10q14 24 38 24q17 0 32 -15.5t15 -33.5z" />
    <glyph glyph-name="K" unicode="K" horiz-adv-x="741" 
d="M817 187q0 -45 -15 -86.5t-41 -72.5t-61.5 -49.5t-76.5 -18.5q-37 0 -67 18t-51 47.5t-32 66t-11 74.5v98q0 25 0.5 49t0.5 49q0 10 -0.5 18.5t-2.5 16.5q-17 -10 -34 -14t-37 -4q-23 0 -48 14v-108q0 -59 -9.5 -117t-34 -104t-66.5 -75t-106 -29q-18 0 -39.5 6
t-39.5 18.5t-30 31.5t-12 45q0 19 6.5 36.5t18 31t27 21.5t33.5 8q20 0 33 -14.5t13 -34.5q0 -27 -11.5 -35t-25.5 -12q-1 0 -1 -1h-1h-1q0 -3 12.5 -4.5t17.5 -1.5q39 0 63 21t38 54.5t19 74.5t5 80v172q0 43 -0.5 86t-0.5 87q0 39 3.5 81t14.5 80q-11 6 -24 12.5t-26 12
t-24 9t-18 3.5q-19 0 -41.5 -6t-42 -18t-32.5 -31t-13 -45q0 -23 11.5 -44t31.5 -21q14 0 25.5 9t11.5 26q0 23 13 35.5t33 12.5q45 0 45 -48q0 -29 -10.5 -53.5t-28.5 -41.5t-41 -26.5t-48 -9.5q-30 0 -54.5 13.5t-42.5 36t-28 51.5t-10 60q0 49 21 86t53 61.5t71.5 37
t75.5 12.5q29 0 58 -14l58 -28q1 -1 6 -3t8 -4q17 22 39 35.5t50 13.5q16 0 34 -4.5t33.5 -15t25.5 -27t10 -39.5t-10 -39t-25.5 -26.5t-33.5 -15.5t-34 -5q-11 0 -22.5 0.5t-21.5 2.5q-6 -30 -8 -63t-2 -63v-50q0 -24 1 -48q12 5 24.5 8.5t23.5 3.5q15 0 31.5 -2.5
t30.5 -7.5q11 29 14 63.5t3 66.5q0 49 13.5 95.5t39.5 83.5t63 59.5t85 22.5q31 0 54 -12.5t38 -34t22.5 -49.5t7.5 -58q0 -20 -13 -34.5t-33 -14.5t-32.5 14.5t-12.5 34.5q0 21 -7 40t-24 19q-27 0 -47.5 -15t-34 -39t-20.5 -53.5t-7 -58.5q0 -45 -8.5 -95.5t-26.5 -92.5
q17 -26 22.5 -51.5t5.5 -54.5v-204q0 -19 4.5 -38.5t13.5 -35.5t22 -26.5t30 -10.5q22 0 41 11t33 29t21.5 42t7.5 50q0 12 -5.5 22.5t-14.5 10.5l-2 -8l1 2q-3 -17 -10.5 -30.5t-35.5 -13.5q-20 0 -33 13t-13 34q0 44 28 71t65 27q24 0 44.5 -10.5t35.5 -28.5t23 -41t8 -48
z" />
    <glyph glyph-name="L" unicode="L" horiz-adv-x="542" 
d="M438 779q0 20 -8 35t-24 15q-54 0 -84.5 -36t-30.5 -99v-35q0 -14 0.5 -27.5t1 -28t1.5 -34.5q29 13 55.5 33.5t46 47t31 59t11.5 70.5zM200 694q0 82 35 138q-10 -2 -14 -2q-27 0 -53 -9.5t-46.5 -27.5t-33.5 -44t-13 -59q0 -29 7.5 -55.5t22 -46.5t35 -32t46.5 -12
q6 0 7.5 -0.5t2 -1t1.5 -0.5q2 0 8 2q-2 38 -3.5 74t-1.5 76zM588 141q0 -15 -9 -28q-18 -27 -40.5 -54.5t-49 -49t-56.5 -35t-64 -13.5q-45 0 -85 8t-81 28q-26 -20 -57 -28t-62 -8q-15 0 -37.5 5.5t-42.5 17t-34.5 29.5t-14.5 42q0 28 13 46t32 28.5t40.5 15t38.5 4.5
q34 0 57 -8.5t49 -23.5q11 20 17.5 45t9.5 51t4 52t1 49q0 34 -2.5 66t-4.5 65q0 4 -0.5 3.5t-0.5 -1.5v-2v4h-23q-46 0 -83 19t-63.5 52t-41 76.5t-14.5 93.5q0 54 20.5 97.5t54.5 74t76 47.5t86 17q18 0 32 -14t14 -34v-6q26 25 61 39t78 14q28 0 51 -12t39 -32
t24.5 -46.5t8.5 -55.5q0 -60 -18 -110t-49.5 -89t-73 -67t-88.5 -44q0 -1 0.5 -3t0.5 -3q3 -37 5 -74t2 -75q0 -60 -7.5 -123.5t-34.5 -117.5q23 -8 50.5 -12.5t52.5 -4.5q19 0 36.5 9t32.5 22t27.5 28.5t22.5 28.5q15 19 26 31.5t28 12.5q18 0 32 -13.5t14 -33.5z" />
    <glyph glyph-name="M" unicode="M" horiz-adv-x="931" 
d="M924 187q0 -46 -15 -87t-41.5 -72t-62 -49t-77.5 -18q-43 0 -73 16.5t-50 44.5t-32 64.5t-17.5 75.5t-7 78t-1.5 73q0 48 2.5 96t6.5 96q3 41 6 81t4 82q-9 -114 -15.5 -226.5t-12.5 -226.5q-1 -17 -2 -37t-2 -37q0 -5 -0.5 -11t-0.5 -12q-1 -24 -3 -52t-10 -52
t-24.5 -40t-46.5 -16q-24 0 -39.5 11.5t-24 29t-12 39.5t-3.5 43v50q0 2 -0.5 3.5t-0.5 4.5q-5 76 -9 153t-8 152q-2 38 -3.5 75.5t-3.5 75.5v-1q-2 19 -2.5 37.5t-2.5 37.5q-8 -113 -17.5 -225t-23.5 -224q-7 -53 -23 -100t-44 -82.5t-67.5 -56t-92.5 -20.5
q-20 0 -40.5 5.5t-37.5 17.5t-28 31t-11 47q0 42 26 66.5t61 24.5q20 0 33 -12.5t13 -35.5q0 -27 -12 -35.5t-26 -12.5q4 -1 10 -1h12q33 0 57 14.5t40 38.5t25.5 56t14.5 68q17 135 27.5 266.5t19.5 266.5q1 22 4.5 49.5t12.5 52t27 41t48 16.5q25 0 39.5 -10.5t22 -27
t9.5 -37t3 -39.5q0 -5 0.5 -8t0.5 -7q3 -53 5.5 -108.5t5.5 -108.5q4 -77 7.5 -152t8.5 -151q7 132 15.5 262t20.5 261q2 19 5.5 41t12 41t24 31.5t42.5 12.5q29 0 47 -13t28 -33t13.5 -44.5t3.5 -47.5q0 -12 -1 -25t-2 -24t-1.5 -22t-0.5 -22q0 -50 -3 -99.5t-7 -97.5
t-7 -96t-3 -96q0 -32 1.5 -74.5t10 -81.5t27 -66t52.5 -27q22 0 41.5 11t33.5 29t22 41.5t8 49.5q0 13 -6 24t-15 11q-1 -1 -1 -2t-0.5 -2.5t-0.5 -2.5q-5 -17 -12 -30t-33 -13q-19 0 -32 13t-13 34q0 44 27.5 71t64.5 27q25 0 45.5 -10.5t35.5 -28.5t23 -41.5t8 -49.5z" />
    <glyph glyph-name="N" unicode="N" horiz-adv-x="627" 
d="M800 724q0 -30 -12 -53.5t-30.5 -39.5t-42 -24t-46.5 -8q-15 0 -31 5t-29 14.5t-21.5 24.5t-8.5 36q0 23 14 35.5t30 12.5q23 0 30 -10.5t12 -22.5h1q1 0 1.5 0.5t1.5 0.5q12 0 26 7.5t14 21.5q0 21 -6 40t-17.5 33.5t-26.5 23t-33 8.5q-21 0 -33.5 -13t-19 -33
t-8.5 -44.5t-2 -47.5v-139t1 -138q0 -69 0.5 -138t0.5 -138q0 -24 -3 -55t-13 -59t-29.5 -47t-52.5 -19q-27 0 -44.5 16t-28 40t-16 52t-8.5 51q-1 4 -1.5 9.5t-1.5 8.5q-18 133 -35 264.5t-34 265.5q-1 -112 -3 -222.5t-10 -221.5q-4 -53 -17 -100.5t-38.5 -83t-63.5 -56.5
t-91 -21q-18 0 -39 6t-39 18t-30 31.5t-12 46.5q0 19 7 35.5t18.5 29t27 19.5t32.5 7q19 0 32 -14t13 -34q0 -23 -10.5 -32.5t-22.5 -14.5q5 -2 11 -2h12q31 0 53 14.5t35.5 38.5t21 55t10.5 65q8 134 10 273t2 273q0 21 2.5 47t10.5 48.5t24.5 38t45.5 15.5q25 0 40.5 -12
t24 -30.5t12.5 -40t6 -40.5q17 -129 33 -258t33 -257q5 -34 9 -68.5t9 -68.5q0 -2 0.5 -5t0.5 -6q1 -10 3 -24t3.5 -27.5t2.5 -23t0 -9.5q3 0 4.5 8t2.5 18.5t1 21.5v19q0 71 -0.5 140.5t-0.5 140.5q0 31 -0.5 67t-0.5 73v74v68q0 44 5 87t21 77t46 55t81 21q36 0 68 -16
t55.5 -43.5t37 -64t13.5 -76.5z" />
    <glyph glyph-name="O" unicode="O" horiz-adv-x="659" 
d="M121 656q0 49 12 93q-24 -29 -41 -65.5t-27 -77t-14.5 -82t-4.5 -81.5q0 -71 15 -140.5t46.5 -124t80 -88.5t115.5 -34q64 0 112 37t79.5 94.5t47.5 128t16 136.5q0 54 -13.5 120t-40.5 124t-67.5 97t-94.5 39q-32 0 -56 -14t-40.5 -38t-25 -56t-8.5 -68q0 -11 4 -20
t11 -9q4 0 7.5 6.5t5 15.5t2.5 19t1 18q0 23 13 35.5t32 12.5q18 0 32 -12.5t14 -35.5q0 -24 -6.5 -51.5t-19.5 -50.5t-33.5 -38.5t-47.5 -15.5q-23 0 -42.5 10.5t-33.5 28t-22 40.5t-8 47zM650 452q0 -86 -22 -174t-66 -159t-109 -115.5t-150 -44.5q-89 0 -154.5 42
t-108.5 110t-64 155t-21 177q0 67 10 131t32.5 121.5t59 106t88.5 84.5q10 10 28 10q10 0 18.5 -5.5t14.5 -13.5q27 25 61 38.5t75 13.5q50 0 92.5 -21.5t76.5 -58.5t60 -85.5t44 -102t26.5 -107.5t8.5 -102z" />
    <glyph glyph-name="P" unicode="P" horiz-adv-x="391" 
d="M380 814q0 -21 -14 -34t-32 -13q-4 0 -6 -26t-3.5 -62.5t-2 -76t-0.5 -67.5v-38q0 -21 0.5 -42t0.5 -42q1 -20 1 -45v-44q0 -43 -3.5 -86t-12.5 -83.5t-25 -76t-41.5 -61.5t-61 -41t-83.5 -15q-19 0 -40 5.5t-39 18t-29.5 31.5t-11.5 46q0 38 24.5 64.5t59.5 26.5
q20 0 33 -12.5t13 -35.5t-11 -32.5t-24 -14.5q5 -2 12 -2h13q46 0 73 25.5t41 65t18 86.5t4 91q0 27 -0.5 53t-1.5 53q-1 23 -1 53v56q0 19 1 56t5.5 79.5t14 84t27.5 68.5q-40 -1 -87 -17q-24 -8 -49.5 -22.5t-47 -35t-35 -47t-13.5 -57.5q0 -27 10.5 -47t33.5 -20
q11 0 21 11t17 26.5t11 33t4 30.5q0 20 13 34t32 14q18 0 32 -14t14 -34q0 -30 -10.5 -65t-29.5 -64.5t-45.5 -49t-58.5 -19.5t-57 13t-42.5 35.5t-26.5 52t-9 63.5q0 69 33 120.5t83 86t108.5 51.5t108.5 17q54 0 112 -12t106 -42t79.5 -81t31.5 -129q0 -44 -11.5 -87.5
t-34.5 -78t-57 -55.5t-79 -21q-18 0 -36.5 7t-33.5 20t-25 32t-10 42q0 20 13 34t32 14q27 0 33 -10.5t9 -25.5v-4q0 -1 6 -11q2 -2 12 -2q23 0 40 13.5t28.5 34.5t17 47t5.5 51q0 36 -12.5 62.5t-32.5 45.5t-46.5 31t-54.5 19v-3z" />
    <glyph glyph-name="glyph49" horiz-adv-x="654" 
d="M483 126q-17 0 -29 10t-15 25q-23 -30 -48 -57t-54 -50q11 -2 22 -2h24q22 0 52 8.5t57 23.5t45.5 35.5t18.5 44.5q0 8 -1 17.5t-5 9.5q-12 0 -15.5 -6.5t-5.5 -12.5q-4 -19 -11.5 -32.5t-34.5 -13.5zM402 600q0 17 11.5 30t28.5 15q-24 36 -62.5 58.5t-86.5 22.5
q-38 0 -74.5 -8t-65.5 -26t-47 -47.5t-18 -71.5q0 -32 14 -58.5t37 -45t52.5 -28.5t60.5 -10q27 0 54.5 10.5t49 29t35.5 43t14 52.5q0 1 -0.5 4.5t-1.5 8.5v-1q-1 4 -1 9v13zM647 164q0 -45 -27 -82t-67 -63.5t-86 -41.5t-84 -15q-42 0 -82 5.5t-80 19.5q-35 -13 -71.5 -19
t-71.5 -6q-17 0 -38 4.5t-40 14.5t-32 26.5t-13 39.5q0 24 13 40.5t32.5 27t41 15.5t38.5 5q33 0 62 -12.5t57 -26.5q5 -2 9 -4.5t11 -5.5q52 26 94.5 67.5t75 93t53 109.5t28.5 116q-16 -29 -40.5 -53t-53.5 -41.5t-61 -27t-63 -9.5q-49 0 -95 16.5t-81.5 47t-57 73.5
t-21.5 95q0 65 25 111t66.5 75.5t95 43t109.5 13.5q58 0 107.5 -22.5t86.5 -60.5t58 -89t21 -108q0 -66 -16 -133t-45 -130q21 8 45 8q26 0 44.5 -10.5t30 -27t17 -37.5t5.5 -42z" />
    <glyph glyph-name="R" unicode="R" horiz-adv-x="882" 
d="M250 623q2 28 5.5 57.5t9.5 57.5t15 52.5t21 41.5q-42 -2 -87 -17t-82.5 -42.5t-61.5 -68t-24 -94.5q0 -13 6 -25t15 -21.5t20.5 -15t22.5 -5.5q12 0 21 8t15.5 21t9.5 28t3 29q0 21 13 34t32 13q18 0 32 -13t14 -34v-6zM399 814q0 -21 -14 -34t-32 -13q-4 0 -6.5 -27
t-4 -66t-2 -82t-0.5 -74q17 17 39 26t39 9q25 0 49 -7.5t44 -19.5q20 23 27.5 60t7.5 69q0 31 -11 56.5t-29 45.5t-41 35t-48 24q-5 2 -9.5 3t-9.5 3q1 -3 1 -8zM875 187q0 -46 -15 -87t-41 -72t-61.5 -49t-77.5 -18q-38 0 -67.5 18t-50 47.5t-31.5 66t-11 74.5v165
q0 18 -3.5 35t-11.5 31q-20 -10 -42 -15.5t-44 -5.5q-17 0 -39.5 10.5t-39.5 27.5q0 -4 0.5 -7.5t0.5 -7.5q0 -19 0.5 -37.5t0.5 -36.5q0 -64 -8.5 -129t-33 -117.5t-69.5 -85.5t-117 -33q-18 0 -39.5 5.5t-39.5 18t-30 31.5t-12 46q0 19 7 35.5t18.5 29t27 19.5t32.5 7
q20 0 33 -12.5t13 -35.5q0 -24 -10.5 -33t-24.5 -14q5 -2 12 -2h13q46 0 73 26t41 66t18 87.5t4 90.5q0 24 -0.5 47.5t-1.5 47.5t-1 49v49q0 15 0.5 42t2.5 60q-1 -32 -11 -63t-28 -55.5t-43.5 -40t-57.5 -15.5q-28 0 -55.5 13.5t-49.5 36t-36 52t-14 61.5q0 80 34 139.5
t87 99.5t116.5 59.5t123.5 19.5q53 0 109.5 -15.5t103.5 -49t77.5 -85t30.5 -123.5q0 -52 -15.5 -103.5t-46.5 -90.5q20 -28 28 -61t8 -68v-165q0 -19 4.5 -38.5t13 -35.5t21.5 -26.5t30 -10.5q22 0 41.5 11t33 29t21.5 41.5t8 49.5q0 13 -6 23.5t-15 10.5l-2 -8
q-5 -17 -12 -30t-33 -13q-19 0 -32 14t-13 34q0 44 27.5 71t64.5 27q24 0 44.5 -10.5t35.5 -28t23.5 -41t8.5 -49.5z" />
    <glyph glyph-name="S" unicode="S" horiz-adv-x="389" 
d="M468 779q0 18 -10 35t-26 17q-43 0 -68 -26.5t-38 -66.5t-17 -87t-4 -89q31 12 60.5 32.5t52.5 48.5t36.5 62t13.5 74zM213 544q0 37 3 77t10 80t19.5 77t32.5 67q-6 -8 -15 -11.5t-18 -3.5q-27 0 -53 -10t-46.5 -28t-33.5 -44t-13 -58q0 -29 7.5 -55.5t22 -46.5t35 -32
t46.5 -12h3zM560 779q0 -62 -21.5 -114.5t-56.5 -93t-81 -68.5t-95 -42q0 -12 0.5 -23t1.5 -23l2 -44t1 -45q0 -65 -9.5 -130t-36 -117.5t-72 -85.5t-117.5 -33q-18 0 -39.5 6t-39.5 18t-30 31.5t-12 46.5q0 19 7 35.5t18.5 29t27 19.5t32.5 7q20 0 33 -14t13 -34
q0 -23 -10 -33t-23 -14q5 -2 11 -2h12q46 0 74.5 25.5t44 64.5t20.5 87t5 93q0 32 -1.5 62t-3.5 60h-5q-46 0 -83 19t-63.5 52t-41 77t-14.5 94q0 53 20.5 96.5t54.5 74.5t76 48t86 17q18 0 32 -14t14 -34q0 -14 -6 -24q24 33 60 53t87 20q27 0 50 -12.5t40.5 -33
t27.5 -47.5t10 -55z" />
    <glyph glyph-name="T" unicode="T" horiz-adv-x="539" 
d="M403 813q0 8 -11 12t-19 4q-13 0 -27.5 -3t-26.5 -8q30 -17 64 -17q6 0 13 3t7 9zM532 187q0 -46 -16 -87t-43.5 -72t-64 -49.5t-77.5 -18.5q-74 0 -129.5 29.5t-93.5 80.5t-57 119.5t-19 146.5q0 60 8 125t25 127.5t43.5 120t62.5 103.5q-11 9 -24 16t-25 7
q-22 0 -46.5 -9.5t-45 -24.5t-34 -34t-13.5 -37q0 -11 5 -14q7 4 12 18q7 16 16.5 29.5t35.5 13.5q23 0 33 -15t10 -33q-4 -19 -14 -37t-25.5 -32t-35 -22.5t-42.5 -8.5q-46 3 -66.5 32t-20.5 65t21 71t54.5 62.5t74.5 44.5t82 17q42 0 67 -11.5t48 -30.5q61 45 135 45
q20 0 41.5 -8t39 -22t29 -35t11.5 -46q0 -26 -10 -45.5t-25.5 -33.5t-35.5 -21t-40 -7q-41 0 -75 13t-65 35q-32 -39 -55 -89.5t-37.5 -106t-21 -112.5t-6.5 -110q0 -57 12.5 -107.5t38.5 -89t65 -61t92 -22.5q23 0 43 10.5t35 28.5t23.5 41.5t8.5 50.5q0 13 -5.5 23.5
t-14.5 10.5t-11 -3t-3 -6q-5 -15 -12 -25.5t-32 -10.5q-19 0 -32 13t-13 36t10 40.5t25 29t33 17t35 5.5q24 0 44.5 -11t35.5 -29t23 -41.5t8 -48.5z" />
    <glyph glyph-name="U" unicode="U" horiz-adv-x="929" 
d="M177 675q5 0 8 -1v40q0 15 -2.5 35t-8.5 37t-16 29t-24 12q-22 0 -38.5 -16.5t-27.5 -40.5t-16.5 -51.5t-5.5 -50.5q0 -15 2 -36.5t7 -41t13.5 -33.5t22.5 -14q10 0 18 8.5t13 21.5t7.5 27.5t2.5 26.5q0 23 13 35.5t32 12.5zM922 187q0 -46 -15 -87t-41 -72t-61.5 -49
t-77.5 -18q-49 0 -89.5 24.5t-66.5 68.5q-29 -45 -71 -69t-96 -24q-51 0 -91.5 25t-69 65t-43.5 90.5t-15 101.5v258q-17 -24 -40.5 -39t-53.5 -15q-39 0 -65 22.5t-41.5 55.5t-22.5 71.5t-7 71.5q0 42 11.5 87t34.5 82.5t56 61.5t77 24q38 0 65 -20t44 -51t25 -67.5
t8 -70.5v-471q0 -33 8.5 -66t25 -60t40.5 -44t54 -17t54.5 15t41 39.5t25.5 56t9 64.5v646q0 20 13 34t32 14q18 0 32 -14t14 -34v-690q0 -25 7.5 -48.5t21 -42t32.5 -29.5t41 -11t41.5 11t33 29t21.5 41.5t8 49.5q0 13 -6 24t-15 11l-2 -8q-5 -17 -12 -29.5t-33 -12.5
q-19 0 -32 13t-13 34q0 44 27.5 71t64.5 27q25 0 45.5 -10.5t35.5 -28.5t23 -41.5t8 -49.5z" />
    <glyph glyph-name="V" unicode="V" horiz-adv-x="660" 
d="M454 823q0 -8 5.5 -14t13.5 -10.5t17.5 -7t18.5 -3.5q-6 15 -13.5 27t-17.5 12q-5 0 -14.5 -1t-9.5 -3zM179 675q4 0 6 -1v40q0 15 -2.5 35t-8.5 37t-16 29t-24 12q-22 0 -38.5 -16.5t-27.5 -40.5t-16.5 -52t-5.5 -50q0 -15 2 -36.5t7.5 -41t14.5 -33.5t23 -14
q10 0 17.5 8.5t12.5 21t7.5 27.5t2.5 27q0 20 14 34t32 14zM734 812q0 -16 -11.5 -31t-28.5 -27.5t-36 -23t-34 -17.5q14 -68 17.5 -136t3.5 -136q0 -42 -3 -94t-12 -105.5t-25.5 -104t-43.5 -90t-65.5 -63.5t-91.5 -24q-51 0 -91.5 25t-69 65.5t-43.5 91t-15 101.5v254
q-17 -23 -40 -36.5t-52 -13.5q-39 0 -65 22.5t-42.5 55.5t-23.5 71.5t-7 71.5q0 42 11.5 87t34.5 82t56 61t77 24q38 0 65 -20t44 -50.5t25 -67.5t8 -70v-471q0 -33 8.5 -66t25 -60t40.5 -44t54 -17q34 0 58.5 20t41 53t26.5 74.5t15.5 84t7 83t1.5 70.5q0 64 -4 127.5
t-16 123.5h-13q-24 0 -51.5 7.5t-51.5 23.5t-39.5 41t-15.5 59q0 27 11 45.5t28 30.5t37 17.5t39 5.5q25 0 44 -10t34 -26.5t25.5 -37.5t18.5 -42q17 8 29 18t29 24l-2 -1q8 8 16 11t16 3q18 0 32 -15.5t14 -33.5z" />
    <glyph glyph-name="W" unicode="W" horiz-adv-x="1017" 
d="M799 823q0 -16 18.5 -24t35.5 -10q-6 15 -14 26.5t-17 11.5q-5 0 -14 -1t-9 -3zM176 675q2 0 4.5 -0.5t4.5 -0.5v40q0 15 -2.5 35t-8.5 37t-16 29t-24 12q-22 0 -38.5 -16.5t-27.5 -40.5t-16.5 -52t-5.5 -50q0 -14 2 -35.5t6.5 -41.5t13 -34t22.5 -14q10 0 17.5 8.5
t12.5 21t7.5 27.5t2.5 27q0 20 14 34t32 14zM1079 812q0 -16 -11.5 -31t-28.5 -27.5t-36 -23t-34 -17.5q14 -68 17.5 -136t3.5 -136q0 -42 -3 -94t-12.5 -105.5t-26 -104t-43 -90t-65.5 -63.5t-92 -24q-56 0 -99 27.5t-72 75.5q-29 -49 -72.5 -76t-100.5 -27q-51 0 -91.5 25
t-69 65.5t-43.5 91t-15 101.5v258q-17 -24 -40.5 -39t-54.5 -15q-39 0 -64.5 22.5t-41.5 56t-22.5 72t-6.5 70.5q0 42 11.5 87t34.5 82t56 61t77 24q38 0 65 -20t44 -50.5t25 -67.5t8 -70v-471q0 -33 8.5 -66t25 -60t40.5 -44t54 -17t53 13.5t39.5 36t25.5 52.5t11 63
q1 12 1 23v24v609q0 21 13 34t32 13q18 0 32 -13t14 -34v-665q0 -32 9 -60t25.5 -49.5t39 -34t49.5 -12.5q34 0 58.5 20t41 53t27 74.5t16 84t7 83t1.5 70.5q0 66 -4 128t-15 123h-14q-24 0 -51.5 7.5t-51.5 23.5t-39.5 41t-15.5 59q0 27 11 45.5t27.5 30.5t36.5 17.5
t39 5.5q24 0 43.5 -10t34.5 -26.5t26.5 -37.5t19.5 -42q14 8 28 18.5t29 23.5l-2 -1q8 8 16 11t16 3q18 0 32 -15.5t14 -33.5z" />
    <glyph glyph-name="X" unicode="X" horiz-adv-x="799" 
d="M674 759q0 7 -1 18.5t-3.5 22.5t-7 18.5t-11.5 7.5q-40 0 -70 -26t-52 -65t-36.5 -85.5t-23.5 -86.5q35 14 71.5 32t66 42t48.5 54t19 68zM72 161q0 -9 1.5 -23t4.5 -27.5t8 -23t13 -9.5q44 0 76.5 32t56 80t39.5 104t26 104q-38 -17 -77.5 -39t-72 -51t-53.5 -65.5
t-22 -81.5zM171 928q49 0 86 -23.5t64 -61t45 -84.5t28 -93q16 48 38 94.5t53 82.5t72 58t94 22q33 0 55.5 -16.5t37 -41t21 -53.5t6.5 -53q0 -65 -30.5 -114t-77 -85.5t-103 -62t-107.5 -43.5q-1 -8 -1 -16v-15q0 -22 3 -58t10 -76.5t18 -82t26.5 -74.5t36.5 -54t48 -21
t48.5 11t37 29t24 41.5t8.5 49.5q0 12 -7 23t-19 11q-5 0 -6 -2.5t-2 -5.5q-5 -17 -12.5 -29.5t-35.5 -12.5q-20 0 -33.5 12.5t-13.5 35.5q0 22 8.5 40t23 31t33 20t38.5 7q26 0 48.5 -11t39 -29t26 -41.5t9.5 -48.5q0 -45 -15.5 -86t-44 -72.5t-68 -50t-87.5 -18.5
q-36 0 -66 15t-54 41t-42 60.5t-31 72.5q-10 29 -17 57.5t-12 55.5q-16 -55 -40.5 -107.5t-58.5 -93t-77 -65t-97 -24.5q-34 0 -58 19t-39.5 47.5t-22.5 61t-7 60.5q0 80 35.5 138.5t89.5 101.5q49 38 106 66.5t111 44.5v19q0 19 -3 49t-10 64t-18 69t-27 63t-37 45.5
t-48 17.5t-49 -9t-37.5 -24t-24 -34.5t-8.5 -40.5q0 -9 7 -17t19 -8q7 0 9 7l-1 -2q4 14 12 26t37 12q19 0 33.5 -12.5t14.5 -32.5q0 -19 -9 -35t-24 -27.5t-34 -18t-38 -6.5q-27 0 -49.5 9.5t-39 25.5t-25.5 36.5t-9 42.5q0 39 15.5 75t44 63t68.5 43t88 16z" />
    <glyph glyph-name="Y" unicode="Y" horiz-adv-x="738" 
d="M177 674q5 0 8 -1v38q0 16 -2.5 36t-8.5 38t-16 30t-24 12q-22 0 -38.5 -16.5t-27.5 -40.5t-16.5 -52t-5.5 -51q0 -15 2 -36.5t7 -42t13.5 -34.5t22.5 -14q10 0 17.5 9t12.5 21.5t7.5 27.5t2.5 27q0 20 14 34.5t32 14.5zM534 -126l-20 -12l1 1q-34 -20 -69.5 -43.5
t-65 -53t-48.5 -67t-19 -85.5q0 -23 5 -46t14 -42t21.5 -31.5t28.5 -13.5q40 4 69 38.5t47.5 84t27 106t8.5 106.5v58zM785 177q0 -2 -0.5 -6t-4.5 -12l2 3q-25 -71 -63.5 -127t-93.5 -98v-121q0 -71 -13 -148.5t-42 -142.5t-75 -107t-113 -42q-38 0 -67.5 21t-50 54.5
t-31.5 76t-11 86.5q0 71 22.5 123t58 91t79.5 68.5t87 55.5q21 13 34.5 20.5t30.5 20.5v12q-56 -51 -130 -51q-51 0 -91.5 25.5t-69 66t-43.5 91.5t-15 102v259q-17 -24 -40.5 -38.5t-53.5 -14.5q-39 0 -65 22.5t-41.5 56t-22.5 72.5t-7 71q0 41 11.5 86t34.5 82.5t56 62
t77 24.5q38 0 65 -20.5t44 -51.5t25 -68t8 -71v-472q0 -33 8.5 -66.5t25 -61t40.5 -44.5t54 -17t54.5 15t41 40t25.5 57t9 65v650q0 20 13 33.5t32 13.5q20 0 33 -14t13 -34v-806q32 36 53 85l3 5q3 5 3 6q0 2 2 7q7 17 19 34.5t33 17.5q17 0 32 -14.5t15 -33.5z" />
    <glyph glyph-name="glyph58" horiz-adv-x="518" 
d="M319 -128v10v2v2v9q-1 0 -5 -2h1q-27 -13 -55.5 -27.5t-52 -32.5t-39 -40.5t-15.5 -49.5q0 -14 4 -31t11.5 -31t19.5 -23.5t27 -9.5q38 0 59 23.5t31 58t12 73t2 69.5zM235 556q22 0 36 -16q5 29 11 59t14 59q0 4 1 6q-37 13 -69 35h1q-12 7 -20.5 12t-17 8.5t-18 5
t-21.5 1.5q-24 0 -43.5 -12t-32.5 -31.5t-20 -43t-7 -46.5q0 -22 7.5 -42t21.5 -35.5t32.5 -24.5t41.5 -9q14 0 26 7.5t12 21.5q0 45 45 45zM568 160q0 -6 -4 -16.5t-10 -21.5t-12 -21l-9 -15q-26 -42 -54 -79t-70 -64q1 -13 1 -24v-24q0 -33 -1 -71t-6.5 -75t-17.5 -72
t-33.5 -61t-55 -42t-81.5 -16q-37 0 -65.5 17t-48 44t-29.5 59.5t-10 64.5q0 47 19.5 82.5t50 63t68 48t73.5 37.5q10 5 19.5 9t20.5 10q-3 26 -12 52.5t-28 37.5q-5 -22 -13.5 -44.5t-22 -40.5t-33.5 -29.5t-48 -11.5q-35 0 -54 20.5t-19 55.5q0 24 9.5 46t25.5 39.5
t36.5 30t42.5 19.5q4 22 11 45q13 57 24 112.5t21 112.5q-19 -22 -45.5 -34t-55.5 -12q-41 0 -76.5 16.5t-61.5 44t-41 64t-15 76.5t13.5 80t38.5 72t61 51.5t81 19.5q44 0 72.5 -12.5t54.5 -28.5v1q13 -8 26 -15t27 -13q10 19 19.5 32t22 21.5t29 12.5t40.5 4
q41 0 64.5 -22.5t23.5 -64.5q0 -23 -11.5 -39.5t-29 -27.5t-37.5 -16t-37 -5h-16q-7 0 -15 1q-1 -3 -1 -7q-7 -26 -13 -57.5t-11 -64.5l-9 -52q-13 -69 -26.5 -136t-29.5 -136q-2 -5 -2.5 -9t-1.5 -9q22 -6 39 -18t29.5 -28.5t21 -36.5t13.5 -40q19 21 38.5 47.5t31.5 47.5
q2 4 4 7.5t4 8.5l-2 -3q2 6 5 11t6 11v-2q6 13 13.5 20t26.5 7q17 0 32 -13t15 -32z" />
    <glyph glyph-name="bracketleft" unicode="[" horiz-adv-x="312" 
d="M351 -72q0 -19 -14 -32t-32 -13h-141q-19 0 -32 13t-13 32v804q0 19 13 32t32 13h141q18 0 32 -13t14 -32t-14 -32t-32 -13h-95v-714h95q18 0 32 -13t14 -32z" />
    <glyph glyph-name="backslash" unicode="\" horiz-adv-x="474" 
d="M374 12q-2 6 -2 8q2 -4 2 -8zM375 8q0 -18 -14 -32t-32 -14q-36 0 -44 35l1 -1q-45 188 -89 371.5t-89 371.5q-3 6 -3 14q0 20 13 33t33 13q36 0 44 -35l-1 1q44 -186 88.5 -372.5t89.5 -372.5q-1 2 -3 4q-1 1 -1 2z" />
    <glyph glyph-name="bracketright" unicode="]" horiz-adv-x="312" 
d="M194 -72q0 -19 -14 -32t-32 -13h-141q-19 0 -32 13t-13 32t13 32t32 13h96v714h-96q-19 0 -32 13t-13 32t13 32t32 13h141q18 0 32 -13t14 -32v-804z" />
    <glyph glyph-name="asciicircum" unicode="^" horiz-adv-x="389" 
d="M395 469q0 -20 -14 -31.5t-32 -11.5q-9 0 -20 6.5t-22.5 17t-22.5 22t-20 22.5l-4 4q-11 -11 -24 -23.5t-26 -23.5t-24 -18t-17 -7q-19 0 -32 11.5t-13 31.5q0 17 12.5 30.5t22.5 21.5l2 2q16 15 25.5 25t16.5 18q8 11 22.5 25.5t34.5 14.5q13 0 30 -11q5 -5 10.5 -12
t10.5 -12v1q19 -21 36.5 -40.5t33.5 -33.5q14 -14 14 -29z" />
    <glyph glyph-name="underscore" unicode="_" horiz-adv-x="592" 
d="M592 -37q0 -19 -14 -32t-32 -13h-515q-19 0 -32 13t-13 32q0 17 12.5 32t32.5 15h515q20 0 33 -15t13 -32z" />
    <glyph glyph-name="grave" unicode="`" horiz-adv-x="389" 
d="M333 467q0 -19 -14 -31.5t-32 -12.5q-6 0 -20.5 8.5t-32 21.5t-36.5 29t-34.5 31t-25.5 28t-10 19q0 20 13 31.5t32 11.5q8 0 15.5 -2.5t16.5 -10.5q5 -5 11 -10t11 -10q13 -13 26 -24.5t28 -21.5h-2l5 -2.5l5 -2.5q14 -8 29 -19.5t15 -32.5z" />
    <glyph glyph-name="a" unicode="a" horiz-adv-x="476" 
d="M518 137l-1 -2v-1q0 2 1 3zM244 154q0 21 -8 39.5t-21.5 33t-31.5 23t-39 8.5t-38.5 -8.5t-31 -23t-21 -33t-7.5 -39.5t7.5 -39.5t21 -32.5t31 -22.5t38.5 -8.5t39 8.5t31.5 22.5t21.5 32.5t8 39.5zM522 155q0 -8 -1 -11t-3 -7v1q-6 -11 -9 -19q-5 -11 -11 -22t-15 -24
q-13 -20 -29 -40t-34 -35.5t-37.5 -25.5t-39.5 -10q-57 0 -80 41q-25 -20 -55.5 -30.5t-63.5 -10.5q-40 0 -74.5 15t-60 41.5t-40 61.5t-14.5 74t14.5 74.5t40 61.5t60 41.5t74.5 15.5q55 0 102 -31q4 12 13.5 20t29.5 8q18 0 32 -12.5t14 -31.5v-225q0 -8 1.5 -16t6.5 -8
q10 0 22.5 13t24.5 30.5t22 35.5t15 29l-1 -1q6 13 15.5 27t33.5 14q17 0 32 -12.5t15 -31.5z" />
    <glyph glyph-name="b" unicode="b" horiz-adv-x="346" 
d="M140 675q0 16 -2.5 42.5t-8 51.5t-15 43t-22.5 18q-3 0 -6 -7t-7 -16.5t-7 -20.5t-6 -20q-1 -4 -2 -7t-2 -5q-13 -51 -20 -106.5t-7 -109.5q0 -37 -0.5 -58.5t-0.5 -40.5q0 -18 1 -39.5t4 -58.5q18 39 36 82t32.5 87t23.5 86.5t9 78.5zM391 160q0 -3 -1.5 -9t-3.5 -11
q-14 -37 -47 -56t-71 -20q-22 -44 -58 -73t-91 -29q-39 0 -67 14.5t-47 39t-29.5 58t-13.5 71.5q-7 97 -12.5 195t-5.5 198q0 22 3 60t10 81t18.5 87t27.5 80t38.5 58.5t50.5 22.5q37 0 63.5 -27t43 -66t24 -82.5t7.5 -76.5q0 -62 -18 -130.5t-45 -137.5t-58 -133.5
t-58 -117.5q2 -20 6.5 -38.5t12.5 -33t20 -23.5t29 -9q21 0 36.5 13.5t26.5 31.5q-26 23 -37.5 56.5t-11.5 65.5q0 19 5 39t15.5 36.5t27.5 27t41 10.5q23 0 38.5 -10.5t25 -26.5t13.5 -35t4 -36q0 -14 -1 -28.5t-3 -28.5q2 2 4 6v-1q8 16 16 24t27 8t32 -12.5t13 -31.5z
" />
    <glyph glyph-name="c" unicode="c" horiz-adv-x="329" 
d="M375 155q0 -5 -0.5 -9.5t-5.5 -9.5q-15 -35 -37 -66.5t-50 -55.5t-63 -38t-75 -14t-74.5 15t-60 41.5t-40 61.5t-14.5 74t14.5 74.5t40 61.5t60 41.5t74.5 15.5q9 0 29.5 -5t41.5 -14t36.5 -21.5t15.5 -26.5q0 -19 -14 -31.5t-32 -12.5q-11 0 -29 9l1 -1q-9 4 -22 9
t-27 5q-21 0 -38.5 -8.5t-31 -22.5t-21 -33t-7.5 -40t7.5 -39.5t21 -32.5t31 -22.5t38.5 -8.5q42 0 70.5 23t50.5 60v-1q6 11 12 21.5t13 21.5l-1 -1q6 11 14 18t25 7t32 -13t15 -32z" />
    <glyph glyph-name="d" unicode="d" horiz-adv-x="478" 
d="M244 158q0 21 -7.5 39.5t-21 32.5t-32 22t-39.5 8t-39 -8t-31 -22t-20.5 -32.5t-7.5 -39.5t7.5 -40t20.5 -33.5t31 -23.5t39 -9t39.5 9t32 23.5t21 33.5t7.5 40zM523 159q0 -5 -0.5 -9.5t-3.5 -10.5q-13 -26 -37.5 -65t-53.5 -68q-20 -20 -38 -32t-47 -12
q-28 0 -47.5 12.5t-30.5 32.5q-49 -45 -121 -45q-40 0 -74.5 16t-60 43t-40 62.5t-14.5 74.5t14.5 74t40 61.5t60 41.5t74.5 15q26 0 52 -7.5t48 -20.5q0 66 0.5 128.5t0.5 128.5q0 19 13 32t32 13q18 0 32 -13t14 -32l-2 -470v-16q0 -9 1 -18.5t3 -16t5 -6.5q8 0 13 4.5
t13 12.5q0 1 1 2q18 22 35.5 50.5t26.5 45.5l-1 -1q0 1 1 2q7 12 15.5 23.5t30.5 11.5q19 0 32 -12.5t13 -31.5z" />
    <glyph glyph-name="e" unicode="e" horiz-adv-x="360" 
d="M213 225q0 7 -7 13.5t-17.5 10.5t-22 6.5t-19.5 2.5q-32 0 -57.5 -17t-37.5 -45q22 -11 41.5 -15t45.5 -4q12 0 25 3t24 9t18 15t7 21zM407 155q0 -5 -0.5 -9t-4.5 -9q-37 -81 -102.5 -128t-155.5 -47q-39 0 -73.5 15.5t-60 42t-40.5 61t-15 73.5q0 41 14.5 76t40 61
t61 41t76.5 15q24 0 51.5 -8t51 -24t39 -38.5t15.5 -51.5q0 -34 -14.5 -59.5t-38 -43t-53 -26.5t-59.5 -9q-20 0 -39 2.5t-36 7.5q14 -21 34 -33.5t46 -12.5q48 0 87.5 19.5t65.5 61.5l2.5 5t3.5 8q4 8 9.5 17.5t12.5 17.5t15.5 13.5t19.5 5.5q17 0 32 -12.5t15 -31.5z" />
    <glyph glyph-name="f" unicode="f" horiz-adv-x="235" 
d="M143 667q0 18 -3.5 45t-10 52.5t-17.5 44t-26 18.5q-10 0 -16.5 -19.5t-11 -50t-6.5 -68t-3.5 -72t-1.5 -63.5v-41v-164q18 38 35 78.5t30.5 81.5t22 81t8.5 77zM148 -367q0 54 -14 114.5t-35 121.5q-13 37 -27 71.5t-31 63.5q0 -5 -0.5 -11t-0.5 -11q-1 -38 -2 -81.5
t-1 -82.5q0 -19 0.5 -51t2.5 -69t5.5 -75.5t11 -70t18.5 -51t27 -19.5q15 0 24.5 16.5t14 40t6 49.5t1.5 45zM281 154v-6t-2 -8v-1q-9 -21 -22.5 -42.5t-30.5 -39.5t-38 -31t-45 -18q20 -40 35 -81t28 -83q17 -52 26 -106t9 -105q0 -40 -6.5 -85t-22 -83t-42.5 -63t-68 -25
q-37 0 -63 25.5t-43 66t-27.5 91.5t-15.5 102t-6.5 97t-1.5 77q0 55 1.5 110t5.5 109v21q0 11 1 22t1.5 21.5t0.5 21.5v372q0 21 1.5 60t6 84.5t13 93t23 86.5t36 63.5t51.5 24.5q39 0 67.5 -27.5t46.5 -67.5t26.5 -84.5t8.5 -78.5q0 -59 -15 -120.5t-38 -122t-51 -119
t-55 -110.5q-6 -13 -13 -26t-13 -27q15 -17 33 -31t36 -14q22 0 35.5 18.5t26.5 39.5v-1q3 5 6.5 10.5t6.5 10.5q16 25 41 25q18 0 32 -14t14 -32z" />
    <glyph glyph-name="g" unicode="g" horiz-adv-x="464" 
d="M244 -152q-31 -45 -55.5 -99t-24.5 -111q0 -22 1 -49.5t5 -52t12 -41.5t23 -17q14 0 22 22.5t11.5 54t4.5 64t1 53.5v176zM244 150q0 21 -7.5 40.5t-21 34t-32 23.5t-39.5 9t-39 -9t-31 -23.5t-20.5 -34t-7.5 -40.5t7.5 -40t20.5 -33.5t31 -23.5t39 -9t39.5 9t32 23.5
t21 33.5t7.5 40zM510 151q0 -5 -1.5 -12t-5.5 -12q-31 -52 -82 -96h1q-8 -7 -16 -13.5t-16 -12.5v1q-14 -11 -27.5 -22.5t-27.5 -25.5v-286q0 -27 -2 -59.5t-7.5 -66t-14.5 -65.5t-23.5 -56.5t-35 -39.5t-47.5 -15q-42 0 -68 26t-40 65.5t-19 86.5t-5 90q0 47 11.5 92
t30.5 86.5t43 79t49 69.5q-31 -11 -63 -11q-40 0 -74.5 16t-60 43t-40 62.5t-14.5 74.5t14.5 75t40 63t60 43t74.5 16q28 0 54 -8.5t49 -23.5q4 12 13 20t29 8q18 0 32 -12.5t14 -32.5v-221q19 14 38 32.5t33 36.5q2 4 4.5 6.5t4.5 6.5t4.5 7.5t5.5 8.5q15 21 38 21
q17 0 32 -13t15 -32z" />
    <glyph glyph-name="h" unicode="h" horiz-adv-x="388" 
d="M164 665q0 19 -2.5 40.5t-8.5 42t-15.5 38.5t-23.5 29q-8 8 -13 8t-10 -10.5t-9.5 -25t-8 -29.5t-5.5 -24q-20 -78 -23 -159.5t-3 -166.5q0 -24 -0.5 -31.5t-0.5 -12.5v-13q0 -7 1 -31q2 5 7 11q16 26 30 53.5t27 56.5q23 54 40.5 111t17.5 113zM432 150
q-9 -24 -26.5 -56t-41 -61t-52 -49.5t-58.5 -20.5q-33 0 -51.5 15t-28.5 37.5t-12.5 48.5t-2.5 48v106q0 15 -8 28.5t-25 13.5q-6 0 -13.5 -8.5t-15.5 -21t-16.5 -28t-15.5 -29.5v1q-7 -14 -11.5 -23.5t-9.5 -16.5v-9q0 -3 1 -8q2 -26 3.5 -53.5t1.5 -55.5q0 -20 -13 -33
t-33 -13q-17 0 -26 5.5t-13.5 14.5t-5.5 19.5t-1 20.5q0 23 -1.5 47t-3.5 48q-4 66 -4.5 140t-0.5 155q0 88 4 174.5t26 174.5q6 21 15.5 48.5t24 53t35 43t48.5 17.5q42 0 71.5 -27t48 -66.5t27.5 -84t9 -80.5q0 -43 -8.5 -88.5t-22.5 -84.5q-11 -34 -26 -67.5t-39 -78.5
q42 -11 65.5 -47.5t23.5 -80.5v-128q0 -12 1 -24.5t3 -12.5q9 0 19.5 9.5t21 23.5t20 30.5t16.5 30.5q5 9 9 18t8 15q7 11 17 17.5t22 6.5q17 0 32 -13t15 -32z" />
    <glyph glyph-name="i" unicode="i" horiz-adv-x="253" 
d="M110 425q0 -23 -17 -39.5t-40 -16.5q-24 0 -39 16.5t-15 39.5t15 39.5t39 16.5q23 0 40 -16.5t17 -39.5zM299 155q0 -11 -8.5 -25.5t-16.5 -28.5q-4 -5 -5.5 -8l-2.5 -5l-4 -8q-4 -6 -9.5 -14.5t-3.5 -6.5q-12 -18 -27 -35.5t-33.5 -31t-39.5 -22t-45 -8.5
q-33 0 -52.5 15t-30 37.5t-13.5 48t-3 46.5h-5q-19 0 -32 13t-13 32q0 12 6 24.5t11 23.5l4 8q7 14 10.5 27.5t7.5 27.5q2 5 2.5 10.5t2.5 10.5v-3q1 8 4 19t9 20.5t15 16.5t24 7q25 0 35 -17t10 -30v-212q0 -11 1.5 -23.5t6.5 -12.5q20 0 37.5 17t31.5 40q2 2 4 6.5t3 6.5
q7 11 13 20t11 19l2 2q1 1 1 2t1 2l-1 -3q6 12 15.5 24t29.5 12q14 0 30.5 -10.5t16.5 -33.5z" />
    <glyph glyph-name="j" unicode="j" horiz-adv-x="237" 
d="M110 425q0 -23 -17 -39.5t-40 -16.5q-24 0 -39 16.5t-15 39.5t15 39.5t39 16.5q23 0 40 -16.5t17 -39.5zM5 -161q-17 -20 -32.5 -42t-27.5 -46.5t-19.5 -52t-7.5 -58.5q0 -20 2.5 -46.5t8.5 -51t15.5 -41.5t22.5 -17q12 0 19 25t11.5 58t6 67t1.5 52v153zM283 152
q0 -5 -2 -12t-7 -14l1 2q-31 -51 -77.5 -96t-93.5 -86l-4 -3q1 0 -4 -4v-253q0 -24 -2.5 -56.5t-9 -67t-16 -68t-24 -60t-33.5 -43t-44 -16.5q-36 0 -63 26t-44 65.5t-25.5 86t-8.5 87.5q0 57 16 106t41 90.5t55 76.5t58 66l4 5q1 0 5 5v118h-5q-19 0 -32 13t-13 32v8t2 8
q1 3 2 6.5t2 5.5q8 20 16.5 40.5t16.5 42.5q1 4 2 7t2 9q2 8 3.5 16.5t6.5 19.5l-1 -2q5 18 16 26t28 8q20 0 32.5 -15t12.5 -32v-242q20 18 40.5 40t37.5 44q3 4 5.5 7.5t5.5 7.5q4 5 7.5 10.5t7.5 10.5q15 19 37 19q18 0 32 -13t14 -32z" />
    <glyph glyph-name="k" unicode="k" horiz-adv-x="390" 
d="M126 258q-6 0 -12.5 -6t-13.5 -15q5 1 9.5 1.5t9.5 0.5q11 0 22 -1.5t21 -5.5v1q0 13 -11 19t-25 6zM154 662q0 16 -3.5 44t-10.5 55.5t-18.5 47.5t-26.5 20q-5 0 -9.5 -10t-9 -24t-8 -28t-5.5 -23q-14 -55 -20 -111.5t-6 -115.5v-58v-39t0.5 -39t2.5 -57q1 1 1 2
q0 2 1 3q28 54 55 119v-1q24 59 40.5 115t16.5 100zM436 158q0 -5 -1.5 -12t-5.5 -12l1 3q-12 -24 -29 -54.5t-39 -57.5t-50 -45t-62 -18q-30 0 -48.5 15.5t-28 38.5t-13 48.5t-3.5 45.5q-22 -5 -41 -5q-21 0 -40 7t-30 24q-2 -2 -2 -3q2 -31 2 -63v-63q0 -20 -14 -32.5
t-32 -12.5q-19 0 -32 12.5t-13 32.5q0 55 -2 111.5t-4 116.5q-2 67 -4 137t-2 145q0 23 3 62.5t10 85t18 92.5t28 85t40 62t53 24q39 0 67.5 -29t47.5 -71t28.5 -87.5t9.5 -78.5q0 -38 -9.5 -83t-26.5 -91q-12 -35 -26 -69t-34 -73q43 -7 72 -36t29 -77q0 -36 -18 -64
q9 -17 10.5 -32t1.5 -35v-14q0 -8 0.5 -16t1 -14t1.5 -6q12 0 24 10.5t23 25.5t20 32t16 30q2 2 1.5 2.5t1.5 2.5v-1q4 5 7 10t5 11q17 28 41 28q17 0 32 -13t15 -32z" />
    <glyph glyph-name="l" unicode="l" horiz-adv-x="265" 
d="M152 667q0 36 -7 67q-3 14 -8 30.5t-12 30.5t-15.5 23.5t-17.5 9.5q-3 0 -7 -7.5t-7.5 -18t-7 -23t-6.5 -21.5v1q-1 -3 -1.5 -7t-1.5 -6v1q-14 -48 -19.5 -96.5t-5.5 -98.5q0 -53 2.5 -112t4.5 -113q20 42 39.5 88.5t35 91.5t25 86.5t9.5 73.5zM310 159q0 -7 -1 -11
t-2 -7q-8 -17 -19.5 -36.5t-28.5 -42.5q-14 -19 -29 -37t-32 -32t-37.5 -22.5t-44.5 -8.5q-43 0 -73 19t-49 48t-28.5 64.5t-10.5 67.5q1 8 1 17v19q0 32 -2 71.5t-4 84.5q-2 50 -4.5 100.5t-2.5 95.5q0 21 3 57.5t9.5 78t18 84.5t28 78t39 57t51.5 22t51.5 -13.5t39.5 -35
t28.5 -49.5t19 -56.5t11 -56t3.5 -48.5q0 -48 -14.5 -106t-36 -116.5t-46.5 -113t-45 -94.5q-1 -2 -1.5 -3.5t-1.5 -3.5q-12 -24 -24 -46.5t-29 -41.5q3 -16 8.5 -32t14 -29t20 -21t26.5 -8q12 0 22.5 7t20.5 18t19 24t17 26q2 3 3 5t3 5q15 28 28.5 47.5t34.5 19.5
q18 0 32 -12.5t14 -32.5z" />
    <glyph glyph-name="m" unicode="m" horiz-adv-x="684" 
d="M731 155q0 -5 -0.5 -9.5t-5.5 -9.5q-8 -18 -22.5 -41.5t-31.5 -46.5q-26 -34 -55.5 -60t-58.5 -26q-35 0 -57.5 12.5t-35.5 33.5t-18 48t-5 55v114q0 17 -12.5 24t-29.5 7t-28 -15t-11 -32v-202q0 -19 -14 -32t-32 -13q-19 0 -32 13t-13 32v202q0 22 -7.5 34.5
t-29.5 12.5q-14 0 -30 -8.5t-16 -22.5v-218q0 -19 -14 -32t-32 -13q-19 0 -32 13t-13 32v221v17q0 11 1 11q-6 0 -14.5 -20.5t-16.5 -43.5l-12 -30t-13.5 -27t-17.5 -19t-22 -7q-19 0 -32 13t-13 32q0 9 4 18t9 21l3 6h-1q6 13 11 26.5t9 23.5q2 5 3 8l2 6q6 15 15.5 29.5
t22.5 26.5t29 19t34 7q37 0 59 -21q17 10 37 15.5t40 5.5q25 0 47 -6.5t40 -22.5q35 29 80 29q26 0 50.5 -8t43 -23.5t29.5 -38t11 -50.5v-114q0 -9 0.5 -19.5t2.5 -19.5t7 -15t14 -6q7 0 19.5 14.5t25.5 34.5t25 41t18 34q14 24 39 24q17 0 32 -12.5t15 -31.5z" />
    <glyph glyph-name="n" unicode="n" horiz-adv-x="506" 
d="M551 155q0 -5 -4 -17t-8 -17q-9 -17 -26.5 -43.5t-39.5 -52.5t-46.5 -44.5t-47.5 -18.5q-35 0 -57.5 12.5t-36 33.5t-18.5 48t-5 55v114q0 17 -12 25t-29 8t-28.5 -15.5t-11.5 -33.5v-202q0 -19 -13 -32t-32 -13q-18 0 -32 13t-14 32v221v16q0 12 1 14q-8 -1 -14.5 -18.5
t-11.5 -33.5v1q-2 -7 -3.5 -12.5t-3.5 -10.5q-1 -2 -2 -5t-3 -10q-3 -10 -8 -21.5t-11.5 -21t-16 -15.5t-21.5 -6q-18 0 -32 13t-14 32q0 3 3 12.5t7 20t8 20t7 14.5q2 5 2.5 9.5t2.5 10.5q2 5 5 13t5 13q6 15 15.5 30t22.5 27t29 19.5t35 7.5q35 0 56 -23q16 11 35 17t38 6
q26 0 50 -8t42 -24t29 -38.5t11 -51.5v-114q0 -9 0.5 -19.5t3.5 -19.5t8 -15t14 -6q6 0 17.5 14t23 32t21.5 36.5t15 27.5q1 2 2 3t2 3q8 13 17 22.5t29 9.5q19 0 32 -12.5t13 -31.5z" />
    <glyph glyph-name="o" unicode="o" horiz-adv-x="400" 
d="M144 51q26 0 48.5 13t36.5 36q-19 18 -30.5 41t-11.5 50t12 50q-25 17 -55 17q-21 0 -38.5 -8.5t-31 -23t-21 -33t-7.5 -39.5t7.5 -39.5t21 -32.5t31 -22.5t38.5 -8.5zM446 155v-6t-2 -8v-2q-17 -35 -49.5 -56t-70.5 -21h-12q-26 -47 -70 -73.5t-98 -26.5q-40 0 -74.5 15
t-60 41.5t-40 61.5t-14.5 74t14.5 74.5t40 61.5t60 41.5t74.5 15.5t74.5 -15.5t60.5 -41.5t41 -61.5t15 -74.5v-1q8 3 13 8.5t10 10.5q8 11 16.5 19t25.5 8q18 0 32 -12.5t14 -31.5z" />
    <glyph glyph-name="p" unicode="p" horiz-adv-x="420" 
d="M467 151q0 -8 -5 -20v-3q-9 -19 -23.5 -42t-33.5 -49l1 1q-10 -14 -19 -24.5t-19 -20.5q-17 -17 -35 -28t-40 -11q-36 0 -58.5 13.5t-35 35.5t-17 49t-4.5 54v117q0 17 -12.5 24.5t-29.5 7.5t-28.5 -16t-11.5 -33l1 -785q0 -19 -14 -32t-32 -13q-19 0 -32 13t-13 32
l-1 684h-5q-19 0 -32 13t-13 32q0 4 0.5 8.5t3.5 10.5l-2 -4q3 10 7.5 20t8.5 20q5 13 10.5 26t9.5 26q0 3 1 6q0 2 2 12q2 9 4.5 17.5t7.5 22.5q6 13 15 22t28 9q21 0 32 -12q13 6 26 8.5t27 2.5q27 0 51.5 -8t42.5 -24t28.5 -38.5t10.5 -51.5v-117q0 -10 0.5 -21t2.5 -20
t7 -15t14 -6q5 0 14 11.5t19 25.5q14 20 27.5 41.5t20.5 35.5q6 14 15 25.5t31 11.5q17 0 32 -12.5t15 -31.5z" />
    <glyph glyph-name="q" unicode="q" horiz-adv-x="477" 
d="M244 150q0 21 -7.5 40.5t-21 34t-32 23.5t-39.5 9t-39 -9t-31 -23.5t-20.5 -34t-7.5 -40.5t7.5 -40t20.5 -33.5t31 -23.5t39 -9t39.5 9t32 23.5t21 33.5t7.5 40zM523 151v-6q0 -3 -2 -8v5v-4q-8 -22 -26.5 -53.5t-43 -60.5t-53 -49.5t-55.5 -20.5q-2 0 -2.5 -0.5
t-1.5 -0.5h-1h-1q-2 0 -2 1q-1 -134 -1.5 -268t-1.5 -268q-1 -18 -15 -31.5t-31 -13.5q-19 0 -32 13t-13 32l2 565q-46 -29 -99 -29q-40 0 -74.5 16t-60 43t-40 62.5t-14.5 74.5t14.5 74.5t40 63t60 43.5t74.5 16q55 0 102 -31q4 12 13.5 20.5t29.5 8.5t33 -14t13 -32v-230
q0 -9 1.5 -17t6.5 -8q10 0 22.5 13t24.5 31t22 36.5t15 29.5q1 2 2 3.5t2 3.5q6 13 15.5 23.5t29.5 10.5q17 0 32 -11.5t15 -32.5z" />
    <glyph glyph-name="r" unicode="r" horiz-adv-x="400" 
d="M446 156v-5q0 -1 -2 -6v-2q-6 -14 -12.5 -26t-13.5 -24q-5 -8 -11 -18q-13 -21 -29.5 -41.5t-35.5 -36t-40.5 -25.5t-43.5 -10q-26 0 -48 10t-39 27.5t-26.5 40t-9.5 47.5q0 24 5 44.5t13 41.5q6 18 11 35.5t5 34.5q0 3 -14.5 3.5t-23.5 0.5q-11 0 -20 -1.5t-17 -3.5
l-5 -2q0 1 -6 0q-6 -20 -15.5 -43.5t-19.5 -44.5l-1 -1l-5 -10q-8 -15 -19 -28.5t-30 -13.5q-18 0 -32 13t-14 32q0 4 4.5 16t8.5 18q9 20 18 42t16 42q-14 14 -22 32t-8 37q0 16 3 32t11.5 28.5t22 20t34.5 7.5q32 0 50 -21.5t18 -49.5v-13q8 1 14.5 1.5t13.5 0.5
q19 0 42 -4.5t42 -15.5t32 -29t13 -45q0 -24 -6 -45t-12 -41q-6 -18 -11 -35.5t-5 -34.5q0 -14 9.5 -24.5t22.5 -10.5q16 0 35 20t31 42v-1q3 6 6.5 12t6.5 11q5 9 10.5 17t11.5 22v-1q11 26 40 26q17 0 32 -12.5t15 -31.5z" />
    <glyph glyph-name="s" unicode="s" horiz-adv-x="395" 
d="M106 285q3 3 5 10q-2 -3 -3 -5.5t-2 -4.5zM52 157q-3 -8 -7 -16.5t-12 -15.5q18 -3 24 -13.5t10 -23.5q1 -2 1 -3t1 -3v2q3 -5 12 -11t19.5 -10.5t21.5 -7.5t17 -3q18 0 32.5 8.5t24 22t15 30.5t5.5 35t-13 32t-33 24.5t-43.5 17.5t-43.5 12q-2 -6 -5 -14l-6 -16
q-5 -12 -10 -23.5t-10 -23.5zM441 156v-5q0 -1 -2 -6v-2q-36 -85 -100 -133t-156 -48h-44q-20 0 -47.5 9.5t-53 25.5t-43.5 37.5t-18 46.5q0 17 12 31q-15 4 -24.5 15.5t-9.5 27.5q0 3 5 16.5t12.5 31.5t15.5 36.5t14 30.5q-26 27 -26 68q0 35 20.5 58.5t57.5 23.5
q31 0 52.5 -21t21.5 -52q0 -6 -2.5 -14t-5.5 -17q31 -8 64 -20.5t60.5 -32.5t45 -48.5t17.5 -66.5q0 -25 -6 -50q11 11 18.5 20t15.5 22q1 2 3 7t4 7q4 7 7.5 14t7.5 12q8 11 14.5 15.5t22.5 4.5q17 0 32 -12.5t15 -31.5z" />
    <glyph glyph-name="t" unicode="t" horiz-adv-x="247" 
d="M292 159v-6t-2 -8q-8 -23 -26.5 -54t-42.5 -60t-52.5 -49t-55.5 -20q-38 0 -67 14t-49.5 38t-31 55.5t-10.5 65.5v450q0 19 14 32t32 13q19 0 32 -13t13 -32v-114h154q19 0 32 -13t13 -32t-13 -32t-32 -13h-154v-246q0 -32 17 -57.5t50 -25.5q10 0 22.5 13t24 30.5
t21.5 36t15 29.5q1 2 2.5 3.5t2.5 3.5q8 14 17 24.5t29 10.5q19 0 32 -12.5t13 -31.5z" />
    <glyph glyph-name="u" unicode="u" horiz-adv-x="473" 
d="M520 155q0 -7 -3 -13v-3q-11 -22 -28.5 -52.5t-40.5 -58t-50 -47t-57 -19.5q-52 0 -75 34q-19 -16 -41.5 -25t-47.5 -9q-32 0 -62.5 10t-54.5 29t-39 46t-16 62h-5q-19 0 -32 13t-13 32q0 9 7.5 28.5t15.5 39.5q2 6 4.5 12.5t4.5 11.5q3 6 5 12q1 2 2 5.5t3 14.5v-1
q4 15 7.5 30t14.5 26q13 13 32 13q20 0 32.5 -15t12.5 -32v-182q0 -32 25 -49t56 -17q16 0 28.5 9.5t20.5 24t12 32t4 33.5v149q0 19 13 32t32 13q18 0 32 -13t14 -32v-224q0 -8 1.5 -16t6.5 -8q9 0 19.5 10.5t21 25.5t20 30.5t14.5 24.5q2 4 4.5 7.5t4.5 8.5q2 3 3 6.5
t3 6.5q2 4 4 7q15 21 38 21q17 0 32 -12.5t15 -31.5z" />
    <glyph glyph-name="v" unicode="v" horiz-adv-x="426" 
d="M478 160q0 -3 -1.5 -9t-3.5 -11q-17 -32 -50 -52.5t-67 -23.5q-23 -48 -61.5 -75t-94.5 -27q-47 0 -74 20t-41 50.5t-18 67.5t-4 70v12q-11 -29 -26 -51t-37 -22q-19 0 -32 13t-13 32q0 6 5 22t12 33t14 33t10 22q6 11 14.5 25t19 26.5t25 21t32.5 8.5q22 0 35.5 -10.5
t20.5 -26.5t9.5 -33.5t2.5 -31.5q0 -11 -0.5 -20.5t-0.5 -19.5q-1 -10 -1 -19v-19q0 -16 1 -35.5t5.5 -37t14 -29.5t26.5 -12q20 0 39 9.5t30 25.5q-16 12 -27 29t-17.5 35t-9.5 35.5t-3 29.5q0 19 3 41.5t12 41.5t26 31.5t45 12.5q25 0 41.5 -16t26.5 -38t14 -46.5t4 -40.5
v-19q0 -8 -1 -17q4 3 6 8v-1q8 16 16 24t27 8q18 0 32 -12.5t14 -31.5z" />
    <glyph glyph-name="w" unicode="w" horiz-adv-x="641" 
d="M692 160q0 -3 -1.5 -9t-3.5 -11q-17 -33 -49.5 -53.5t-66.5 -22.5q-23 -48 -61.5 -75t-94.5 -27q-32 0 -56.5 13t-42.5 35q-23 -24 -53.5 -36t-65.5 -12q-31 0 -56 13.5t-43 35.5t-27.5 50t-9.5 56v61q-10 -28 -23.5 -48.5t-37.5 -20.5q-19 0 -32 13t-13 32q0 6 5 22
t11.5 34t13.5 33.5t10 21.5v-1q1 2 1.5 2.5t1.5 2.5q6 12 14 25t18.5 24.5t24 19t30.5 7.5q22 0 35.5 -10.5t20.5 -26.5t9.5 -33.5t2.5 -31.5v-126q0 -11 3 -22.5t8.5 -21.5t13.5 -16t19 -6q31 0 47.5 17.5t24.5 44t9.5 56.5t1.5 56v74q0 19 13 32t32 13q18 0 32 -13t14 -32
v-182q0 -11 3 -22.5t8.5 -21.5t13.5 -16t19 -6q20 0 38.5 9t29.5 26q-16 12 -27 29t-17.5 35t-9.5 35.5t-3 29.5q0 19 3 41.5t12.5 41.5t26.5 31.5t45 12.5q25 0 41.5 -16t26 -38t13.5 -46.5t4 -40.5v-19q0 -10 -1 -18q5 3 7 9v-1q8 16 16 24t27 8t32 -12.5t13 -31.5z" />
    <glyph glyph-name="x" unicode="x" horiz-adv-x="617" 
d="M663 155v-6t-2 -8q-15 -36 -35.5 -68t-47 -57t-60 -39.5t-74.5 -14.5q-42 0 -80 18.5t-64 48.5q-26 -35 -63 -51t-82 -16q-21 0 -41.5 7t-39.5 19t-34.5 27.5t-26.5 31.5q-8 12 -8 26q0 20 13 31.5t32 11.5q12 0 23.5 -9t22.5 -20t27 -23.5t32 -12.5q21 0 39 8.5
t31.5 22.5t21.5 32.5t8 39.5t-8 39.5t-21.5 33t-31.5 23t-39 8.5q-19 0 -32 -5.5t-22 -14.5t-16 -21.5t-13 -26.5q-7 -14 -14.5 -28.5t-19.5 -31.5q-7 -9 -15.5 -15t-22.5 -6q-19 0 -32 13t-13 32q0 8 6 22.5t13.5 30t15.5 29t13 20.5q27 44 62.5 67.5t89.5 23.5
q45 0 82 -16.5t63 -51.5q26 32 63 50t81 18q35 0 73 -14t62 -42q12 -15 12 -30q0 -19 -14 -31.5t-32 -12.5q-7 0 -14 4t-16 9q-12 8 -31.5 18t-39.5 10q-21 0 -38.5 -8.5t-31 -23t-21 -33t-7.5 -39.5t7.5 -39.5t21 -32.5t31 -22.5t38.5 -8.5q25 0 43.5 9t32 23t23.5 30.5
t18 31.5q13 23 24.5 38.5t31.5 15.5q18 0 32 -12.5t14 -31.5z" />
    <glyph glyph-name="y" unicode="y" horiz-adv-x="466" 
d="M241 -165l-1 -2q-1 -2 -3 -4t-2 -3q-25 -32 -44 -71.5t-19 -92.5q0 -20 0.5 -49.5t3.5 -58t9 -48.5t17 -20q7 0 13 12t10.5 31t7.5 43t4.5 47t2.5 43t1 32v141zM513 150q0 -13 -7 -23l1 2q-32 -61 -76.5 -107.5t-98.5 -86.5v-235q0 -25 -2.5 -58.5t-9 -69.5t-16 -71
t-24 -63t-34 -45t-44.5 -17q-38 0 -62 29.5t-37 73t-17.5 93t-4.5 89.5q0 55 17 104t43 91q19 31 40 58.5t42 47.5q-24 -8 -47 -8q-33 0 -63.5 10.5t-53.5 30.5t-38 47.5t-16 62.5h-5q-19 0 -32 13t-13 32q0 5 0.5 9.5t3.5 10.5q2 5 4 9t4 9l-1 -1q8 19 15 36.5t12 35.5
q2 4 4 17q1 13 11 37l-1 -1q5 14 14.5 24t29.5 10t32.5 -15t12.5 -32v-187q0 -33 24 -50.5t56 -17.5q17 0 29.5 10t20.5 25t11.5 33t3.5 34v152q0 20 13 32.5t32 12.5q18 0 32 -12.5t14 -32.5v-247q17 17 37.5 40.5t34.5 43.5q2 2 3.5 5t3.5 5q2 3 3 5q8 15 15 25
q15 20 37 20q17 0 32 -13t15 -32z" />
    <glyph glyph-name="z" unicode="z" horiz-adv-x="393" 
d="M298 -340q0 59 -5.5 121t-20.5 118q-19 -26 -35.5 -52t-29 -55t-20 -62t-7.5 -73q0 -21 3.5 -50.5t10.5 -57t18.5 -47t26.5 -19.5q16 0 27.5 20t18.5 48.5t10 58.5t3 50zM437 152q0 -4 -0.5 -7.5t-3.5 -9.5q-15 -42 -38 -76.5t-51 -66.5q10 -35 18.5 -77.5t15 -86.5
t10 -87.5t3.5 -80.5q0 -40 -8 -89.5t-26 -92.5t-47 -72.5t-71 -29.5q-41 0 -70 28.5t-47.5 71t-27 91.5t-8.5 90q1 57 11.5 103.5t28.5 86t42.5 75t54.5 71.5q-13 -3 -27.5 -10t-24.5 -12q-11 -6 -22.5 -11t-20.5 -5q-19 0 -32 11.5t-13 31.5l1 7q5 20 15 45t21 52
q17 41 31.5 79.5t14.5 58.5q0 3 -13 4t-22 1q-13 0 -33 -5q-5 -1 -9.5 -2t-9.5 -2q-3 -13 -7.5 -28.5t-9 -30t-10 -27.5t-11.5 -22q-7 -10 -13.5 -16t-25.5 -6t-32 13t-13 32q0 2 4 15.5t9 29.5q6 17 13 37t9 26q-14 14 -22.5 32.5t-8.5 38.5q0 16 4 32t13 29t23 21t34 8
q16 0 28.5 -7t21 -17.5t13 -24.5t4.5 -27q0 -8 -1 -12q8 2 15 3t15 1q21 0 43 -5t40.5 -16.5t30.5 -30t12 -44.5q0 -21 -8.5 -46.5t-16.5 -48.5q-4 -9 -8 -19.5t-6 -18.5q-1 -6 -3.5 -12t-4.5 -12q6 1 13 1h12q31 0 54 -16q14 19 26.5 36.5t21.5 37.5q0 3 3 6q2 5 4 11t9 17
q6 9 13.5 15t24.5 6q18 0 32 -13t14 -32z" />
    <glyph glyph-name="braceleft" unicode="{" horiz-adv-x="240" 
d="M25 320q1 0 1 1zM221 -262q0 -19 -14 -32t-32 -13q-41 0 -64 23.5t-35 56.5t-15 69.5t-3 62.5v41q0 20 1 40q0 15 0.5 39.5t0.5 40.5q0 14 -1 37t-4 46.5t-9 43t-17 27.5q-2 1 -8 3q-9 2 -18 5.5t-17 9t-13 14t-5 20.5q0 25 14 33t32 12q4 1 9 3.5t3 0.5q13 9 20.5 29.5
t10.5 45t3.5 49t0.5 40.5q0 19 -0.5 37.5t-0.5 38.5v77q0 26 2.5 62.5t14 69.5t34.5 56.5t64 23.5q18 0 32 -13t14 -32q0 -27 -14.5 -35t-31.5 -12q-2 -1 -4 -1.5t-4 -1.5l3 1q-7 -3 -11 -18t-5.5 -33.5t-2 -37t-0.5 -29.5v-39t1 -38q0 -20 0.5 -38.5t0.5 -37.5
q0 -24 -1 -52.5t-5.5 -57t-14 -55.5t-27.5 -48q17 -21 26 -47.5t13.5 -55t5.5 -56.5t1 -51q0 -21 -0.5 -42.5t-0.5 -41.5q-1 -21 -1 -41v-41q0 -10 0.5 -27t2.5 -34t5.5 -31t10.5 -18q2 -2 7 -2q17 -4 31.5 -12t14.5 -34z" />
    <glyph glyph-name="bar" unicode="|" horiz-adv-x="174" 
d="M133 7q0 -19 -14 -32t-32 -13q-19 0 -32 13t-13 32v711q0 19 13 32t32 13q18 0 32 -13t14 -32v-711z" />
    <glyph glyph-name="braceright" unicode="}" horiz-adv-x="240" 
d="M273 272q0 -12 -5 -20.5t-13 -14t-17.5 -9t-18.5 -5.5q-2 -1 -4.5 -1.5t-3.5 -1.5q-11 -8 -17 -28t-9 -44.5t-3.5 -48.5t-0.5 -39v-40q0 -19 1 -39q0 -20 0.5 -39t0.5 -39q0 -26 -3.5 -62t-15.5 -69t-35.5 -56t-63.5 -23q-19 0 -32 13t-13 32q0 14 4 22t10.5 13t14.5 7
l16 4q2 0 5 1t4 2q6 7 9 21t5 29.5t2.5 31t0.5 25.5q0 21 -0.5 41.5t-0.5 41.5v83q0 24 1 52t5.5 56.5t13.5 55.5t26 48q-18 21 -27.5 48.5t-14 56.5t-5.5 57.5t-1 52.5v40t1 40q0 15 0.5 38.5t0.5 39.5q0 10 -0.5 28t-2.5 35.5t-6.5 32t-13.5 18.5q2 -1 -1 -1q-2 0 -4 1
q-15 4 -28.5 12t-13.5 34q0 19 13 32t32 13q40 0 63 -23.5t35 -56.5t15 -69t3 -61q0 -20 -0.5 -39t-0.5 -39v-78q0 -15 0.5 -40t3.5 -50t10 -45.5t19 -26.5q2 -1 3.5 -1.5l4.5 -1.5q18 -5 35 -13t17 -34z" />
    <glyph glyph-name="asciitilde" unicode="~" horiz-adv-x="576" 
d="M400 544q0 -18 -13 -33.5t-31.5 -26.5t-38.5 -17t-33 -6q-36 0 -64 14t-51 29h1q-14 9 -26.5 16t-22.5 7q-3 0 -7 -5.5t-9 -10.5v1q-8 -12 -17.5 -21.5t-26.5 -9.5q-18 0 -32 11.5t-14 31.5v10t4 10q14 29 40.5 49t61.5 20q32 0 55 -12t45 -26q16 -11 31.5 -19.5
t31.5 -8.5q18 0 29 19v-1q13 23 40 23q17 0 32 -11.5t15 -32.5z" />
    <glyph glyph-name="Euro" unicode="&#x20ac;" horiz-adv-x="782" 
d="M785 156q0 -13 -8 -25q-26 -39 -60.5 -71t-75 -54.5t-86 -35t-91.5 -12.5q-72 0 -133.5 26t-109.5 70t-80.5 103.5t-45.5 126.5q-15 -3 -31 -3q-21 0 -37.5 9t-16.5 37q0 19 11 31t30 14l24 2v25q-8 -1 -16 -1h-16q-19 0 -32 12.5t-13 32.5q0 19 11 31t30 14q17 2 25 3
t25 3q16 66 50.5 122.5t83 98t110 65.5t132.5 24q33 0 68.5 -7.5t69.5 -21t65 -33t54 -43.5q13 -14 13 -30q0 -18 -14 -32.5t-32 -14.5q-16 0 -30 11h1q-24 19 -46 34t-44.5 25.5t-48 16t-56.5 5.5q-50 0 -93 -16t-78.5 -44.5t-62.5 -66.5t-43 -83q93 11 183.5 20.5
t183.5 20.5q20 0 34.5 -12.5t14.5 -32.5q0 -19 -12 -31t-29 -14q-101 -11 -197.5 -22.5t-198.5 -22.5q-1 -5 -1 -13v-12q101 11 201 22t201 22q20 0 34.5 -12.5t14.5 -32.5q0 -19 -12 -31t-29 -14q-105 -11 -199.5 -22t-199.5 -22q12 -51 38 -96t63 -78.5t84.5 -53
t101.5 -19.5q66 0 124 29t97 83q2 3 5 5.5t3 5.5q3 3 7 9l4 6l-2 -2q14 17 37 17q18 0 32 -13t14 -32z" />
    <glyph glyph-name="quotesinglbase" unicode="&#x201a;" horiz-adv-x="113" 
d="M110 679q0 -13 -16 -35q-8 -12 -16 -27.5t-8 -25.5q0 -4 4 -10.5t7 -11.5v1q5 -7 8 -14.5t3 -14.5q0 -19 -15 -31.5t-32 -12.5q-15 0 -27 11t-20.5 26t-13.5 31t-5 26t8 32t20.5 44.5t27 39.5t28.5 17q17 0 32 -13t15 -32z" />
    <glyph glyph-name="ellipsis" unicode="&#x2026;" horiz-adv-x="382" 
d="M375 32q0 -14 -6.5 -26t-17 -20t-23 -12.5t-24.5 -4.5q-17 0 -33 8t-26 22q-11 -14 -27 -22t-32 -8q-17 0 -35 8.5t-28 24.5q-10 -15 -27 -24t-34 -9q-25 0 -47.5 17t-22.5 46t22.5 46t47.5 17q17 0 34 -9t27 -24q10 16 28 24.5t35 8.5q16 0 32 -8t27 -22q10 14 26 22
t33 8q12 0 24.5 -4.5t23 -13t17 -20t6.5 -25.5z" />
    <glyph glyph-name="circumflex" unicode="&#x2c6;" horiz-adv-x="576" 
d="M395 469q0 -20 -14 -31.5t-32 -11.5q-7 0 -18 6.5t-24 17t-25.5 22t-22.5 22.5q-10 -11 -23 -22.5t-25.5 -22t-23.5 -17t-18 -6.5q-19 0 -32 11.5t-13 31.5q0 17 12.5 30.5t22.5 21.5l2 2q16 15 25.5 25t16.5 18q8 11 22.5 25.5t34.5 14.5q13 0 30 -11q5 -5 10.5 -12
t10.5 -12v1q19 -21 36.5 -40.5t33.5 -33.5q14 -14 14 -29z" />
    <glyph glyph-name="guilsinglleft" unicode="&#x2039;" horiz-adv-x="473" 
d="M310 161q0 -19 -15 -32t-32 -13q-21 0 -36 18l-145 190l2 -3q-8 8 -9 15.5t-1 14.5t1 14.5t9 15.5l-2 -3q36 48 72.5 94.5t72.5 94.5q13 18 36 18q17 0 32 -13t15 -32q0 -17 -12 -29l2 3q-34 -44 -63 -81.5t-63 -81.5q32 -41 63 -80.5t62 -80.5q11 -17 11 -29z" />
    <glyph glyph-name="OE" unicode="&#x152;" horiz-adv-x="1053" 
d="M661 598q-9 2 -17.5 5.5t-16.5 8.5q7 -26 12 -53q7 7 14 12.5t15 10.5q-4 6 -7 16zM649 717q3 35 15.5 65t32.5 55q-26 -3 -42 -25t-16 -55q0 -23 10 -40zM920 804q0 34 -31 34q-29 0 -56 -13.5t-49 -36.5q-37 -42 -43 -94q25 3 56 11t58.5 21t46 32.5t18.5 45.5z
M125 657q0 51 12 96q-27 -29 -44.5 -66.5t-28 -79t-14.5 -84.5t-4 -83q0 -70 15 -138.5t46.5 -123t79.5 -88.5t115 -34q60 0 107.5 34t80 87t50 119t17.5 130q0 44 -4 84.5t-15 80.5q-9 40 -26.5 81.5t-42.5 75.5t-57 56t-70 22q-31 0 -54.5 -13t-39.5 -36t-24 -54t-8 -66
q0 -11 4.5 -20.5t11.5 -9.5q4 0 7 6.5t5 16t2.5 19.5t0.5 18q0 20 14 34t32 14q19 0 32 -14t13 -34q0 -24 -6.5 -51.5t-19.5 -50.5t-33 -38.5t-47 -15.5q-24 0 -43.5 10.5t-33.5 28t-22 40.5t-8 47zM1051 189q0 -49 -19.5 -91t-50.5 -72.5t-70.5 -48t-79.5 -17.5
q-42 0 -80 15t-70 41t-57 61t-43 76q-22 -43 -50.5 -78.5t-63 -61t-76 -39.5t-88.5 -14q-89 0 -154.5 41.5t-108.5 109t-64 154t-21 175.5q0 65 10.5 129t33 122t58.5 107.5t87 84.5q5 2 12.5 4.5t12.5 2.5q21 0 34 -20q26 26 61 40t78 14q68 0 119.5 -36.5t89.5 -93.5
q11 62 53 101t102 39q17 0 30.5 -13t15.5 -32q31 22 66 33.5t71 11.5q54 0 88 -33t34 -97q0 -34 -11.5 -61.5t-31 -49t-45.5 -38t-54 -27.5q23 -8 41 -25.5t18 -44.5q0 -23 -9.5 -40t-24.5 -28.5t-32.5 -17t-33.5 -5.5q-31 0 -52.5 10.5t-44.5 28.5q-42 -29 -67 -75.5
t-25 -104.5q0 -49 13.5 -97t38 -86.5t60 -62.5t80.5 -24q22 0 45 10.5t42 28.5t30.5 42.5t11.5 51.5q0 13 -6 24t-15 11q-12 0 -15 -3.5t-4 -7.5q-5 -14 -11.5 -23.5t-28.5 -9.5q-23 0 -36 18.5t-13 38.5t12 35.5t29 26t35.5 16t31.5 5.5q24 0 44.5 -11t35.5 -29t23.5 -41.5
t8.5 -49.5z" />
    <glyph glyph-name="quoteleft" unicode="&#x2018;" horiz-adv-x="113" 
d="M110 679q0 -13 -16 -35q-8 -12 -16 -27.5t-8 -25.5q0 -4 4 -10.5t7 -11.5v1q5 -7 8 -14.5t3 -14.5q0 -19 -15 -31.5t-32 -12.5q-15 0 -27 11t-20.5 26t-13.5 31t-5 26t8 32t20.5 44.5t27 39.5t28.5 17q17 0 32 -13t15 -32z" />
    <glyph glyph-name="quoteright" unicode="&#x2019;" horiz-adv-x="198" 
d="M131 626q0 -10 -8.5 -32t-21.5 -44.5t-27.5 -39.5t-27.5 -17q-18 0 -32 12.5t-14 31.5q0 7 5 17t11 20q8 12 16 27.5t8 24.5q0 4 -3.5 10.5t-6.5 11.5v-1q-5 7 -8.5 12.5t-3.5 16.5q0 19 14 32t32 13q14 0 26 -11t21 -26.5t14.5 -31.5t5.5 -26z" />
    <glyph glyph-name="quotedblleft" unicode="&#x201c;" horiz-adv-x="224" 
d="M197 680q0 -8 -4.5 -16.5t-11.5 -19.5q-8 -13 -16.5 -28t-8.5 -26q0 -4 4 -10.5t7 -11.5v1q5 -7 8 -14.5t3 -14.5q0 -19 -14 -31.5t-32 -12.5q-9 0 -17 4.5t-16 12.5q-14 -17 -36 -17q-14 0 -26 11t-21 26t-14.5 31t-5.5 26t8 32t20.5 44.5t27 40t28.5 17.5q24 0 39 -21
q18 21 31 21q17 0 32 -12.5t15 -31.5z" />
    <glyph glyph-name="quotedblright" unicode="&#x201d;" horiz-adv-x="191" 
d="M191 632q0 -10 -8.5 -32t-21.5 -44.5t-27.5 -40t-27.5 -17.5q-26 0 -39 21q-18 -21 -31 -21q-18 0 -32 13t-14 32q0 7 5 17t11 20q8 12 16 27.5t8 24.5q0 4 -3.5 10.5t-6.5 11.5v-1q-5 7 -8.5 12.5t-3.5 16.5q0 19 14 31.5t32 12.5q9 0 17 -5t15 -13q13 18 37 18
q13 0 25.5 -11t22 -26t15 -31t5.5 -26z" />
    <glyph glyph-name="endash" unicode="&#x2013;" horiz-adv-x="474" 
d="M446 172q0 -19 -13 -32t-33 -13h-326q-19 0 -32 13t-13 32q0 20 13 33t32 13h326q18 0 32 -13t14 -33z" />
    <glyph glyph-name="emdash" unicode="&#x2014;" horiz-adv-x="712" 
d="M614 172q0 -20 -13 -32.5t-33 -12.5h-425q-19 0 -32 13t-13 32q0 20 13 33t32 13h425q18 0 32 -13t14 -33z" />
    <glyph glyph-name="tilde" unicode="&#x2dc;" horiz-adv-x="576" 
d="M400 544q0 -18 -13 -33.5t-31.5 -26.5t-38.5 -17t-33 -6q-36 0 -64 14t-51 29h1q-14 9 -26.5 16t-22.5 7q-3 0 -7 -5.5t-9 -10.5v1q-8 -12 -17.5 -21.5t-26.5 -9.5q-18 0 -32 11.5t-14 31.5v10t4 10q14 29 40.5 49t61.5 20q32 0 55 -12t45 -26q16 -11 31.5 -19.5
t31.5 -8.5q18 0 29 19v-1q13 23 40 23q17 0 32 -11.5t15 -32.5z" />
    <glyph glyph-name="guilsinglright" unicode="&#x203a;" horiz-adv-x="473" 
d="M401 354q0 -5 -2 -12t-7 -14l-146 -191q-14 -17 -36 -17q-18 0 -32 13t-14 32t11 30l-2 -3q34 44 63 81t63 81q-32 41 -63.5 81.5t-62.5 81.5l2 -3q-11 11 -11 30t14 32t32 13q22 0 36 -18l146 -190l-2 3q11 -11 11 -30z" />
    <glyph glyph-name="oe" unicode="&#x153;" horiz-adv-x="651" 
d="M269 131l23 23l-16 16l-17 -17zM525 225q0 7 -7 13.5t-17.5 10.5t-22 6.5t-19.5 2.5q-39 0 -72.5 -18.5t-46.5 -53.5q20 -5 43.5 -7t43.5 -2q12 0 29 2.5t32 8.5t26 15t11 22zM244 154q0 21 -7.5 40t-21 33t-32 22.5t-39.5 8.5t-38.5 -8.5t-31 -23t-21 -33t-7.5 -39.5
t7.5 -39.5t21 -32.5t31 -22.5t38.5 -8.5t39 8.5t31.5 22.5t21.5 32.5t8 39.5zM697 155v-6t-2 -8v-1q-38 -85 -104 -131.5t-158 -46.5q-45 0 -81.5 16t-62.5 51q-26 -35 -63 -51t-82 -16q-40 0 -74.5 15t-60 41.5t-40 61.5t-14.5 74t14.5 74.5t40 61.5t60 41.5t74.5 15.5
q43 0 81 -18.5t65 -50.5q32 35 76.5 52t92.5 17q24 0 51.5 -8t51 -24t39 -38.5t15.5 -51.5q0 -35 -19 -61t-47.5 -43t-61.5 -25.5t-61 -8.5q-18 0 -35.5 1t-35.5 3q26 -40 77 -40q48 0 86.5 19.5t64.5 59.5q5 7 8 12t5 9q3 7 7.5 14.5t8.5 13.5q15 20 37 20q17 0 32 -12.5
t15 -31.5z" />
    <glyph glyph-name="glyph110" horiz-adv-x="500" 
 />
    <glyph glyph-name="glyph111" horiz-adv-x="471" 
d="M354 180q0 -24 -10 -44.5t-26.5 -35t-37.5 -22.5t-44 -8t-44 8t-37.5 22.5t-26.5 35t-10 44.5q0 25 10 45t26.5 34.5t37.5 22.5t44 8t44 -8t37.5 -22.5t26.5 -34.5t10 -45z" />
    <glyph glyph-name="glyph112" horiz-adv-x="360" 
d="M262 447q0 -29 -20 -48.5t-49 -19.5q-17 0 -32 7.5t-25 20.5q-9 -13 -23.5 -20.5t-31.5 -7.5q-28 0 -49.5 19.5t-21.5 48.5t21.5 48.5t49.5 19.5q17 0 31.5 -7.5t23.5 -20.5q10 13 25 20.5t32 7.5q29 0 49 -19.5t20 -48.5z" />
    <glyph glyph-name="dieresis" unicode="&#xa8;" horiz-adv-x="360" 
d="M262 447q0 -29 -20 -48.5t-49 -19.5q-17 0 -32 7.5t-25 20.5q-9 -13 -23.5 -20.5t-31.5 -7.5q-28 0 -49.5 19.5t-21.5 48.5t21.5 48.5t49.5 19.5q17 0 31.5 -7.5t23.5 -20.5q10 13 25 20.5t32 7.5q29 0 49 -19.5t20 -48.5z" />
    <glyph glyph-name="bullet" unicode="&#x2022;" horiz-adv-x="240" 
d="M141 616q0 4 -4 6.5t-9 2.5t-8.5 -2.5t-3.5 -6.5q0 -5 3.5 -7.5t8.5 -2.5t9 2.5t4 7.5zM232 616q0 -22 -9 -40t-23.5 -30.5t-33 -19.5t-38.5 -7t-38.5 7t-33 19.5t-23 30.5t-8.5 40t8.5 39.5t23 30t33 19.5t38.5 7t38.5 -7t33 -19.5t23.5 -30t9 -39.5z" />
    <glyph glyph-name="guillemotleft" unicode="&#xab;" horiz-adv-x="474" 
d="M438 10q0 -19 -14 -32t-32 -13q-23 0 -36 16h1q-36 43 -73 86t-73 86l1 -2q-11 11 -11 30q0 8 2.5 16.5t8.5 14.5l-1 -2q36 44 73 87t73 87h-1q13 16 36 16q18 0 32 -13t14 -32q0 -7 -2.5 -13.5t-7.5 -14.5l-122 -146q29 -35 60.5 -71.5t60.5 -71.5l-1 2q12 -12 12 -30z
M298 10q0 -19 -14 -32t-32 -13q-23 0 -36 16h1q-36 43 -73 86t-73 86l1 -2q-11 11 -11 30q0 8 2.5 16.5t8.5 14.5l-1 -2q36 44 73 87t73 87h-1q13 16 36 16q18 0 32 -13t14 -32q0 -7 -2.5 -13.5t-7.5 -14.5l-122 -146q29 -35 60.5 -71.5t60.5 -71.5l-1 2q12 -12 12 -30z" />
    <glyph glyph-name="minus" unicode="&#xad;" horiz-adv-x="712" 
d="M614 172q0 -20 -13 -32.5t-33 -12.5h-425q-19 0 -32 13t-13 32q0 20 13 33t32 13h425q18 0 32 -13t14 -33z" />
    <glyph glyph-name="degree" unicode="&#xb0;" horiz-adv-x="240" 
d="M141 616q0 4 -4 6.5t-9 2.5t-8.5 -2.5t-3.5 -6.5q0 -5 3.5 -7.5t8.5 -2.5t9 2.5t4 7.5zM232 616q0 -22 -9 -40t-23.5 -30.5t-33 -19.5t-38.5 -7t-38.5 7t-33 19.5t-23 30.5t-8.5 40t8.5 39.5t23 30t33 19.5t38.5 7t38.5 -7t33 -19.5t23.5 -30t9 -39.5z" />
    <glyph glyph-name="acute" unicode="&#xb4;" horiz-adv-x="198" 
d="M131 626q0 -10 -8.5 -32t-21.5 -44.5t-27.5 -39.5t-27.5 -17q-18 0 -32 12.5t-14 31.5q0 7 5 17t11 20q8 12 16 27.5t8 24.5q0 4 -3.5 10.5t-6.5 11.5v-1q-5 7 -8.5 12.5t-3.5 16.5q0 19 14 32t32 13q14 0 26 -11t21 -26.5t14.5 -31.5t5.5 -26z" />
    <glyph glyph-name="cedilla" unicode="&#xb8;" horiz-adv-x="373" 
d="M207 -134q-4 -1 -7 -2t-7 -2q7 -3 22 -3q4 0 12 -0.5t8 -2.5q0 4 -9.5 7.5t-15.5 3.5q-2 0 -3 -1zM326 -144q0 -22 -11 -38t-27.5 -26.5t-36 -15.5t-36.5 -5q-31 0 -63.5 11t-49.5 43q-4 5 -4.5 10t-0.5 11q0 19 13.5 31t30.5 13v10q0 4 0.5 7.5t2.5 8.5q7 34 7 79
q0 19 14 31.5t32 12.5t32 -12.5t14 -31.5v-22t-2 -22q15 -5 30 -14.5t27.5 -22t20 -27.5t7.5 -31z" />
    <glyph glyph-name="ordmasculine" unicode="&#xba;" horiz-adv-x="500" 
 />
    <glyph glyph-name="guillemotright" unicode="&#xbb;" horiz-adv-x="474" 
d="M440 181q0 -18 -12 -30l1 2q-36 -43 -73 -86t-73 -86h1q-13 -16 -36 -16q-19 0 -32 13t-13 32t11 30l-1 -2q17 20 32 37.5t29 34t29 34t32 37.5q-31 36 -61 72.5t-61 72.5l1 -2q-6 6 -8.5 14.5t-2.5 16.5q0 19 13 32t32 13q23 0 36 -16h-1q36 -44 73.5 -87.5t73.5 -87.5
q5 -8 7.5 -14.5t2.5 -13.5zM300 181q0 -18 -12 -30l1 2q-36 -43 -73 -86t-73 -86h1q-13 -16 -36 -16q-19 0 -32 13t-13 32t11 30l-1 -2q17 20 32 37.5t29 34t29 34t32 37.5q-31 36 -61 72.5t-61 72.5l1 -2q-6 6 -8.5 14.5t-2.5 16.5q0 19 13 32t32 13q23 0 36 -16h-1
q36 -44 73.5 -87.5t73.5 -87.5q5 -8 7.5 -14.5t2.5 -13.5z" />
    <glyph glyph-name="Aring" unicode="&#xc5;" horiz-adv-x="733" 
d="M356 865q0 3 -3 4.5t-6 1.5q-8 0 -8 -6q0 -7 8 -7q9 0 9 7zM368 617q0 9 -0.5 26t-2 34.5t-5.5 30.5t-11 13q-12 0 -20 -12.5t-12.5 -30t-6 -36t-1.5 -30.5q0 -20 -0.5 -39t-1.5 -39q0 -10 -0.5 -16t-1 -11.5t-0.5 -12.5v-15q10 -2 19.5 -5.5t19.5 -5.5l16 -5
q4 39 6 77.5t2 76.5zM439 865q0 -22 -10 -39.5t-26 -29.5q21 -14 32 -37.5t16.5 -50t6.5 -53.5t1 -47q0 -41 -3 -80.5t-6 -78.5v-1v-1h1q9 0 16.5 6t14.5 11h-1q9 8 18 14t23 6q19 0 32 -14t13 -32q0 -19 -13 -32q-20 -20 -46 -34.5t-57 -14.5q-3 0 -4 -0.5t0 -0.5
q-1 0 -2 0.5t-3 0.5q-2 -23 -2 -45v-45q0 -27 1.5 -64t10 -70.5t27 -57t52.5 -23.5q22 0 41.5 9t33 24.5t21.5 36t8 42.5q0 10 -5.5 18.5t-14.5 8.5q-2 0 -2 -5q-5 -15 -12 -27t-33 -12q-18 0 -32 12.5t-14 32.5q0 19 7.5 35.5t20.5 28.5t30 18.5t35 6.5q24 0 44.5 -9.5
t35.5 -26t23 -37.5t8 -44q0 -41 -15 -77.5t-41 -64t-61.5 -44t-77.5 -16.5q-43 0 -73 15t-50 39.5t-32 57t-18 67t-7.5 69.5t-1.5 64q0 26 1 49t3 49q-5 2 -10 3t-10 3q-6 2 -8.5 3t-4.5 1.5t-5 1t-10 2.5v-61q0 -62 -6 -126t-29 -117t-68.5 -86.5t-124.5 -33.5
q-19 0 -40.5 5t-39.5 16.5t-30 29t-12 41.5q0 18 7 33t19 26t27.5 17.5t32.5 6.5q45 0 45 -45q0 -17 -6.5 -26t-15.5 -14h13q49 0 76.5 26.5t41 66t16.5 85.5t3 85v80q-13 -4 -23 -11q-8 -5 -13.5 -8t-16.5 -3q-18 0 -32 13t-14 32q0 13 4.5 20.5t10.5 13.5q37 34 84 37
q0 11 0.5 24.5t1.5 24.5q1 18 1.5 36t0.5 38q0 21 3.5 47t12.5 51.5t23 48t35 36.5q-17 12 -27 29.5t-10 40.5q0 19 7.5 35t20.5 27t29.5 17.5t34.5 6.5t34.5 -6.5t29.5 -17.5t20.5 -27t7.5 -35z" />
    <glyph glyph-name="Adieresis" unicode="&#xc4;" horiz-adv-x="733" 
d="M368 618q0 9 -0.5 26t-2 34.5t-5.5 30.5t-11 13q-12 0 -20 -12.5t-12.5 -30t-6 -36t-1.5 -30.5q0 -19 -0.5 -38.5t-1.5 -38.5q0 -10 -0.5 -16.5t-1 -12.5t-0.5 -13v-16q9 -2 19 -5t19 -5q6 -2 7 -2t1.5 -0.5t2 -1t7.5 -1.5q3 39 5 77t2 78zM475 845q0 -23 -14.5 -42
t-36.5 -26q13 -17 20 -39t10.5 -45t4 -45t0.5 -39q0 -41 -3 -80.5t-6 -78.5v-1v-1h1q9 0 16.5 6t14.5 11h-1q9 8 18 14t23 6q19 0 32 -14t13 -32q0 -19 -13 -32q-20 -20 -45.5 -35t-57.5 -15q-3 0 -4 -0.5t0 -0.5q-1 0 -2 0.5t-3 0.5q-2 -23 -2 -45v-44q0 -27 1.5 -64
t10 -71t27 -57.5t52.5 -23.5q22 0 41.5 9.5t33 25t21.5 36t8 42.5q0 10 -5.5 18t-14.5 8q-2 0 -2 -5q-5 -15 -12 -27t-33 -12q-18 0 -32 12.5t-14 32.5q0 19 7.5 35.5t20.5 28.5t30 19t35 7q24 0 44.5 -9.5t35.5 -26t23 -37.5t8 -44q0 -41 -15 -77.5t-41 -64.5t-61.5 -44.5
t-77.5 -16.5q-64 0 -100.5 32.5t-54.5 80t-22.5 102t-4.5 98.5q0 26 1 49t3 49q-5 2 -10 3t-10 3q-6 2 -8.5 3t-4.5 1.5t-5 1t-10 2.5v-61q0 -41 -2.5 -84t-10 -83.5t-22.5 -76t-40.5 -62.5t-63 -42.5t-89.5 -15.5q-19 0 -40.5 5t-39.5 16.5t-30 29t-12 41.5q0 18 7 33
t19 26t27.5 17.5t32.5 6.5q45 0 45 -45q0 -17 -6.5 -26t-15.5 -14h13q49 0 76.5 26.5t41 66t16.5 86t3 85.5v80q-13 -4 -23 -11q-8 -5 -13.5 -8t-16.5 -3q-18 0 -32 13t-14 32q0 13 4.5 20.5t10.5 13.5q37 34 84 37q0 11 0.5 24.5t1.5 24.5q1 18 1.5 36t0.5 38q0 18 3 40.5
t9 45t16 43.5t25 37q-20 8 -34 26t-14 40q0 29 21.5 49t49.5 20q36 0 55 -29q21 29 57 29q29 0 49 -20t20 -49z" />
    <glyph glyph-name="Acircumflex" unicode="&#xc2;" horiz-adv-x="780" 
d="M401 619q0 9 -0.5 26.5t-2 35t-5.5 30t-11 12.5q-12 0 -20 -12.5t-12.5 -30t-6 -36t-1.5 -30.5v-92q0 -23 0.5 -36.5t0.5 -35.5q9 -2 19 -5t18 -5l5 -2h1l0.5 -0.5t5.5 -1.5q9 93 9 183zM508 815q0 -19 -13 -32t-32 -13q11 -17 17 -38t8.5 -43t3 -42.5t0.5 -36.5
q0 -42 -2.5 -83t-5.5 -82q-1 -6 -1.5 -12t-0.5 -12h2q8 0 17 6.5t16 11.5q9 8 16.5 13t21.5 5q19 0 32 -13t13 -32q0 -16 -12 -31q-19 -20 -46 -36t-58 -16q-4 0 -4.5 -0.5l-0.5 -0.5h-1l-4 1q-1 -15 -1 -31v-30q0 -27 1.5 -64t10 -71t27 -57.5t52.5 -23.5q21 0 37 9
t28.5 23.5t22 31t17.5 31.5q13 24 26 41t33 17q19 0 32 -13t13 -32q0 -11 -5 -21q-15 -32 -33 -63.5t-42 -56.5t-55.5 -41t-73.5 -16q-43 0 -73 15t-50 40t-32 57.5t-18 67.5t-7.5 69.5t-1.5 63.5v36q0 18 2 36q-2 1 -5.5 1.5t-5.5 1.5q-8 2 -10.5 3t-4.5 1.5t-4.5 1
t-10.5 2.5v-85q0 -37 -2 -74.5t-9 -72t-20.5 -64.5t-37 -52t-58 -35t-83.5 -13q-37 0 -69.5 14t-56.5 38t-38 56.5t-14 69.5q0 29 11 55t30.5 45.5t45.5 31t55 11.5q21 0 40.5 -7.5t35 -21t24.5 -32.5t9 -41q0 -19 -13 -32t-32 -13q-15 0 -23.5 3.5t-12.5 9t-6 13t-3 15.5
l1 -2q-2 4 -2 6q-5 11 -18 11q-22 0 -36.5 -15.5t-14.5 -36.5q0 -37 24.5 -62.5t62.5 -25.5q53 0 76.5 26t33.5 79q6 30 7.5 59t1.5 57v96q-8 -2 -16 -6l-14 -7q-18 -10 -28 -10q-18 0 -32 14t-14 32q0 19 14 33q18 17 42 25t48 10q0 17 -0.5 32.5t-0.5 32.5v89q0 27 6 62
t21 65.5t40 51.5t64 21q12 0 24 -3q-8 9 -15 18.5t-13 17.5v-1l-4 4q-11 -12 -25 -26t-27 -26t-24 -20t-15 -8q-18 0 -32 13t-14 32q0 10 4.5 18.5t10.5 16t12.5 13.5t10.5 10v-1q11 10 20 21t19 25q4 6 10 13.5t13.5 14.5t16.5 12t20 5q14 0 29 -12q10 -8 16.5 -16.5
t12.5 -18.5q4 -5 6.5 -9.5t7.5 -9.5q6 -9 12 -15.5t12 -11.5q6 -6 13.5 -12.5t13.5 -13.5q5 -5 8 -12.5t3 -16.5z" />
    <glyph glyph-name="Ecircumflex" unicode="&#xca;" horiz-adv-x="521" 
d="M220 767q25 17 52 28t53 16q-8 9 -15 18.5t-13 17.5v-1l-4 4q-16 -18 -37.5 -39t-36.5 -32q0 -2 0.5 -5t0.5 -5v-2zM116 610q2 32 16 60.5t37 53.5q-15 -1 -36 -6.5t-40.5 -14.5t-33 -21t-13.5 -25q0 -10 6.5 -17.5t16.5 -13t22.5 -9.5t24.5 -7zM388 698q0 26 -30 26
q-20 0 -40.5 -6.5t-39 -18t-34 -27t-25.5 -33.5q-5 -8 -8 -16.5t-4 -16.5q25 3 56 9t59 17t47 27t19 39zM427 815q0 -5 -1 -8.5t-2 -7.5q26 -14 40.5 -39t14.5 -62q0 -29 -11 -53t-29.5 -42.5t-42.5 -33t-51 -24.5q20 -8 35.5 -23t15.5 -38q0 -20 -9.5 -35.5t-24.5 -25.5
t-32.5 -15t-33.5 -5q-27 0 -51.5 9t-46.5 25q-45 -23 -68.5 -63.5t-23.5 -90.5q0 -42 13.5 -83.5t39 -74t61.5 -53t80 -20.5q22 0 45 9t41.5 24t30 35.5t11.5 43.5q0 10 -5.5 18.5t-14.5 8.5q-14 0 -16.5 -2.5t-3.5 -5.5l1 2q-4 -12 -11.5 -22t-28.5 -10q-23 0 -36.5 17
t-13.5 36q0 18 12 32t29.5 23.5t36 14.5t31.5 5q24 0 44 -9.5t35 -26t23.5 -37.5t8.5 -44q0 -43 -19 -80t-50 -64t-70.5 -42.5t-79.5 -15.5q-65 0 -117.5 28t-89.5 73t-57.5 102.5t-20.5 117.5q0 69 32 128.5t90 95.5q-2 3 -2.5 4.5t-2.5 4.5q-28 4 -59 13.5t-57.5 27
t-43.5 42t-17 58.5q0 33 20.5 60t50.5 47t65 33t65 16v2q0 10 4.5 18.5t10.5 16t12.5 13.5t10.5 10v-1q11 10 20 21t19 25q4 6 10 13.5t13.5 14.5t16.5 12t20 5q14 0 29 -12q10 -8 16.5 -16.5t12.5 -18.5q4 -5 6.5 -9.5t7.5 -9.5q6 -9 12 -15.5t12 -11.5q6 -6 13.5 -12.5
t13.5 -13.5q5 -5 8 -12.5t3 -16.5z" />
    <glyph glyph-name="Ccedilla" unicode="&#xc7;" horiz-adv-x="576" 
d="M323 -129q-5 -2 -9.5 -4t-9.5 -3q7 -3 24 -3h12q8 0 8 -1q0 5 -9 8.5t-15 3.5q1 0 0.5 -0.5t-1.5 -0.5zM67 527q17 53 46 104t69 93q-26 -2 -50 -10.5t-43.5 -24t-31 -37t-11.5 -48.5q0 -20 5.5 -40t15.5 -37zM409 682q0 14 -7.5 28.5t-21.5 14.5q-46 0 -83 -22.5
t-66.5 -58.5t-50 -79.5t-33.5 -85.5h10q44 0 89 14t81 40t59 63.5t23 85.5zM533 155q0 -39 -14.5 -72t-39 -58t-57 -40.5t-68.5 -21.5q0 -2 -0.5 -2.5t-0.5 -2.5q16 -5 31.5 -14.5t27.5 -22t19.5 -28t7.5 -33.5q0 -23 -11 -39.5t-27.5 -27.5t-36 -16.5t-36.5 -5.5
q-32 0 -64.5 12t-49.5 45q-4 5 -4 10v12q0 19 13 31.5t32 12.5h1q-1 4 -1.5 7t-0.5 7v10t4 9q2 8 2.5 17.5t1.5 19.5q-56 11 -99 43t-72.5 76.5t-45 97.5t-15.5 106q0 34 2 68.5t9 69.5q-44 31 -65 78t-21 101q0 48 20.5 87t54.5 66.5t76 42.5t86 15q19 0 32 -12t14 -32
q31 20 66 32t76 12q28 0 50.5 -11.5t38 -30.5t23.5 -43t8 -48q0 -68 -30.5 -122t-79.5 -92t-110.5 -58.5t-122.5 -20.5h-15t-15 1q-4 -26 -5 -51.5t-1 -51.5q0 -43 13 -85.5t37.5 -76t60.5 -54.5t82 -21q23 0 46 7.5t41 21t29.5 33t11.5 43.5q0 13 -7.5 23.5t-19.5 10.5
q-8 0 -10 -2.5t-3 -4.5q-5 -12 -12 -22t-30 -10q-45 0 -45 45q0 21 9.5 37t24 26.5t32 15.5t34.5 5q25 0 46.5 -10t37.5 -27.5t25 -40t9 -46.5z" />
    <glyph glyph-name="Eacute" unicode="&#xc9;" horiz-adv-x="521" 
d="M116 610q2 32 16 60.5t37 53.5q-15 -1 -36 -6.5t-40.5 -14.5t-33 -21t-13.5 -25q0 -10 6.5 -17.5t16.5 -13t22.5 -9.5t24.5 -7zM388 698q0 26 -30 26q-20 0 -40.5 -6.5t-39 -18t-34 -27t-25.5 -33.5q-5 -8 -8 -16.5t-4 -16.5q25 3 56 9t59 17t47 27t19 39zM439 906
q0 -5 -7 -15t-18 -22.5t-25.5 -27t-29.5 -27.5q54 -1 87 -30t33 -86q0 -29 -11 -53t-29.5 -42.5t-42.5 -33t-51 -24.5q20 -8 35.5 -23t15.5 -38q0 -20 -9.5 -35.5t-24.5 -25.5t-32.5 -15t-33.5 -5q-27 0 -51.5 9t-46.5 25q-45 -23 -68.5 -63.5t-23.5 -90.5q0 -42 13.5 -83.5
t39 -74t61.5 -53t80 -20.5q22 0 45 9t41.5 24t30 35.5t11.5 43.5q0 10 -5.5 18.5t-14.5 8.5q-14 0 -16.5 -2.5t-3.5 -5.5l1 2q-4 -12 -11.5 -22t-28.5 -10q-23 0 -36.5 17t-13.5 36q0 18 12 32t29.5 23.5t36 14.5t31.5 5q24 0 44 -9.5t35 -26t23.5 -37.5t8.5 -44
q0 -43 -19 -80t-50 -64t-70.5 -42.5t-79.5 -15.5q-65 0 -117.5 28t-89.5 73t-57.5 102.5t-20.5 117.5q0 69 32 128.5t90 95.5q-2 3 -2.5 4.5t-2.5 4.5q-28 4 -59 13.5t-57.5 27t-43.5 42t-17 58.5q0 36 23.5 65t58 49.5t72 31.5t66.5 11q19 0 32 -12.5t13 -32.5v-2q5 4 10 7
l10 6q-7 10 -7 24q0 10 5 19t12.5 17t16 14.5t15.5 11.5q1 0 3 2t5.5 4t5.5 4l-1 -1q11 8 21.5 17t21.5 21q1 0 1 1t1 2l2 2q8 10 20.5 22t30.5 12t32 -14t14 -32z" />
    <glyph glyph-name="Ntilde" unicode="&#xd1;" horiz-adv-x="627" 
d="M644 877q0 -10 -13.5 -25.5t-31.5 -30.5t-35.5 -25.5t-26.5 -10.5q-17 0 -31.5 6t-26.5 15t-21.5 20t-16.5 20q-3 4 -5.5 7t-4.5 5q-4 -6 -10 -12q-12 -14 -24.5 -26t-29.5 -12q-18 0 -32 14t-14 32q0 10 13.5 27t31.5 32.5t36.5 27t28.5 11.5q33 0 51 -16.5t32 -36.5
q5 -7 9 -12.5t8 -7.5q4 4 12 10v-1q14 12 27.5 23.5t28.5 11.5q19 0 32 -14t13 -32zM775 685q0 -22 -4.5 -47t-16.5 -46t-32 -35t-50 -14q-18 0 -32 13t-14 32q0 20 14 32.5t32 12.5q4 0 6.5 6t3.5 14t1.5 17t0.5 15q0 5 -5 10t-12 9.5t-14.5 7t-12.5 2.5q-15 0 -23.5 -12
t-12.5 -29t-5 -35.5t-1 -32.5v-89t1 -88q1 -45 1.5 -88t0.5 -88q0 -40 -0.5 -77t-4.5 -75q-2 -20 -7.5 -44.5t-16.5 -45.5t-30 -35.5t-49 -14.5q-31 0 -50.5 15.5t-31 38t-17.5 48t-9 45.5q-12 68 -21 135.5t-18 136.5q-5 41 -11.5 86t-13.5 91q1 -24 1 -48t1 -48
q1 -55 2 -109t1 -108q0 -51 -4.5 -102t-24 -92.5t-58.5 -67t-108 -25.5q-28 0 -59 15t-57 38.5t-43 52.5t-17 58q0 30 8 59t24.5 52.5t42 37.5t60.5 14q21 0 40.5 -7t35.5 -20.5t25.5 -32t9.5 -40.5q0 -20 -13 -32.5t-32 -12.5q-18 0 -32 13t-14 32q0 5 -7 7t-13 2
q-12 0 -20.5 -7t-14 -17.5t-7.5 -23t-2 -24.5t9 -25t22 -24t27.5 -18t26.5 -7q39 0 60.5 18.5t31 47.5t11 64t1.5 67q0 54 -1 107t-2 107t-1.5 107t-0.5 107q0 19 2.5 42t11.5 43t26 34t45 14q25 0 41 -21t26 -49.5t15 -57.5t8 -46q0 -5 1 -8v2q10 -61 17 -121.5t15 -120.5
q1 -8 2 -15.5t2 -15.5q2 -10 2.5 -21t2.5 -21q3 -26 7 -54.5l8 -57t8.5 -56t9.5 -49.5q-1 0 0 -1q3 -12 7 -26.5t6 -14.5q5 0 7.5 11.5t4 27t2 31t0.5 22.5q1 35 1.5 70t0.5 70q0 39 -0.5 77.5t-0.5 76.5q-1 34 -1 77v78q0 32 3 69.5t16 69.5t40 53t74 21q20 0 43.5 -10.5
t44 -27t34 -38t13.5 -43.5z" />
    <glyph glyph-name="Odieresis" unicode="&#xd6;" horiz-adv-x="659" 
d="M272 794q6 2 14 4l-6 6q-4 -6 -8 -10zM121 566q0 38 9 73q-23 -25 -39 -56t-26 -64.5t-14.5 -68.5t-4.5 -68q0 -60 15.5 -119t47 -106t80 -76t115.5 -29q64 0 112 31.5t79.5 80.5t47 109t15.5 117q0 46 -13.5 102.5t-40.5 105.5t-67 82.5t-94 33.5q-32 0 -56 -12t-41 -32
t-25.5 -47t-8.5 -57q0 -8 4.5 -15t11.5 -7q4 0 7 5t5 12.5t2.5 16t0.5 14.5q0 20 14 32.5t32 12.5q19 0 32 -12.5t13 -32.5q0 -21 -6.5 -45.5t-19.5 -45t-33 -34t-47 -13.5q-24 0 -43.5 9.5t-33.5 25t-22 36t-8 41.5zM406 845q0 -13 -4.5 -24t-12.5 -21q64 -13 113 -57
t82 -103t49.5 -125.5t16.5 -124.5q0 -75 -22 -151.5t-65.5 -138t-108 -100t-150.5 -38.5q-89 0 -154.5 36.5t-108.5 95.5t-64.5 134.5t-21.5 153.5q0 59 10.5 115.5t33.5 106.5t60 92.5t91 73.5l-1 -1q10 7 25 7q10 0 18 -4.5t14 -11.5q5 4 10.5 7.5t11.5 7.5h-3
q-28 0 -49.5 21t-21.5 49q0 29 21.5 49t49.5 20q36 0 55 -29q21 29 57 29q29 0 49 -20t20 -49z" />
    <glyph glyph-name="Udieresis" unicode="&#xdc;" horiz-adv-x="929" 
d="M170 595q7 0 15 -3v34q0 13 -2.5 29.5t-8.5 31.5t-15.5 25t-23.5 10q-22 0 -38.5 -14t-28 -34.5t-17 -44.5t-5.5 -43q0 -13 2 -31.5t7.5 -35t14 -28.5t22.5 -12q10 0 16 7.5t10 18t5.5 23t1.5 22.5q0 20 13 32.5t32 12.5zM530 845q0 -28 -20 -49t-49 -21q-35 0 -56 29
q-21 -29 -55 -29q-28 0 -49.5 21t-21.5 49q0 29 21.5 49t49.5 20q17 0 31 -7.5t24 -20.5q10 13 24.5 20.5t31.5 7.5q29 0 49 -20t20 -49zM922 164q0 -41 -15 -77.5t-41 -64t-61.5 -44t-76.5 -16.5q-49 0 -89.5 22t-66.5 60q-29 -40 -71.5 -61t-95.5 -21q-51 0 -91.5 22
t-69 58t-44 81t-15.5 90v226q-15 -22 -38 -36t-55 -14q-39 0 -65 20t-42 49.5t-23 64t-7 63.5q0 37 12 77t35 73t56.5 54.5t76.5 21.5q38 0 64.5 -18t43.5 -45t25 -60t8 -63v-413q0 -28 9 -56.5t25.5 -52t40.5 -38t54 -14.5t54 13t40.5 34t25.5 48t9 55v567q0 20 14 32.5
t32 12.5q19 0 32 -12.5t13 -32.5v-605q0 -21 8 -41.5t21.5 -36t32.5 -25t41 -9.5t41 9t33 24.5t21.5 36t7.5 42.5q0 10 -5.5 18.5t-14.5 8.5q-2 0 -2 -5q-5 -15 -12 -27t-33 -12q-18 0 -32 12.5t-14 32.5q0 19 7.5 35.5t20.5 28.5t30 18.5t35 6.5q24 0 44.5 -9.5t35.5 -26
t23 -37.5t8 -44z" />
    <glyph glyph-name="aacute" unicode="&#xe1;" horiz-adv-x="475" 
d="M279 504q0 -6 -10 -19.5t-25.5 -29.5t-34.5 -33.5t-36.5 -31.5t-32 -23t-21.5 -9q-19 0 -32 13t-13 32q0 23 16 36q8 6 16.5 11.5t16.5 11.5q7 5 14.5 10.5t15.5 12.5t17.5 16.5t18.5 20.5l8 10q7 7 16.5 12t19.5 5q18 0 32 -13t14 -32zM244 157q0 21 -8 40t-21.5 33.5
t-31.5 23.5t-39 9t-39 -9t-31 -23.5t-20.5 -33.5t-7.5 -40t7.5 -40t21 -33.5t31 -23t38.5 -8.5t39 8.5t31.5 23t21.5 33.5t8 40zM522 158q0 -5 -0.5 -9t-4.5 -9q-11 -23 -29 -53.5t-41 -58.5t-50 -47t-54 -19q-29 0 -48.5 11.5t-31.5 31.5q-49 -43 -119 -43q-40 0 -74.5 16
t-60 42.5t-40 62t-14.5 74.5t14.5 74.5t40 62t60 42.5t74.5 16q55 0 102 -30q4 12 13.5 20t29.5 8q18 0 32 -13t14 -32v-229q0 -8 1.5 -16t6.5 -8q10 0 22.5 13t24.5 31t22 36.5t16 30.5l-1 -1q6 14 15.5 27t32.5 13q17 0 32 -12.5t15 -31.5z" />
    <glyph glyph-name="agrave" unicode="&#xe0;" horiz-adv-x="476" 
d="M269 400q0 -19 -13 -32t-32 -13q-10 0 -36.5 18.5t-54 43.5t-49 49t-21.5 35q0 19 14.5 32t32.5 13q23 0 37 -18q4 -5 6.5 -9t6.5 -8q7 -8 13 -14.5t15 -14.5q18 -15 33 -25q8 -5 15 -11t14 -11q19 -16 19 -35zM244 157q0 21 -7.5 40t-21 33.5t-31.5 23.5t-39 9t-39.5 -9
t-31.5 -23.5t-20.5 -33.5t-7.5 -40t7.5 -40t21 -33.5t31.5 -23t39 -8.5t39 8.5t31.5 23t21 33.5t7.5 40zM522 158q0 -6 -0.5 -11t-4.5 -10q-10 -22 -27.5 -52t-41 -57.5t-50 -46.5t-54.5 -19q-29 0 -48.5 11.5t-31.5 31.5q-49 -43 -119 -43q-40 0 -75 16t-60.5 42.5t-40 62
t-14.5 74.5t14.5 74.5t40 62t60.5 42.5t75 16q54 0 101 -30q4 12 14 20t30 8q19 0 32 -13t13 -32v-207v-14t1 -15t3 -12t5 -5q10 0 22.5 13t24 30.5t21.5 36t15 29.5l-1 -1q6 13 16.5 27.5t33.5 14.5q18 0 32 -12.5t14 -31.5z" />
    <glyph glyph-name="acircumflex" unicode="&#xe2;" horiz-adv-x="476" 
d="M284 416q0 -19 -13 -32t-32 -13q-8 0 -19 7.5t-22.5 18.5t-23 24t-20.5 24q-4 4 -4 5q-11 -12 -25 -26t-27.5 -25.5t-24 -19.5t-14.5 -8q-18 0 -32 13t-14 32q0 18 12 31.5t22 22.5q1 0 3 2q23 22 41 46q4 5 9.5 12.5t13 14.5t16.5 12t20 5q14 0 29 -12q9 -8 15.5 -17
t13.5 -19q2 -2 5.5 -7t8.5 -10q6 -9 12 -15.5t12 -11.5q6 -6 13.5 -12.5t13.5 -13.5q5 -5 8 -12.5t3 -15.5zM244 157q0 21 -7.5 40t-20.5 33.5t-31.5 23.5t-39.5 9t-39.5 -9t-31.5 -23.5t-20.5 -33.5t-7.5 -40t7.5 -40t20.5 -33.5t31.5 -23t39.5 -8.5t39 8.5t31.5 23
t21 33.5t7.5 40zM522 158q0 -6 -0.5 -11t-4.5 -10q-10 -22 -27.5 -52t-41 -57.5t-50 -46.5t-54.5 -19q-56 0 -81 43q-51 -43 -118 -43q-40 0 -75 16t-60.5 42.5t-40 62t-14.5 74.5t14.5 74.5t40 62.5t60.5 43t75 16q55 0 102 -31q4 12 13.5 20t29.5 8q19 0 32 -13t13 -32
v-207v-14t1 -15t3 -12t5 -5q10 0 22.5 13t24 30.5t21.5 36t15 29.5l-1 -1q6 13 16.5 27.5t33.5 14.5q18 0 32 -12.5t14 -31.5z" />
    <glyph glyph-name="adieresis" unicode="&#xe4;" horiz-adv-x="476" 
d="M268 447q0 -29 -20 -48.5t-49 -19.5q-17 0 -31.5 7.5t-25.5 19.5q-19 -27 -55 -27q-28 0 -49.5 19.5t-21.5 48.5t21.5 48.5t49.5 19.5q17 0 31.5 -7.5t23.5 -20.5q11 13 25.5 20.5t31.5 7.5q29 0 49 -19.5t20 -48.5zM244 156q0 21 -7.5 40t-21 33.5t-31.5 23.5t-39 9
t-39.5 -9t-31.5 -23.5t-20.5 -33.5t-7.5 -40t7.5 -40t21 -33t31.5 -22.5t39 -8.5t39 8.5t31.5 22.5t21 33t7.5 40zM522 157q0 -5 -0.5 -10t-4.5 -10q-10 -22 -27.5 -52t-41 -57.5t-50 -46.5t-54.5 -19q-29 0 -48.5 11t-31.5 31q-51 -42 -119 -42q-40 0 -75 15.5t-60.5 42.5
t-40 62t-14.5 74t14.5 74.5t40 62.5t60.5 43t75 16q27 0 52.5 -8.5t48.5 -23.5q4 12 14 20.5t30 8.5q19 0 32 -13t13 -32v-206v-14t1 -15t3 -12t5 -5q10 0 22.5 13t24 30.5t21.5 36t15 29.5l-1 -1q6 13 16.5 27t33.5 14q18 0 32 -12.5t14 -31.5z" />
    <glyph glyph-name="atilde" unicode="&#xe3;" horiz-adv-x="476" 
d="M326 455q0 -10 -13.5 -25.5t-31.5 -30.5t-35.5 -25.5t-26.5 -10.5q-18 0 -32.5 5.5t-26 14.5t-20.5 19.5t-16 20.5q-9 8 -10 13q-2 -2 -5 -5.5t-6 -7.5q-13 -14 -25.5 -25t-28.5 -11q-18 0 -32 13t-14 32q0 11 13.5 27.5t32 32t37 26.5t28.5 11q32 0 51 -17t33 -36
q5 -6 8 -10.5t7 -8.5q4 4 12 10v-1q14 12 27.5 23.5t28.5 11.5q19 0 32 -14t13 -32zM244 157q0 21 -7.5 40t-21 33.5t-31.5 23t-39 8.5t-39.5 -8.5t-31.5 -23t-20.5 -33.5t-7.5 -40t7.5 -40t21 -33.5t31.5 -23t39 -8.5t39 8.5t31.5 23t21 33.5t7.5 40zM522 158
q0 -6 -0.5 -11t-4.5 -10q-10 -22 -27.5 -52t-41 -57.5t-50 -46.5t-54.5 -19q-29 0 -48.5 11t-31.5 31q-51 -42 -119 -42q-40 0 -75 16t-60.5 42.5t-40 62t-14.5 74.5t14.5 74.5t40 62t60.5 42.5t75 16q55 0 102 -31q4 12 13.5 20t29.5 8q19 0 32 -13t13 -32v-206v-14t1 -15
t3 -12t5 -5q10 0 22.5 13t24 30.5t21.5 36t15 29.5l-1 -1q6 13 16.5 27.5t33.5 14.5q18 0 32 -12.5t14 -31.5z" />
    <glyph glyph-name="aring" unicode="&#xe5;" horiz-adv-x="476" 
d="M172 469q0 3 -3 4.5t-6 1.5q-9 0 -9 -6q0 -7 9 -7t9 7zM254 469q0 -19 -7.5 -35t-20 -27.5t-29 -18t-34.5 -6.5t-34.5 6.5t-29.5 18t-20.5 27.5t-7.5 35t7.5 35t20.5 27t29.5 17.5t34.5 6.5t34.5 -6.5t29 -17.5t20 -27t7.5 -35zM244 154q0 21 -7.5 39.5t-21 33t-31.5 23
t-39 8.5t-39 -8.5t-31.5 -23t-21 -33t-7.5 -39.5t7.5 -39.5t21 -32.5t31.5 -22.5t39 -8.5t39 8.5t31.5 22.5t21 32.5t7.5 39.5zM522 155q0 -6 -0.5 -11t-4.5 -10q-10 -22 -27.5 -51.5t-41 -56.5t-50 -45.5t-54.5 -18.5q-57 0 -80 41q-25 -20 -55.5 -30.5t-63.5 -10.5
q-40 0 -74.5 15t-60 41.5t-40.5 61.5t-15 74t15 74.5t40.5 61.5t60 41.5t74.5 15.5q55 0 102 -31q4 12 13.5 20t29.5 8q19 0 32 -12.5t13 -31.5v-203v-14t1 -15t3 -12t5 -5q10 0 22 13t24 30.5t21.5 35.5t15.5 29l-1 -1q6 13 16.5 27t33.5 14q18 0 32 -12.5t14 -31.5z" />
    <glyph glyph-name="edieresis" unicode="&#xeb;" horiz-adv-x="360" 
d="M213 228q0 8 -7 14t-17.5 10.5t-21.5 7t-19 2.5q-32 0 -57.5 -17.5t-37.5 -45.5q21 -10 41.5 -15t45.5 -5q12 0 25 3t23.5 9t17.5 15t7 22zM262 447q0 -29 -20 -48.5t-49 -19.5q-17 0 -32 7.5t-25 20.5q-9 -13 -23.5 -20.5t-31.5 -7.5q-28 0 -49.5 19.5t-21.5 48.5
t21.5 48.5t49.5 19.5q17 0 31.5 -7.5t23.5 -20.5q10 13 25 20.5t32 7.5q29 0 49 -19.5t20 -48.5zM407 157q0 -5 -0.5 -10t-4.5 -10q-35 -81 -100.5 -128t-156.5 -47q-40 0 -74.5 15.5t-60 42.5t-40.5 62t-15 74q0 41 15 76.5t41 62t61 42t76 15.5q24 0 51 -8.5t50.5 -24.5
t39 -39t15.5 -52q0 -34 -14.5 -60t-38 -43.5t-53 -26.5t-58.5 -9q-20 0 -39.5 2.5t-36.5 7.5q14 -20 34.5 -33.5t46.5 -13.5q48 0 87 20t65 62q1 2 2.5 4t3.5 8q4 8 9.5 17.5t12.5 18t16 14t20 5.5q18 0 32 -12.5t14 -31.5z" />
    <glyph glyph-name="ntilde" unicode="&#xf1;" horiz-adv-x="509" 
d="M347 457q0 -10 -13.5 -25.5t-31.5 -30.5t-36.5 -25.5t-27.5 -10.5q-18 0 -32.5 5.5t-26 14.5t-20.5 19.5t-16 20.5q-6 6 -10 12l-5 -5t-6 -7l1 1q-12 -14 -24.5 -25.5t-29.5 -11.5q-18 0 -32 13t-14 32q0 11 13.5 27.5t31.5 32t36.5 26.5t28.5 11q32 0 51 -16.5t33 -36.5
q3 -5 7 -10t7 -8q3 2 6.5 4.5t5.5 4.5v-1q14 13 30.5 24t26.5 11q17 0 32 -14t15 -32zM555 158v-6q0 -3 -2 -8v5v-4q-7 -18 -26 -49t-44 -61t-52 -51.5t-49 -21.5q-35 0 -57.5 13.5t-35.5 35t-18 48.5t-5 54v116q0 17 -12.5 24t-29.5 7t-28 -15t-11 -32v-206q0 -19 -14 -32
t-32 -13q-19 0 -32 13t-13 32v224v17q0 12 1 12q-6 0 -13.5 -20t-15.5 -43v1q-5 -17 -11 -32.5t-14 -27.5t-18 -19t-23 -7q-19 0 -32 13t-13 32q0 6 5.5 22t12.5 34.5t14 35t10 22.5q7 13 16.5 27t21 25.5t26.5 19t34 7.5q35 0 56 -23q16 13 33.5 18t39.5 5q27 0 51.5 -8
t42.5 -23.5t28.5 -38t10.5 -51.5v-116q0 -10 0.5 -20.5t3 -19.5t7.5 -15t14 -6q6 0 17.5 14t23.5 33t22 37l15 27l3 7q8 13 17.5 22.5t28.5 9.5q18 0 32 -12.5t14 -31.5z" />
    <glyph glyph-name="oacute" unicode="&#xf3;" horiz-adv-x="400" 
d="M258 504q0 -6 -10 -19.5t-25.5 -29.5t-34.5 -33.5t-36.5 -31.5t-32 -23t-21.5 -9q-18 0 -32 13t-14 32q0 20 18 35l24 18q17 13 32.5 25t28.5 26q3 3 5.5 7t5.5 7l4.5 4.5t5.5 6.5q14 17 36 17q18 0 32 -13t14 -32zM145 52q26 0 48.5 13.5t36.5 36.5q-18 19 -28.5 42.5
t-10.5 50.5q0 12 2 25t7 25q-24 18 -55 18q-21 0 -39.5 -9t-31.5 -23.5t-20.5 -33.5t-7.5 -40t7.5 -40t21 -33.5t31.5 -23t39 -8.5zM446 158v-6t-2 -8v-1q-17 -37 -49 -58t-70 -21q-7 0 -6.5 -1t-6.5 1q-25 -48 -69 -75t-98 -27q-40 0 -75 16t-60.5 42.5t-40 62t-14.5 74.5
t14.5 74.5t40 62t60.5 42.5t75 16t75 -16t60.5 -42.5t40 -62t14.5 -74.5v-2q9 2 14 8l10 12q8 11 16.5 19t25.5 8q19 0 32 -12.5t13 -31.5z" />
    <glyph glyph-name="ograve" unicode="&#xf2;" horiz-adv-x="400" 
d="M269 400q0 -19 -13 -32t-32 -13q-10 0 -36.5 18.5t-54 43.5t-49 49t-21.5 35q0 19 14.5 32t32.5 13q23 0 37 -18l-2 2q5 -5 8 -9.5t7 -9.5q7 -8 13 -14.5t15 -14.5q18 -15 33 -25q8 -5 15 -11t14 -11q19 -16 19 -35zM145 52q26 0 48.5 13.5t36.5 36.5q-18 19 -28.5 42.5
t-10.5 50.5q0 12 2 25t7 25q-24 18 -55 18q-21 0 -39.5 -9t-31.5 -23.5t-20.5 -33.5t-7.5 -40t7.5 -40t21 -33.5t31.5 -23t39 -8.5zM446 158v-6t-2 -8v-1q-17 -37 -49 -58t-70 -21q-7 0 -6.5 -1t-6.5 1q-25 -48 -69 -75t-98 -27q-40 0 -75 16t-60.5 42.5t-40 62t-14.5 74.5
t14.5 74.5t40 62t60.5 42.5t75 16t75 -16t60.5 -42.5t40 -62t14.5 -74.5v-2q9 2 14 8l10 12q8 11 16.5 19t25.5 8q19 0 32 -12.5t13 -31.5z" />
    <glyph glyph-name="ocircumflex" unicode="&#xf4;" horiz-adv-x="400" 
d="M145 52q26 0 48.5 13.5t36.5 36.5q-18 19 -28.5 42.5t-10.5 50.5q0 11 2 25.5t7 25.5q-23 17 -55 17q-21 0 -39.5 -9t-31.5 -23.5t-20.5 -33.5t-7.5 -40t7.5 -40t20.5 -33.5t31.5 -23t39.5 -8.5zM279 416q0 -19 -13 -32t-32 -13q-8 0 -19 7.5t-22.5 18.5t-23 24t-20.5 24
q-4 4 -4 5q-11 -12 -25 -26t-27.5 -25.5t-24 -19.5t-14.5 -8q-18 0 -32 13t-14 32q0 18 12 31.5t22 22.5q1 0 3 2q23 22 41 46q4 5 9.5 12.5t13 14.5t16.5 12t20 5q14 0 29 -12q9 -8 15.5 -17t13.5 -19q2 -2 5.5 -7t8.5 -10q6 -9 12 -15.5t12 -11.5q6 -6 13.5 -12.5
t13.5 -13.5q5 -5 8 -12.5t3 -15.5zM446 158v-6t-2 -8v-1q-17 -37 -49 -58t-70 -21q-7 0 -6.5 -1t-6.5 1q-25 -48 -69 -75t-98 -27q-40 0 -75 16t-60.5 42.5t-40 62t-14.5 74.5t14.5 74.5t40 62.5t60.5 43t75 16t75 -16t60.5 -43t40 -62.5t14.5 -74.5v-2q9 2 14 8l10 12
q8 11 16.5 19t25.5 8q19 0 32 -12.5t13 -31.5z" />
    <glyph glyph-name="odieresis" unicode="&#xf6;" horiz-adv-x="400" 
d="M145 52q26 0 48.5 13.5t36.5 36.5q-18 18 -28.5 41.5t-10.5 50.5q0 11 2 25.5t7 25.5q-23 17 -55 17q-21 0 -39.5 -9t-31.5 -23.5t-20.5 -33.5t-7.5 -40t7.5 -40t21 -33t31.5 -22.5t39 -8.5zM257 447q0 -29 -20 -48.5t-49 -19.5q-17 0 -32 7.5t-25 20.5
q-9 -13 -23.5 -20.5t-31.5 -7.5q-28 0 -49.5 19.5t-21.5 48.5t21.5 48.5t49.5 19.5q17 0 31.5 -7.5t23.5 -20.5q10 13 25 20.5t32 7.5q29 0 49 -19.5t20 -48.5zM446 157v-6t-2 -8v-1q-17 -37 -49 -57.5t-70 -20.5q-7 0 -6.5 -1t-6.5 1q-25 -48 -69 -75t-98 -27
q-40 0 -75 15.5t-60.5 42.5t-40 62t-14.5 74t14.5 74.5t40 62.5t60.5 43t75 16t75 -16t60.5 -43t40 -62.5t14.5 -74.5v-1q9 2 14 8t10 11q8 11 16.5 19t25.5 8q19 0 32 -12.5t13 -31.5z" />
    <glyph glyph-name="otilde" unicode="&#xf5;" horiz-adv-x="400" 
d="M145 52q26 0 48.5 13.5t36.5 36.5q-18 19 -28.5 42.5t-10.5 50.5q0 12 2 25t7 25q-23 17 -55 17q-21 0 -39.5 -8.5t-31.5 -23t-20.5 -33.5t-7.5 -40t7.5 -40t21 -33.5t31.5 -23t39 -8.5zM333 459q0 -10 -13.5 -25.5t-31.5 -30.5t-35.5 -25.5t-26.5 -10.5q-18 0 -32.5 5.5
t-26 14.5t-20.5 19.5t-16 20.5q-9 8 -10 13q-2 -2 -5 -5.5t-6 -7.5q-12 -14 -24.5 -25.5t-29.5 -11.5q-18 0 -32 13t-14 32q0 10 13.5 27t32 32.5t37 27t28.5 11.5q32 0 51 -16.5t33 -36.5q10 -15 16 -20q3 2 5 4.5t6 5.5v-1q14 12 27.5 23.5t28.5 11.5q19 0 32 -13t13 -32z
M446 158v-6t-2 -8v-1q-17 -37 -49 -58t-70 -21q-7 0 -6.5 -1t-6.5 1q-25 -48 -69 -75t-98 -27q-40 0 -75 16t-60.5 42.5t-40 62t-14.5 74.5t14.5 74.5t40 62t60.5 42.5t75 16t75 -16t60.5 -42.5t40 -62t14.5 -74.5v-2q9 2 14 8l10 12q8 11 16.5 19t25.5 8q19 0 32 -12.5
t13 -31.5z" />
    <glyph glyph-name="udieresis" unicode="&#xfc;" horiz-adv-x="473" 
d="M293 447q0 -29 -20 -48.5t-49 -19.5q-17 0 -32 7.5t-25 20.5q-10 -13 -24.5 -20.5t-31.5 -7.5q-28 0 -49 19.5t-21 48.5t21 48.5t49 19.5q17 0 31.5 -7.5t24.5 -20.5q10 13 25 20.5t32 7.5q29 0 49 -19.5t20 -48.5zM520 155q0 -7 -3 -13v-2q-10 -22 -28 -52.5t-41 -58.5
t-50 -47.5t-56 -19.5q-49 0 -75 34q-19 -16 -41 -25t-48 -9q-32 0 -62.5 10t-54.5 29t-39.5 46t-16.5 62h-4q-18 0 -32 13t-14 32q0 9 7.5 28.5t15.5 39.5q2 6 4.5 12.5t4.5 11.5q3 6 5 12q1 2 2 5.5t3 14.5v-1q4 15 7.5 30t14.5 26q13 13 33 13q21 0 32.5 -15t11.5 -32
v-182q0 -32 26 -49t56 -17q16 0 28 9.5t20 24t12 32t4 33.5v149q0 19 14 32t32 13q19 0 32 -13t13 -32v-202v-14t1 -15t3 -12t5 -5q9 0 19.5 10.5t21 25.5t20 30.5t14.5 24.5q2 4 4 7.5t4 8.5l-2 -3q2 7 5 12t7 11q15 21 39 21q18 0 32 -12.5t14 -31.5z" />
    <glyph glyph-name="AE" unicode="&#xc6;" horiz-adv-x="848" 
d="M475 533q-1 -5 -3 -13q4 2 6 4zM689 479q0 1 -4.5 1.5t-10.5 1t-12 0.5h-10h-12t-12 -1q10 -3 21 -3h10h13q7 0 12 0.5zM402 676q0 6 -1 13.5t-3.5 14.5t-6.5 12t-9 5q-15 0 -22.5 -15.5t-11.5 -37t-4.5 -44t-0.5 -36.5v-80v-30q0 -14 1 -29q5 -2 9 -2t12 -1q2 12 5 25
t5 25q10 45 18.5 89t8.5 91zM562 562q14 4 27 5.5t27 3.5q-4 8 -4 21q0 20 13 32.5t32 12.5q12 0 26.5 4.5t27 13t21 19.5t8.5 24t-10.5 19t-22.5 6q-23 0 -49.5 -10t-49 -26.5t-37.5 -37.5t-15 -43q0 -23 6 -44zM869 164q0 -42 -19.5 -79t-51 -64.5t-71 -43.5t-79.5 -16
q-64 0 -116.5 24.5t-91.5 66t-62.5 96.5t-27.5 116v-1q-1 6 -1 12v15v25v20q0 13 1 21q-3 0 -7 2v-86q0 -55 -5.5 -110t-27 -99.5t-63.5 -72.5t-115 -28q-38 0 -70 14t-56 38t-37.5 56.5t-13.5 69.5q0 29 11 55t30 45.5t45 30.5t55 11q21 0 41 -7.5t35.5 -20.5t24.5 -32
t9 -41q0 -20 -14 -32.5t-32 -12.5q-19 0 -32 12.5t-13 32.5q0 5 -6 8t-13 3q-22 0 -36 -15t-14 -37q0 -37 24 -62.5t62 -25.5q53 0 76.5 23.5t33.5 74.5q8 39 10 78t2 77q0 11 -0.5 21.5t-0.5 21.5q-1 5 -1 10v10q-8 -2 -14.5 -5t-11.5 -6q-8 -5 -15 -8t-15 -3q-18 0 -32 13
t-14 32t14 33q17 16 41.5 26t47.5 12v53q0 9 -0.5 17t-0.5 17q-1 8 -1 19v20q0 30 3.5 69t17 73t39.5 57.5t71 23.5q24 0 43.5 -10.5t33.5 -27.5t22 -37.5t11 -41.5q18 27 44 49.5t55 38t59.5 24t56.5 8.5q24 0 46.5 -7.5t40 -22t27.5 -36.5t10 -50q0 -25 -9 -46.5
t-24.5 -39.5t-36 -31.5t-42.5 -21.5q25 -11 43 -30t18 -50q0 -26 -13.5 -43t-34 -28t-43 -15.5t-40.5 -4.5q-38 0 -70 15t-55 41q-42 -29 -62.5 -74.5t-20.5 -98.5q0 -43 16.5 -82.5t45 -70t66 -48.5t80.5 -18q22 0 45 9t42 24t30.5 35.5t11.5 43.5q0 10 -5.5 18.5
t-13.5 8.5q-17 0 -19.5 -3t-3.5 -5q-4 -14 -10 -22t-27 -8q-23 0 -36.5 17t-13.5 36q0 23 12.5 37.5t29.5 23t36 11.5t32 3q23 0 43 -9.5t35 -26t23.5 -37.5t8.5 -44z" />
    <glyph glyph-name="Oslash" unicode="&#xd8;" horiz-adv-x="468" 
d="M305 687q-31 31 -71 31q-35 0 -61 -20.5t-42.5 -51.5t-24.5 -67t-8 -67v-254q0 -37 9 -71zM371 512q0 19 -2 37t-7 35q-49 -124 -99 -250l-100 -252q30 -30 71 -30q34 0 60 20.5t43 51.5t25.5 67t8.5 67v254zM462 258q0 -48 -14 -100.5t-42.5 -96t-71.5 -71.5t-100 -28
q-59 0 -106 32q-6 -13 -16.5 -22.5t-27.5 -9.5q-19 0 -32 13t-13 32q0 7 7 26.5t13 34.5q-26 43 -39 92t-13 98v254q0 48 14 100t42 95.5t71 72t100 28.5q58 0 107 -34q7 9 17 17t23 8q17 0 32 -11.5t15 -32.5q0 -7 -6 -24t-12 -31q26 -43 39 -91t13 -97v-254z" />
    <glyph glyph-name="multiply" unicode="&#xd7;" horiz-adv-x="749" 
d="M557 221q0 -19 -14 -32t-32 -13q-19 0 -32 13h1q-15 14 -28 26t-25 24t-25 24t-28 26q-26 -25 -52.5 -50.5t-52.5 -49.5h1q-13 -13 -32 -13t-32 13t-13 32t12 31l104 99q-25 23 -52.5 49t-51.5 49q-12 12 -12 31t13 32t32 13t32 -13h-1q15 -14 27.5 -26l25 -24l25 -24
t27.5 -26q26 25 53 50.5t53 49.5h-1q13 13 32 13q18 0 32 -13t14 -32q0 -16 -15 -31l-102 -98q26 -25 51 -50t51 -49q15 -15 15 -31z" />
    <glyph glyph-name="Agrave" unicode="&#xc0;" horiz-adv-x="733" 
d="M368 618q0 9 -0.5 26.5t-2 35t-5.5 30.5t-11 13q-12 0 -20 -12.5t-12.5 -30t-6 -36t-1.5 -30.5q0 -19 -0.5 -38.5t-1.5 -39.5q0 -10 -0.5 -16l-1 -12t-0.5 -12v-16q10 -2 19.5 -5.5t19.5 -5.5l16 -5q4 39 6 77.5t2 76.5zM458 809q0 -14 -7.5 -25t-18.5 -17
q10 -17 15.5 -38t8 -42t3 -41t0.5 -36q0 -41 -3 -81l-6 -80v-1h1q9 0 16.5 6t14.5 11h-1q9 8 18 14t23 6q19 0 32 -14t13 -32q0 -19 -13 -32q-20 -20 -46 -34.5t-57 -14.5q-3 0 -4 -0.5t0 -0.5q-1 0 -2 0.5t-3 0.5q-2 -23 -2 -45v-45q0 -27 1.5 -64t10 -71t27 -57.5
t52.5 -23.5q22 0 41.5 9.5t33 25t21.5 36t8 42.5q0 10 -5.5 18t-14.5 8q-2 0 -2 -5q-5 -15 -12 -27t-33 -12q-18 0 -32 12.5t-14 32.5q0 19 7.5 35.5t20.5 28.5t30 19t35 7q24 0 44.5 -9.5t35.5 -26t23 -37.5t8 -44q0 -41 -15 -77.5t-41 -64.5t-61.5 -44.5t-77.5 -16.5
q-43 0 -73 15t-50 40t-32 57.5t-18 67.5t-7.5 69.5t-1.5 63.5q0 26 1 49t3 49q-5 2 -11 3.5t-11 3.5h-1q-7 2 -9 3l-3 1.5t-4 0.5q-2 0 -9 2v-60q0 -62 -6 -126.5t-29 -117.5t-68.5 -87t-124.5 -34q-19 0 -40.5 5t-39.5 16.5t-30 29t-12 41.5q0 35 26 59t60 24q45 0 45 -45
q0 -17 -6.5 -26t-15.5 -14h13q49 0 76.5 26.5t41 66t16.5 86t3 85.5v80q-11 -4 -24 -11q-7 -5 -13 -8t-16 -3q-18 0 -32 14t-14 32q0 19 14 33q17 16 39.5 25t45.5 11q0 12 0.5 25.5t1.5 25.5q1 19 1.5 36.5t0.5 37.5q0 26 6 59t19.5 63t36.5 52t58 25q-16 14 -31.5 29
t-27.5 28.5t-19.5 24t-7.5 16.5q0 19 14.5 32t32.5 13q10 0 15.5 -1t11.5 -7q1 -2 10 -12t13 -15q7 -8 13.5 -15t14.5 -14t19 -15l22 -16q5 -4 10.5 -8.5t10.5 -8.5q19 -16 19 -35z" />
    <glyph glyph-name="Atilde" unicode="&#xc3;" horiz-adv-x="733" 
d="M368 618q0 9 -0.5 26.5t-2 35t-5.5 30.5t-11 13q-12 0 -20 -12.5t-12.5 -30t-6 -36t-1.5 -30.5q0 -19 -0.5 -38.5t-1.5 -39.5q0 -10 -0.5 -16l-1 -12t-0.5 -12v-16q10 -2 19.5 -5.5t19.5 -5.5l16 -5q4 39 6 77.5t2 76.5zM510 877q0 -9 -10.5 -22t-25 -26t-31 -24.5
t-28.5 -16.5q16 -16 25 -38.5t13 -47.5t5 -49t1 -43q0 -41 -3 -81l-6 -80v-1h1q9 0 16.5 6t14.5 11h-1q9 8 18 14t23 6q19 0 32 -14t13 -32q0 -19 -13 -32q-20 -20 -46 -34.5t-57 -14.5q-3 0 -4 -0.5t0 -0.5q-1 0 -2 0.5t-3 0.5q-2 -23 -2 -45v-45q0 -27 1.5 -64t10 -71
t27 -57.5t52.5 -23.5q22 0 41.5 9.5t33 25t21.5 36t8 42.5q0 10 -5.5 18t-14.5 8q-2 0 -2 -5q-5 -15 -12 -27t-33 -12q-18 0 -32 12.5t-14 32.5q0 19 7.5 35.5t20.5 28.5t30 19t35 7q24 0 44.5 -9.5t35.5 -26t23 -37.5t8 -44q0 -41 -15 -77.5t-41 -64.5t-61.5 -44.5
t-77.5 -16.5q-43 0 -73 15t-50.5 40t-32 57.5t-17.5 67t-7.5 69.5t-1.5 64q0 26 1 49t3 49q-5 2 -11 3.5t-11 3.5h-1q-7 2 -9 3l-3 1.5t-4 0.5q-2 0 -9 2v-60q0 -62 -6 -126.5t-29 -117.5t-68.5 -87t-124.5 -34q-19 0 -40.5 5t-39.5 16.5t-30 29t-12 41.5q0 18 7 33t19 26
t27.5 17.5t32.5 6.5q45 0 45 -45q0 -17 -6.5 -26t-15.5 -14h13q49 0 76.5 26.5t41 66t16.5 86t3 85.5v80q-13 -4 -23 -11q-8 -5 -13.5 -8t-16.5 -3q-18 0 -32 14t-14 32q0 14 4.5 20.5t10.5 12.5q37 34 84 37q0 13 0.5 25t1.5 25q1 19 1.5 36.5t0.5 37.5q0 26 5.5 58.5
t19 62.5t36 51.5t55.5 26.5q-8 8 -15 16t-12 16q-3 4 -5.5 7.5t-4.5 6.5q-2 -2 -4.5 -5.5t-5.5 -7.5q-12 -14 -24.5 -26t-29.5 -12q-18 0 -32.5 14t-14.5 32q0 10 13.5 27t32 32.5t37 27t28.5 11.5q32 0 51 -16.5t33 -36.5q10 -15 16 -20q3 2 5 4.5t6 5.5q15 11 26 22.5
t31 11.5q19 0 32 -14t13 -32z" />
    <glyph glyph-name="Otilde" unicode="&#xd5;" horiz-adv-x="659" 
d="M121 566q0 38 9 73q-23 -25 -39 -56t-26 -64.5t-14.5 -68.5t-4.5 -68q0 -60 15.5 -119t47 -106t80 -76t115.5 -29q64 0 112 31.5t79.5 80.5t47 109t15.5 117q0 46 -13.5 102.5t-40.5 105.5t-67 82.5t-94 33.5q-32 0 -56 -12t-41 -32t-25.5 -47t-8.5 -57q0 -8 4.5 -15
t11.5 -7q4 0 7 5t5 12.5t2.5 16t0.5 14.5q0 20 14 32.5t32 12.5q19 0 32 -12.5t13 -32.5q0 -21 -6.5 -45.5t-19.5 -45t-33 -34t-47 -13.5q-24 0 -43.5 9.5t-33.5 25t-22 36t-8 41.5zM473 880q0 -7 -7.5 -18t-19.5 -22.5t-26 -22.5t-26 -18q63 -14 111 -58t80 -103t48.5 -125
t16.5 -123q0 -75 -22 -151.5t-65.5 -138t-108 -100t-150.5 -38.5q-89 0 -154.5 36.5t-108.5 95.5t-64.5 134.5t-21.5 153.5q0 59 10.5 115.5t33.5 106.5t60 92.5t91 73.5l-1 -1q10 7 25 7q10 0 18 -4.5t14 -11.5q23 17 50 28.5t59 14.5q-14 10 -25.5 22t-19.5 23
q-3 4 -5.5 7t-4.5 5q-4 -6 -10 -12q-12 -14 -24.5 -26t-29.5 -12q-18 0 -32 14t-14 32q0 10 13.5 27t31.5 32.5t36.5 27t28.5 11.5q33 0 51 -16.5t32 -36.5q5 -7 9 -12.5t8 -7.5q4 4 12 10v-1q14 12 27.5 23.5t28.5 11.5q19 0 32 -13t13 -32z" />
    <glyph glyph-name="divide" unicode="&#xf7;" horiz-adv-x="474" 
d="M278 34q0 -27 -21 -48t-48 -21t-48 21t-21 48q0 29 20 49t49 20t49 -20t20 -49zM277 327q0 -28 -20 -49t-49 -21q-28 0 -49 21t-21 49q0 27 21.5 47.5t48.5 20.5t48 -20.5t21 -47.5zM398 181q0 -23 -16 -39t-39 -16h-271q-23 0 -39 16t-16 39t16 39t39 16h271
q23 0 39 -16t16 -39z" />
    <glyph glyph-name="perthousand" unicode="&#x2030;" horiz-adv-x="872" 
d="M763 110q0 20 -13.5 34t-33.5 14t-34 -14t-14 -34q0 -21 13 -40t35 -19t34.5 19t12.5 40zM187 676q0 20 -14 34t-34 14t-34 -14t-14 -34q0 -22 13 -40t35 -18t35 18t13 40zM497 110q0 20 -14 34t-34 14t-34 -14t-14 -34q0 -21 13 -40t35 -19t35 19t13 40zM278 676
q0 -29 -10 -56t-28.5 -47.5t-44 -33t-56.5 -12.5t-56.5 12.5t-44 33t-28.5 47.5t-10 56q0 27 11.5 52t30.5 44t44.5 30.5t52.5 11.5q28 0 53.5 -11t44.5 -30t30 -44t11 -53zM493 767q0 -6 -15.5 -47t-40 -102.5t-54.5 -135.5t-59 -145q-19 -47 -37.5 -92.5t-33.5 -83
t-26 -64.5t-15 -38l1 1q-2 -5 -3.5 -9.5t-3.5 -9.5q-5 -15 -10.5 -29.5t-13.5 -28.5v1q-14 -26 -41 -26q-19 0 -32 13t-13 32q0 6 15.5 48t40 104t55 136.5t59.5 145.5q18 45 36.5 89.5t33.5 82t25.5 64.5t14.5 38l-1 -1q2 5 3.5 9.5t3.5 9.5q5 15 10.5 29.5t13.5 28.5v-1
q14 26 41 26q18 0 32 -13t14 -32zM854 110q0 -29 -10 -56t-28 -47.5t-43.5 -33t-56.5 -12.5q-51 0 -86.5 31t-47.5 76q-12 -45 -47 -76t-86 -31q-31 0 -56.5 12.5t-44 33t-28.5 47.5t-10 56q0 27 11.5 52.5t30.5 44.5t44.5 30.5t52.5 11.5q48 0 84 -28.5t49 -72.5
q7 21 20 39.5t31 32t39 21.5t44 8q28 0 53 -11t44 -30t30 -44.5t11 -53.5z" />
    <glyph glyph-name="Idieresis" unicode="&#xcf;" horiz-adv-x="380" 
d="M305 773q1 1 1 2h-4h-2q4 -2 5 -2zM249 800q-1 1 -1.5 2t-1.5 2l-2 -2q2 -2 5 -2zM371 845q0 -9 -2.5 -17.5t-6.5 -16.5q17 5 33 5q15 0 33 -4.5t33.5 -14t26 -24.5t10.5 -35q0 -21 -10 -36t-25.5 -24.5t-33.5 -14t-34 -4.5q-20 0 -43 5q-6 -26 -9 -56t-3 -54v-76t1 -76
q0 -38 0.5 -76t0.5 -76q0 -53 -9.5 -104.5t-34 -92t-66.5 -66t-106 -25.5q-19 0 -40.5 5t-39.5 16.5t-30 29t-12 41.5q0 18 7 33t19 26t27.5 17.5t32.5 6.5q45 0 45 -45q0 -18 -7 -26.5t-16 -13.5h14q39 0 63 18.5t38 47t19 63.5t5 69q0 38 -0.5 76t-0.5 76q-1 34 -1 76v76
q0 35 3 70t12 68q-11 5 -24 11t-25 11t-22.5 8.5t-16.5 3.5q-20 0 -42.5 -5t-42 -15.5t-32.5 -26.5t-13 -38q0 -20 12 -37.5t32 -17.5q14 0 25.5 7.5t11.5 20.5q0 20 14 32.5t32 12.5q19 0 32 -12.5t13 -32.5q0 -27 -10.5 -48.5t-28.5 -37t-41 -24t-48 -8.5q-30 0 -54.5 12
t-42.5 32.5t-28 46.5t-10 54q0 37 15 66t39.5 50.5t55.5 35t63 19.5q-9 15 -9 33q0 29 21.5 49t49.5 20q35 0 56 -29q21 29 56 29q29 0 49 -20t20 -49z" />
    <glyph glyph-name="Igrave" unicode="&#xcc;" horiz-adv-x="380" 
d="M334 809q0 -2 -0.5 -4.5t-0.5 -4.5q27 16 62 16q15 0 33 -4.5t33.5 -13.5t26 -23.5t10.5 -35.5t-10 -36t-25.5 -24.5t-33.5 -14t-34 -4.5q-11 0 -21.5 0.5t-21.5 2.5q-6 -26 -9 -55.5t-3 -53.5v-76t1 -76q0 -38 0.5 -76t0.5 -76q0 -53 -9.5 -104.5t-34 -92t-66.5 -66
t-106 -25.5q-19 0 -40.5 5t-39.5 16.5t-30 29t-12 41.5q0 18 7 33t19 26t27.5 17.5t32.5 6.5q45 0 45 -45q0 -18 -7 -26.5t-16 -13.5h14q39 0 63 18.5t38 47t19 63.5t5 69q0 38 -0.5 76t-0.5 76q-1 34 -1 76v76q0 35 3 70.5t12 68.5q-11 5 -24 11t-25 11t-22.5 8.5
t-16.5 3.5q-20 0 -42.5 -5.5t-42 -16t-32.5 -26.5t-13 -38q0 -19 12 -36.5t32 -17.5q14 0 25.5 7.5t11.5 20.5q0 20 13 32.5t33 12.5q45 0 45 -45q0 -27 -10.5 -48.5t-28.5 -37t-41 -24t-48 -8.5q-30 0 -55 12t-42.5 32t-27.5 46t-10 54q0 44 20.5 77t53 55t71.5 33t76 11
q11 0 22 -2t22 -5q-17 14 -33 29.5t-29.5 30t-21.5 25.5t-8 16q0 19 14.5 32t32.5 13q22 0 35 -16h-1q4 -5 7.5 -8.5t7.5 -8.5q7 -8 14 -15.5t16 -15.5q6 -5 14 -11l16 -12t16.5 -12t16.5 -12q17 -14 17 -36z" />
    <glyph glyph-name="icircumflex" unicode="&#xee;" horiz-adv-x="249" 
d="M186 416q0 -19 -14 -32t-32 -13q-8 0 -19 7.5t-22.5 18.5t-23 24t-20.5 24q-4 4 -4 5q-11 -12 -25 -26t-27.5 -25.5t-24 -19.5t-14.5 -8q-19 0 -32 13t-13 32q0 18 12 31.5t22 22.5q1 0 3 2q24 23 44 50v1q8 12 22 25.5t33 13.5q14 0 29 -12q10 -9 16.5 -18t13.5 -17
q3 -4 6.5 -8.5t7.5 -9.5q5 -8 12 -14.5t13 -12.5l12.5 -12.5t12.5 -13.5q12 -14 12 -28zM295 158v-6q0 -3 -2 -8v5v-4q-10 -27 -28 -59t-42.5 -59.5t-54.5 -46t-64 -18.5q-32 0 -51 14t-29.5 35.5t-14.5 48t-4 52.5h-5q-19 0 -32 13t-13 32q0 8 7 27t15 39v-1q5 12 9 23
t6 19q1 2 2.5 8.5t3.5 14.5q4 15 7.5 28.5t12.5 22.5q14 14 32 14q20 0 33 -15t13 -32l-1 -206v-14t1 -15.5t3 -12.5t5 -5q13 0 25 8t22.5 20t19 26t14.5 26q5 9 6.5 12.5t3.5 6.5q3 8 6.5 15.5t9.5 15.5q15 20 37 20q17 0 32 -12.5t15 -31.5z" />
    <glyph glyph-name="Ocircumflex" unicode="&#xd4;" horiz-adv-x="659" 
d="M206 760q26 20 57 31.5t69 13.5q-9 10 -17.5 21t-16.5 21v-1l-4 4q-11 -12 -25 -26t-27 -26t-24 -20t-15 -8q-7 0 -11 1q5 -2 8 -5zM121 566q0 38 9 73q-23 -25 -39 -56t-26 -64.5t-14.5 -68.5t-4.5 -68q0 -60 15.5 -119t47 -106t80 -76t115.5 -29q64 0 112 31.5
t79.5 80.5t47 109t15.5 117q0 46 -13.5 102.5t-40.5 105.5t-67 82.5t-94 33.5q-32 0 -56 -12t-41 -32t-25.5 -47t-8.5 -57q0 -8 4.5 -15t11.5 -7q4 0 7 5t5 12.5t2.5 16t0.5 14.5q0 20 14 32.5t32 12.5q19 0 32 -12.5t13 -32.5q0 -21 -6.5 -45.5t-19.5 -45t-33 -34
t-47 -13.5q-24 0 -43.5 9.5t-33.5 25t-22 36t-8 41.5zM428 815q0 -12 -7 -24q56 -20 99 -65t72 -101.5t43.5 -118.5t14.5 -116q0 -75 -22 -151.5t-65.5 -138t-108 -100t-150.5 -38.5q-89 0 -154.5 36.5t-108.5 95.5t-64.5 134.5t-21.5 153.5q0 59 10.5 115.5t33.5 106.5
t60 92.5t91 73.5l-1 -1q10 7 25 7q5 0 7 -1q-11 6 -17.5 16.5t-6.5 23.5q0 10 4.5 18.5t10.5 16t12.5 13.5t10.5 10v-1q11 10 20 21t19 25q4 6 10 13.5t13.5 14.5t16.5 12t20 5q14 0 29 -12q10 -8 16.5 -16.5t12.5 -18.5q4 -5 6.5 -9.5t7.5 -9.5q6 -9 12 -15.5t12 -11.5
q6 -6 13.5 -12.5t13.5 -13.5q5 -5 8 -12.5t3 -16.5z" />
    <glyph glyph-name="Ograve" unicode="&#xd2;" horiz-adv-x="659" 
d="M121 566q0 38 9 73q-23 -25 -39 -56t-26 -64.5t-14.5 -68.5t-4.5 -68q0 -60 15.5 -119t47 -106t80 -76t115.5 -29q64 0 112 31.5t79.5 80.5t47 109t15.5 117q0 46 -13.5 102.5t-40.5 105.5t-67 82.5t-94 33.5q-32 0 -56 -12t-41 -32t-25.5 -47t-8.5 -57q0 -8 4.5 -15
t11.5 -7q4 0 7 5t5 12.5t2.5 16t0.5 14.5q0 20 14 32.5t32 12.5q19 0 32 -12.5t13 -32.5q0 -21 -6.5 -45.5t-19.5 -45t-33 -34t-47 -13.5q-24 0 -43.5 9.5t-33.5 25t-22 36t-8 41.5zM420 809q0 -9 -3 -16q57 -20 101 -64.5t73 -101.5t44 -119.5t15 -117.5q0 -75 -22 -151.5
t-65.5 -138t-108 -100t-150.5 -38.5q-89 0 -154.5 36.5t-108.5 95.5t-64.5 134.5t-21.5 153.5q0 59 10.5 115.5t33.5 106.5t60 92.5t91 73.5l-1 -1q10 7 25 7q10 0 18 -4.5t14 -11.5q45 36 106 43q-17 14 -34.5 30.5t-31.5 31.5t-23 27.5t-9 18.5q0 19 14 32t32 13
q22 0 35 -16h-1q4 -5 7.5 -8.5t7.5 -8.5q7 -8 14 -15.5t16 -15.5q8 -7 19 -15l22 -16q5 -4 10.5 -8.5t10.5 -8.5q19 -16 19 -35z" />
    <glyph glyph-name="Uacute" unicode="&#xda;" horiz-adv-x="929" 
d="M496 911q0 -7 -10 -20t-25.5 -29.5t-34.5 -34t-36.5 -32t-32 -23.5t-21.5 -9q-18 0 -32 14t-14 32q0 20 18 35q5 4 9.5 7.5t9.5 7.5q18 14 33 25t31 28q4 6 9 11l-1 -1q5 7 8.5 11t8.5 9q14 14 35 14q19 0 32 -13t13 -32zM170 595q7 0 15 -3v34q0 13 -2.5 29.5t-8.5 31.5
t-15.5 25t-23.5 10q-22 0 -38.5 -14t-28 -34.5t-17 -44.5t-5.5 -43q0 -13 2 -31.5t7.5 -35t14 -28.5t22.5 -12q10 0 16 7.5t10 18t5.5 23t1.5 22.5q0 20 13 32.5t32 12.5zM922 164q0 -41 -15 -77.5t-41 -64t-61.5 -44t-76.5 -16.5q-49 0 -89.5 22t-66.5 60
q-29 -40 -71.5 -61t-95.5 -21q-51 0 -91.5 22t-69 58t-44 81t-15.5 90v226q-15 -22 -38 -36t-55 -14q-39 0 -65 20t-42 49.5t-23 64t-7 63.5q0 37 12 77t35 73t56.5 54.5t76.5 21.5q38 0 64.5 -18t43.5 -45t25 -60t8 -63v-413q0 -28 9 -56.5t25.5 -52t40.5 -38t54 -14.5
t54 13t40.5 34t25.5 48t9 55v567q0 20 14 32.5t32 12.5q19 0 32 -12.5t13 -32.5v-605q0 -21 8 -41.5t21.5 -36t32.5 -25t41 -9.5t41 9t33 24.5t21.5 36t7.5 42.5q0 10 -5.5 18.5t-14.5 8.5q-2 0 -2 -5q-5 -15 -12 -27t-33 -12q-18 0 -32 12.5t-14 32.5q0 19 7.5 35.5
t20.5 28.5t30 18.5t35 6.5q24 0 44.5 -9.5t35.5 -26t23 -37.5t8 -44z" />
    <glyph glyph-name="Ucircumflex" unicode="&#xdb;" horiz-adv-x="929" 
d="M170 595q7 0 15 -3v34q0 13 -2.5 29.5t-8.5 31.5t-15.5 25t-23.5 10q-22 0 -38.5 -14t-28 -34.5t-17 -44.5t-5.5 -43q0 -13 2 -31.5t7.5 -35t14 -28.5t22.5 -12q10 0 16 7.5t10 18t5.5 23t1.5 22.5q0 20 13 32.5t32 12.5zM519 815q0 -19 -13 -32t-32 -13q-10 0 -21 7.5
t-22 19t-22 25t-20 25.5v-1l-4 4q-11 -12 -25 -26t-27 -26t-24 -20t-15 -8q-18 0 -32 13t-14 32q0 10 4.5 18.5t10.5 16t12.5 13.5t10.5 10v-1q11 10 20 21t19 25q4 6 10 13.5t13.5 14.5t16.5 12t20 5q14 0 29 -12q10 -8 16.5 -16.5t12.5 -18.5q4 -5 6.5 -9.5t7.5 -9.5
q6 -9 12 -15.5t12 -11.5q6 -6 13.5 -12.5t13.5 -13.5q5 -5 8 -12.5t3 -16.5zM922 164q0 -41 -15 -77.5t-41 -64t-61.5 -44t-76.5 -16.5q-49 0 -89.5 22t-66.5 60q-29 -40 -71.5 -61t-95.5 -21q-51 0 -91.5 22t-69 58t-44 81t-15.5 90v226q-15 -22 -38 -36t-55 -14
q-39 0 -65 20t-42 49.5t-23 64t-7 63.5q0 37 12 77t35 73t56.5 54.5t76.5 21.5q38 0 64.5 -18t43.5 -45t25 -60t8 -63v-413q0 -28 9 -56.5t25.5 -52t40.5 -38t54 -14.5t54 13t40.5 34t25.5 48t9 55v567q0 20 14 32.5t32 12.5q19 0 32 -12.5t13 -32.5v-605q0 -21 8 -41.5
t21.5 -36t32.5 -25t41 -9.5t41 9t33 24.5t21.5 36t7.5 42.5q0 10 -5.5 18.5t-14.5 8.5q-2 0 -2 -5q-5 -15 -12 -27t-33 -12q-18 0 -32 12.5t-14 32.5q0 19 7.5 35.5t20.5 28.5t30 18.5t35 6.5q24 0 44.5 -9.5t35.5 -26t23 -37.5t8 -44z" />
    <glyph glyph-name="ugrave" unicode="&#xf9;" horiz-adv-x="473" 
d="M269 400q0 -19 -13 -32t-32 -13q-10 0 -36.5 18.5t-54 43.5t-49 49t-21.5 35q0 19 14.5 32t32.5 13q23 0 37 -18l-2 2q5 -5 8 -9.5t7 -9.5q7 -8 13 -14.5t15 -14.5q18 -15 33 -25q8 -5 15 -11t14 -11q19 -16 19 -35zM520 155q0 -7 -3 -13v-2q-10 -22 -28 -52.5t-41 -58.5
t-50 -47.5t-56 -19.5q-49 0 -75 34q-19 -16 -41 -25t-48 -9q-32 0 -62.5 10t-54.5 29t-39.5 46t-16.5 62h-4q-18 0 -32 13t-14 32q0 9 7.5 28.5t15.5 39.5q2 6 4.5 12.5t4.5 11.5q3 6 5 12q1 2 2 5.5t3 14.5v-1q4 15 7.5 30t14.5 26q13 13 33 13q21 0 32.5 -15t11.5 -32
v-182q0 -32 26 -49t56 -17q16 0 28 9.5t20 24t12 32t4 33.5v149q0 19 14 32t32 13q19 0 32 -13t13 -32v-202v-14t1 -15t3 -12t5 -5q9 0 19.5 10.5t21 25.5t20 30.5t14.5 24.5q2 4 4 7.5t4 8.5l-2 -3q2 7 5 12t7 11q15 21 39 21q18 0 32 -12.5t14 -31.5z" />
    <glyph glyph-name="ucircumflex" unicode="&#xfb;" horiz-adv-x="473" 
d="M300 416q0 -19 -13 -32t-32 -13q-8 0 -19 7.5t-22.5 18.5t-23 24t-20.5 24q-4 4 -4 5q-11 -12 -25 -26t-27.5 -25.5t-24 -19.5t-14.5 -8q-18 0 -32 13t-14 32q0 18 12 31.5t22 22.5q1 0 3 2q23 22 41 46q4 5 9.5 12.5t13 14.5t16.5 12t20 5q14 0 29 -12q9 -8 15.5 -17
t13.5 -19q2 -2 5.5 -7t8.5 -10q6 -9 12 -15.5t12 -11.5q6 -6 13.5 -12.5t13.5 -13.5q5 -5 8 -12.5t3 -15.5zM520 155q0 -7 -3 -13v-2q-10 -22 -28 -52.5t-41 -58.5t-50 -47.5t-56 -19.5q-49 0 -75 34q-19 -16 -41 -25t-48 -9q-32 0 -62.5 10t-54.5 29t-39.5 46t-16.5 62h-4
q-18 0 -32 13t-14 32q0 9 7.5 28.5t15.5 39.5q2 6 4.5 12.5t4.5 11.5q3 6 5 12q1 2 2 5.5t3 14.5v-1q4 15 7.5 30t14.5 26q13 13 33 13q21 0 32.5 -15t11.5 -32v-182q0 -32 26 -49t56 -17q16 0 28 9.5t20 24t12 32t4 33.5v149q0 19 14 32t32 13q19 0 32 -13t13 -32v-202v-14
t1 -15t3 -12t5 -5q9 0 19.5 10.5t21 25.5t20 30.5t14.5 24.5q2 4 4 7.5t4 8.5l-2 -3q2 7 5 12t7 11q15 21 39 21q18 0 32 -12.5t14 -31.5z" />
    <glyph glyph-name="uacute" unicode="&#xfa;" horiz-adv-x="473" 
d="M265 504q0 -6 -10 -19.5t-25.5 -29.5t-34.5 -33.5t-36.5 -31.5t-32 -23t-21.5 -9q-18 0 -32 13t-14 32q0 20 18 35l24 18q17 13 32.5 25t28.5 26q3 3 5.5 7t5.5 7l4.5 4.5t5.5 6.5q14 17 36 17q18 0 32 -13t14 -32zM520 155q0 -7 -3 -13v-2q-10 -22 -28 -52.5t-41 -58.5
t-50 -47.5t-56 -19.5q-49 0 -75 34q-19 -16 -41 -25t-48 -9q-32 0 -62.5 10t-54.5 29t-39.5 46t-16.5 62h-4q-18 0 -32 13t-14 32q0 9 7.5 28.5t15.5 39.5q2 6 4.5 12.5t4.5 11.5q3 6 5 12q1 2 2 5.5t3 14.5v-1q4 15 7.5 30t14.5 26q13 13 33 13q21 0 32.5 -15t11.5 -32
v-182q0 -32 26 -49t56 -17q16 0 28 9.5t20 24t12 32t4 33.5v149q0 19 14 32t32 13q19 0 32 -13t13 -32v-202v-14t1 -15t3 -12t5 -5q9 0 19.5 10.5t21 25.5t20 30.5t14.5 24.5q2 4 4 7.5t4 8.5l-2 -3q2 7 5 12t7 11q15 21 39 21q18 0 32 -12.5t14 -31.5z" />
    <glyph glyph-name="Z" unicode="Z" horiz-adv-x="645" 
d="M678 140q0 -3 -2 -11v-3q-14 -35 -37 -65.5t-51.5 -53t-61 -35.5t-66.5 -13q-64 0 -127 18t-121 38q-5 2 -8 3t-5.5 1.5t-5.5 1.5l-9 3q-20 -24 -49.5 -44.5t-60.5 -20.5q-17 0 -37.5 5t-38.5 16t-30.5 29t-12.5 44q0 27 12 45t30 29t38.5 15.5t37.5 4.5q20 0 38 -3
t35 -8q11 20 20.5 42t19.5 45q8 20 17 40.5t19 39.5v-1q11 21 20 42.5t19 42.5q3 7 6.5 13.5t6.5 13.5q-8 -1 -15.5 -4t-13.5 -6q-8 -3 -9.5 -5.5t-15.5 -2.5q-19 0 -32 13t-13 33q0 15 13 28t30 22t35 14.5t27 5.5t18 -1t19 -4q18 40 34 78.5t33 80.5q6 14 12 29l12 30
q3 9 5 14t3.5 9.5t4 10t6.5 14.5q-43 10 -84.5 20.5t-84.5 21.5l2 -1q-5 1 -11 2.5t-13 3.5q-9 2 -17.5 4t-17.5 2q-20 0 -43 -6t-42 -18.5t-31.5 -31.5t-12.5 -45q0 -23 12 -44t31 -21q14 0 26 9.5t12 26.5q0 21 13 34t32 13q18 0 32 -13t14 -34q0 -30 -11 -54t-29.5 -41
t-41.5 -26.5t-47 -9.5q-30 0 -54.5 13.5t-42 36t-27.5 51t-10 59.5q0 48 21 85t53 62t71 37.5t75 12.5q35 0 68.5 -8t65.5 -18q12 -4 25.5 -8t25.5 -7q26 -7 41.5 -11t41.5 -10q19 27 44.5 43.5t59.5 16.5q15 0 33.5 -4.5t34 -14.5t26 -26.5t10.5 -39.5q0 -22 -10.5 -38
t-26 -26.5t-33.5 -15.5t-34 -5q-14 0 -26.5 0.5t-28.5 3.5q-7 -16 -14 -35.5t-15 -38.5q-5 -13 -10.5 -26t-10.5 -26v1q-9 -23 -17 -42.5t-15.5 -38.5t-16 -38t-18.5 -41q16 -6 32 -6q5 0 14 3h2q0 1 1.5 1.5t6 1t16.5 0.5q19 0 32 -13.5t13 -33.5q0 -16 -10.5 -26.5
t-24.5 -17t-28 -9.5t-22 -3q-20 0 -37 5t-34 13q-3 -7 -6 -13.5t-6 -12.5h1q-12 -26 -24.5 -51t-24.5 -50q-10 -20 -18 -38.5t-17 -38.5q-8 -18 -16 -36.5t-17 -36.5q57 -21 111.5 -36.5t114.5 -15.5q33 0 63 20.5t50 52.5l-1 -3q2 5 5 9t5 9q3 7 6 13t5 8v-1q8 11 15.5 18
t23.5 7q18 0 32 -14.5t14 -33.5z" />
    <glyph glyph-name="Aacute" unicode="&#xc1;" horiz-adv-x="733" 
d="M368 618q0 9 -0.5 26.5t-2 35t-5.5 30.5t-11 13q-12 0 -20 -12.5t-12.5 -30t-6 -36t-1.5 -30.5q0 -19 -0.5 -38.5t-1.5 -39.5q0 -10 -0.5 -16l-1 -12t-0.5 -12v-16q10 -2 19.5 -5.5t19.5 -5.5l16 -5q4 39 6 77.5t2 76.5zM446 911q0 -6 -7.5 -16.5t-19.5 -24t-27.5 -28.5
t-31.5 -29q37 -3 57 -26t29.5 -54.5t11 -65t1.5 -57.5q0 -41 -3 -81l-6 -80v-1h1q9 0 16.5 6t14.5 11h-1q9 8 18 14t23 6q19 0 32 -14t13 -32q0 -19 -13 -32q-20 -20 -46 -34.5t-57 -14.5h-4v0q1 0 0 0h-5q-2 -23 -2 -45v-45q0 -27 1.5 -64t10 -71t27 -57.5t52.5 -23.5
q22 0 41.5 9.5t33 25t21.5 36t8 42.5q0 10 -5.5 18t-14.5 8q-2 0 -2 -5q-5 -15 -12 -27t-33 -12q-18 0 -32 12.5t-14 32.5q0 19 7.5 35.5t20.5 28.5t30 19t35 7q24 0 44.5 -9.5t35.5 -26t23 -37.5t8 -44q0 -41 -15 -77.5t-41 -64.5t-61.5 -44.5t-77.5 -16.5q-43 0 -73 15
t-50.5 40t-32 57.5t-17.5 67t-7.5 69.5t-1.5 64q0 26 1 49t3 49q-5 2 -11 3.5t-11 3.5h-1q-7 2 -9 3l-3 1.5t-4 0.5q-2 0 -9 2v-60q0 -62 -6 -126.5t-29 -117.5t-68.5 -87t-124.5 -34q-19 0 -40.5 5t-39.5 16.5t-30 29t-12 41.5q0 18 7 33t19 26t27.5 17.5t32.5 6.5
q45 0 45 -45q0 -17 -6.5 -26t-15.5 -14h13q49 0 76.5 26.5t41 66t16.5 86t3 85.5v80q-13 -4 -23 -11q-8 -5 -13.5 -8t-16.5 -3q-18 0 -32 14t-14 32q0 14 4.5 20.5t10.5 12.5q37 34 84 37q0 13 0.5 25t1.5 25q1 19 1.5 36.5t0.5 37.5q0 17 2.5 37t7.5 41t14 41t21 36
q-23 15 -23 40q0 20 18 35q5 4 9.5 7.5t9.5 7.5q18 14 33 25t31 28q2 4 6 8q9 12 22 24t31 12t32 -13t14 -32z" />
    <glyph glyph-name="Edieresis" unicode="&#xcb;" horiz-adv-x="521" 
d="M220 767q5 3 8.5 6t8.5 5q-8 -3 -18 -3q0 -2 0.5 -3t0.5 -3v-2zM255 788q5 2 11 4.5t11 4.5q-2 3 -6 7q-6 -10 -16 -16zM116 610q2 32 16 60.5t37 53.5q-15 -1 -36 -6.5t-40.5 -14.5t-33 -21t-13.5 -25q0 -10 6.5 -17.5t16.5 -13t22.5 -9.5t24.5 -7zM388 698q0 26 -30 26
q-20 0 -40.5 -6.5t-39 -18t-34 -27t-25.5 -33.5q-5 -8 -8 -16.5t-4 -16.5q25 3 56 9t59 17t47 27t19 39zM397 845q0 -19 -9 -34q42 -8 66.5 -36t24.5 -77q0 -29 -11 -53t-29.5 -42.5t-42.5 -33t-51 -24.5q20 -8 35.5 -23t15.5 -38q0 -20 -9.5 -35.5t-24.5 -25.5t-32.5 -15
t-33.5 -5q-27 0 -51.5 9t-46.5 25q-45 -23 -68.5 -63.5t-23.5 -90.5q0 -42 13.5 -83.5t39 -74t61.5 -53t80 -20.5q22 0 45 9t41.5 24t30 35.5t11.5 43.5q0 10 -5.5 18.5t-14.5 8.5q-14 0 -16.5 -2.5t-3.5 -5.5l1 2q-4 -12 -11.5 -22t-28.5 -10q-23 0 -36.5 17t-13.5 36
q0 18 12 32t29.5 23.5t36 14.5t31.5 5q24 0 44 -9.5t35 -26t23.5 -37.5t8.5 -44q0 -43 -19 -80t-50 -64t-70.5 -42.5t-79.5 -15.5q-65 0 -117.5 28t-89.5 73t-57.5 102.5t-20.5 117.5q0 69 32 128.5t90 95.5q-2 3 -2.5 4.5t-2.5 4.5q-28 4 -59 13.5t-57.5 27t-43.5 42
t-17 58.5q0 32 20 59t50 47.5t64.5 33t63.5 15.5q-8 16 -8 33q0 29 21.5 49t49.5 20q36 0 55 -29q21 29 57 29q29 0 49 -20t20 -49z" />
    <glyph glyph-name="Egrave" unicode="&#xc8;" horiz-adv-x="521" 
d="M116 610q2 32 16 60.5t37 53.5q-15 -1 -36 -6.5t-40.5 -14.5t-33 -21t-13.5 -25q0 -10 6.5 -17.5t16.5 -13t22.5 -9.5t24.5 -7zM388 698q0 26 -30 26q-20 0 -40.5 -6.5t-39 -18t-34 -27t-25.5 -33.5q-5 -8 -8 -16.5t-4 -16.5q25 3 56 9t59 17t47 27t19 39zM440 809
q0 -10 -4 -18q20 -14 31.5 -37.5t11.5 -55.5q0 -29 -11 -53t-29.5 -42.5t-42.5 -33t-51 -24.5q20 -8 35.5 -23t15.5 -38q0 -20 -9.5 -35.5t-24.5 -25.5t-32.5 -15t-33.5 -5q-27 0 -51.5 9t-46.5 25q-45 -23 -68.5 -63.5t-23.5 -90.5q0 -42 13.5 -83.5t39 -74t61.5 -53
t80 -20.5q22 0 45 9t41.5 24t30 35.5t11.5 43.5q0 10 -5.5 18.5t-14.5 8.5q-14 0 -16.5 -2.5t-3.5 -5.5l1 2q-4 -12 -11.5 -22t-28.5 -10q-23 0 -36.5 17t-13.5 36q0 18 12 32t29.5 23.5t36 14.5t31.5 5q24 0 44 -9.5t35 -26t23.5 -37.5t8.5 -44q0 -43 -19 -80t-50 -64
t-70.5 -42.5t-79.5 -15.5q-65 0 -117.5 28t-89.5 73t-57.5 102.5t-20.5 117.5q0 69 32 128.5t90 95.5q-2 3 -2.5 4.5t-2.5 4.5q-28 4 -59 13.5t-57.5 27t-43.5 42t-17 58.5q0 36 23.5 65t58 49.5t72 31.5t66.5 11q19 0 32 -12.5t13 -32.5v-2q24 17 51 28t53 16
q-16 14 -32 29.5t-29 29.5t-21 25t-8 16q0 19 14.5 32t32.5 13q22 0 35 -16h-1q4 -5 7.5 -8.5t7.5 -8.5q7 -8 14 -15.5t16 -15.5q6 -5 14 -11l16 -12t16.5 -12t16.5 -12q17 -14 17 -36z" />
    <glyph glyph-name="Iacute" unicode="&#xcd;" horiz-adv-x="380" 
d="M395 911q0 -7 -11.5 -22t-29 -33t-38 -36.5t-38.5 -32.5q3 -2 9 -4q5 -2 8 -3.5t10 -3.5q34 40 90 40q15 0 33 -4.5t33.5 -13.5t26 -23.5t10.5 -35.5t-10 -36t-25.5 -24.5t-33.5 -14t-34 -4.5q-11 0 -21.5 0.5t-21.5 2.5q-6 -26 -9 -55.5t-3 -53.5v-76t1 -76
q0 -38 0.5 -76t0.5 -76q0 -53 -9.5 -104.5t-34 -92t-66.5 -66t-106 -25.5q-19 0 -40.5 5t-39.5 16.5t-30 29t-12 41.5q0 18 7 33t19 26t27.5 17.5t32.5 6.5q45 0 45 -45q0 -18 -7 -26.5t-16 -13.5h14q39 0 63 18.5t38 47t19 63.5t5 69q0 38 -0.5 76t-0.5 76q-1 34 -1 76v76
q0 35 3 70.5t12 68.5q-11 5 -24 11t-25 11t-22.5 8.5t-16.5 3.5q-20 0 -42.5 -5.5t-42 -16t-32.5 -26.5t-13 -38q0 -19 12 -36.5t32 -17.5q14 0 25.5 7.5t11.5 20.5q0 20 13 32.5t33 12.5q45 0 45 -45q0 -27 -10.5 -48.5t-28.5 -37t-41 -24t-48 -8.5q-30 0 -55 12t-42.5 32
t-27.5 46t-10 54q0 44 20.5 77t53 55t71.5 33t76 11h6q4 0 7 -1q3 16 18 28q5 4 9.5 7.5t9.5 7.5q18 14 33 25t31 28q2 4 6 8q9 12 22 24t31 12t32 -13t14 -32z" />
    <glyph glyph-name="Icircumflex" unicode="&#xce;" horiz-adv-x="380" 
d="M305 776q6 8 14 14q-13 12 -25 27.5t-23 29.5v-1l-4 4q-9 -10 -19.5 -21t-21.5 -21q16 -5 31 -12t30 -13q5 -2 8 -3.5t10 -3.5zM498 739q0 -21 -10 -36t-25.5 -24.5t-33.5 -14t-34 -4.5q-11 0 -21.5 0.5t-21.5 2.5q-6 -26 -9 -55t-3 -53v-77q0 -38 1 -76q0 -38 0.5 -76
t0.5 -76q0 -53 -9.5 -104.5t-34 -92t-66.5 -66t-106 -25.5q-19 0 -40.5 5t-39.5 16.5t-30 29t-12 41.5q0 18 7 33t19 26t27.5 17.5t32.5 6.5q45 0 45 -45q0 -18 -7 -26.5t-16 -13.5h14q39 0 63 18.5t38 47t19 63.5t5 69q0 38 -0.5 76t-0.5 76q-1 34 -1 76v77q0 35 3 70
t12 68q-11 5 -24 11t-25 11t-22.5 8.5t-16.5 3.5q-20 0 -42.5 -5.5t-42 -16t-32.5 -26.5t-13 -38q0 -19 12 -36.5t32 -17.5q14 0 25.5 7.5t11.5 20.5q0 20 13 32.5t33 12.5q45 0 45 -45q0 -27 -10.5 -48.5t-28.5 -37t-41 -24t-48 -8.5q-30 0 -55 12t-42.5 32t-27.5 46
t-10 54q0 37 15 66.5t40 51t56 35t64 19.5v2q0 10 4.5 18.5t10.5 16t12.5 13.5t10.5 10v-1q11 10 20 21t19 25q4 6 10 13.5t13.5 14.5t16.5 12t20 5q14 0 29 -12q10 -8 16.5 -16.5t12.5 -18.5q4 -5 6.5 -9.5t7.5 -9.5q6 -9 12 -15.5t12 -11.5q6 -6 13.5 -12.5t13.5 -13.5
q9 -11 11 -28q15 -1 32.5 -5.5t31.5 -14t23.5 -24t9.5 -33.5z" />
    <glyph glyph-name="Oacute" unicode="&#xd3;" horiz-adv-x="659" 
d="M121 566q0 38 9 73q-23 -25 -39 -56t-26 -64.5t-14.5 -68.5t-4.5 -68q0 -60 15.5 -119t47 -106t80 -76t115.5 -29q64 0 112 31.5t79.5 80.5t47 109t15.5 117q0 46 -13.5 102.5t-40.5 105.5t-67 82.5t-94 33.5q-32 0 -56 -12t-41 -32t-25.5 -47t-8.5 -57q0 -8 4.5 -15
t11.5 -7q4 0 7 5t5 12.5t2.5 16t0.5 14.5q0 20 14 32.5t32 12.5q19 0 32 -12.5t13 -32.5q0 -21 -6.5 -45.5t-19.5 -45t-33 -34t-47 -13.5q-24 0 -43.5 9.5t-33.5 25t-22 36t-8 41.5zM419 911q0 -6 -8.5 -18t-22.5 -27t-31 -31.5t-34 -30.5q5 0 10 0.5t10 0.5q50 0 92.5 -19
t76.5 -51t60 -74.5t43 -88.5t26 -93t9 -89q0 -75 -22 -151.5t-65.5 -138t-108 -100t-150.5 -38.5q-89 0 -154.5 36.5t-108.5 95.5t-64.5 134.5t-21.5 153.5q0 59 10.5 115.5t33.5 106.5t60 92.5t91 73.5l-1 -1q10 7 25 7q10 0 18 -4.5t14 -11.5q5 4 11 7.5t12 7.5
q-16 13 -16 34q0 20 18 35q5 4 9.5 7.5t9.5 7.5q18 14 33 25t31 28q2 4 6 8q9 12 22 24t31 12t32 -13t14 -32z" />
    <glyph glyph-name="Ugrave" unicode="&#xd9;" horiz-adv-x="929" 
d="M486 809q0 -18 -13 -32t-32 -14q-7 0 -21 9t-32 23.5t-37 32t-35 34t-26 30t-10 19.5q0 19 14.5 32t32.5 13q10 0 15.5 -1t11.5 -7q1 -2 10 -12t13 -15q7 -8 13.5 -15t14.5 -14t19 -15l22 -16q5 -4 10.5 -8.5t10.5 -8.5q19 -16 19 -35zM170 595q7 0 15 -3v34
q0 13 -2.5 29.5t-8.5 31.5t-15.5 25t-23.5 10q-22 0 -38.5 -14t-28 -34.5t-17 -44.5t-5.5 -43q0 -13 2 -31.5t7.5 -35t14 -28.5t22.5 -12q10 0 16 7.5t10 18t5.5 23t1.5 22.5q0 20 13 32.5t32 12.5zM922 164q0 -41 -15 -77.5t-41 -64t-61.5 -44t-76.5 -16.5q-49 0 -89.5 22
t-66.5 60q-29 -40 -71.5 -61t-95.5 -21q-51 0 -91.5 22t-69 58t-44 81t-15.5 90v226q-15 -22 -38 -36t-55 -14q-39 0 -65 20t-42 49.5t-23 64t-7 63.5q0 37 12 77t35 73t56.5 54.5t76.5 21.5q38 0 64.5 -18t43.5 -45t25 -60t8 -63v-413q0 -28 9 -56.5t25.5 -52t40.5 -38
t54 -14.5t54 13t40.5 34t25.5 48t9 55v567q0 20 14 32.5t32 12.5q19 0 32 -12.5t13 -32.5v-605q0 -21 8 -41.5t21.5 -36t32.5 -25t41 -9.5t41 9t33 24.5t21.5 36t7.5 42.5q0 10 -5.5 18.5t-14.5 8.5q-2 0 -2 -5q-5 -15 -12 -27t-33 -12q-18 0 -32 12.5t-14 32.5
q0 19 7.5 35.5t20.5 28.5t30 18.5t35 6.5q24 0 44.5 -9.5t35.5 -26t23 -37.5t8 -44z" />
    <glyph glyph-name="ecircumflex" unicode="&#xea;" horiz-adv-x="360" 
d="M213 229q0 8 -7 14t-17.5 10.5t-21.5 7t-19 2.5q-32 0 -57.5 -18t-37.5 -46q21 -10 41.5 -15t45.5 -5q12 0 25 3t23.5 9t17.5 15.5t7 22.5zM284 416q0 -19 -13 -32t-32 -13q-8 0 -19 7.5t-22.5 18.5t-23 24t-20.5 24q-4 4 -4 5q-11 -12 -25 -26t-27.5 -25.5t-24 -19.5
t-14.5 -8q-18 0 -32 13t-14 32q0 18 12 31.5t22 22.5q1 0 3 2q23 22 41 46q4 5 9.5 12.5t13 14.5t16.5 12t20 5q14 0 29 -12q9 -8 15.5 -17t13.5 -19q2 -2 5.5 -7t8.5 -10q6 -9 12 -15.5t12 -11.5q6 -6 13.5 -12.5t13.5 -13.5q5 -5 8 -12.5t3 -15.5zM407 158q0 -6 -0.5 -11
t-4.5 -10q-35 -81 -100.5 -128t-156.5 -47q-40 0 -74.5 16t-60 42.5t-40.5 62t-15 74.5q0 41 15 76.5t41 62t61 42t76 15.5q24 0 51 -8.5t50.5 -24t39 -38.5t15.5 -53q0 -34 -14.5 -60t-38 -43.5t-52.5 -26.5t-59 -9q-24 0 -40 1.5t-36 7.5q13 -22 33.5 -34.5t47.5 -12.5
q48 0 87 20.5t65 62.5q1 2 2.5 4t3.5 8q4 8 9.5 17.5t12.5 18t16 14t20 5.5q18 0 32 -12.5t14 -31.5z" />
    <glyph glyph-name="eacute" unicode="&#xe9;" horiz-adv-x="360" 
d="M213 229q0 8 -7 14t-17.5 10.5t-21.5 7t-19 2.5q-32 0 -57.5 -18t-37.5 -46q21 -10 41.5 -15t45.5 -5q12 0 25 3t23.5 9t17.5 15.5t7 22.5zM263 504q0 -6 -10 -19.5t-25.5 -29.5t-34.5 -33.5t-36.5 -31.5t-32 -23t-21.5 -9q-18 0 -32 13t-14 32q0 20 18 35q13 10 30 22
q15 10 33 25q8 7 17.5 16.5t18.5 20.5l8 10q7 7 16.5 12t19.5 5q19 0 32 -13t13 -32zM407 158q0 -6 -0.5 -11t-4.5 -10q-35 -81 -100.5 -128t-156.5 -47q-40 0 -74.5 16t-60 42.5t-40.5 62t-15 74.5q0 41 15 76.5t41 62t61 41.5t76 15q24 0 51 -8t50.5 -24t39 -38.5
t15.5 -52.5q0 -34 -14.5 -60t-38 -44t-52.5 -27t-59 -9q-20 0 -39.5 2.5t-36.5 7.5q13 -22 33.5 -34.5t47.5 -12.5q48 0 87 20.5t65 62.5q1 2 2.5 4t3.5 8q4 8 9.5 17.5t12.5 18t16 14t20 5.5q18 0 32 -12.5t14 -31.5z" />
    <glyph glyph-name="egrave" unicode="&#xe8;" horiz-adv-x="360" 
d="M213 229q0 8 -7 14t-17.5 10.5t-21.5 7t-19 2.5q-32 0 -57.5 -18t-37.5 -46q21 -10 41.5 -15t45.5 -5q12 0 25 3t23.5 9t17.5 15.5t7 22.5zM269 400q0 -19 -13 -32t-32 -13q-10 0 -36.5 18.5t-54 43.5t-49 49t-21.5 35q0 19 14.5 32t32.5 13q23 0 37 -18l-2 2
q5 -5 8 -9.5t7 -9.5q7 -8 13 -14.5t15 -14.5q18 -15 33 -25q8 -5 15 -11t14 -11q19 -16 19 -35zM407 158q0 -6 -0.5 -11t-4.5 -10q-35 -81 -100.5 -128t-156.5 -47q-40 0 -74.5 16t-60 42.5t-40.5 62t-15 74.5q0 41 15 76.5t41 62t61 41.5t76 15q24 0 51 -8t50.5 -24
t39 -38.5t15.5 -52.5q0 -34 -14.5 -60t-38 -44t-52.5 -27t-59 -9q-20 0 -39.5 2.5t-36.5 7.5q14 -20 34.5 -33.5t46.5 -13.5q48 0 87 20.5t65 62.5q1 2 2.5 4t3.5 8q4 8 9.5 17.5t12.5 18t16 14t20 5.5q18 0 32 -12.5t14 -31.5z" />
    <glyph glyph-name="numbersign" unicode="#" horiz-adv-x="474" 
d="M276 385h-66v-60h66v60zM474 280q0 -18 -14 -32t-32 -14h-61v-59q0 -19 -14 -32t-32 -13q-19 0 -32 13t-13 32v59h-66v-59q0 -19 -14 -32t-32 -13q-19 0 -32 13t-13 32v59h-63q-19 0 -32 14t-13 32q0 19 13 32t32 13h63v60h-63q-19 0 -32 13t-13 32t13 32t32 13h63v58
q0 19 13 32t32 13q18 0 32 -13t14 -32v-58h66v58q0 19 13 32t32 13q18 0 32 -13t14 -32v-58h61q18 0 32 -13t14 -32t-14 -32t-32 -13h-61v-60h61q18 0 32 -13t14 -32z" />
    <glyph glyph-name="exclam" unicode="!" horiz-adv-x="269" 
d="M196 39q0 -29 -21.5 -49.5t-49.5 -20.5t-49 20.5t-21 49.5t21 49t49 20t49.5 -20t21.5 -49zM170 165q0 -20 -15 -32.5t-32 -12.5q-19 0 -32 13t-13 32v588q0 19 13 32t32 13q17 0 32 -12.5t15 -32.5v-588z" />
    <glyph glyph-name="quotedbl" unicode="&#x22;" horiz-adv-x="245" 
d="M184 552q0 -19 -14 -31.5t-32 -12.5q-24 0 -37 18q-15 -18 -37 -18q-19 0 -32 12.5t-13 31.5v126q0 19 13 31.5t32 12.5q22 0 37 -18q13 18 37 18q18 0 32 -12.5t14 -31.5v-126z" />
    <glyph glyph-name="nonmarkingreturn" horiz-adv-x="133" 
d="M177 139q-9 -21 -27.5 -51.5t-42.5 -58.5t-52 -47.5t-55 -19.5q-19 0 -32 12.5t-13 31.5t13 31.5t32 12.5q9 0 19.5 10t21 24.5t20 29.5t14.5 24v-1l6 12l-1 -3q8 15 19 31t33 16q17 0 32 -12.5t15 -31.5z" />
    <glyph glyph-name="Q" unicode="Q" horiz-adv-x="659" 
d="M121 652q0 48 12 92q-24 -29 -41 -65.5t-27 -76t-14.5 -81t-4.5 -81.5q0 -70 15 -138.5t46.5 -123t80 -88.5t115.5 -34q64 0 112 36.5t79.5 93.5t47.5 127t16 136q0 54 -13.5 119.5t-40.5 123t-67.5 96t-94.5 38.5q-32 0 -56 -14t-40.5 -38t-25 -55.5t-8.5 -66.5
q0 -11 4 -20t11 -9q4 0 7.5 6.5t5 15.5t2.5 19t1 18q0 20 13 34t32 14q18 0 32 -14t14 -34q0 -25 -6.5 -52t-19.5 -50t-33.5 -38t-47.5 -15q-23 0 -42.5 10.5t-33.5 28t-22 40t-8 46.5zM663 876q0 -2 -0.5 -3t-0.5 -3l-31 -1286q-8 -39 -44 -39q-18 0 -32 14.5t-14 33.5v5
l12 507q-44 -65 -106.5 -105t-143.5 -40q-89 0 -154.5 41.5t-108.5 109t-64 154t-21 175.5q0 68 10 132t33 121t60 105.5t90 84.5q10 7 25 7q10 0 18.5 -5t14.5 -13q27 24 61 38t75 14q37 0 70 -12t61.5 -34t52 -51.5t43.5 -63.5l3 121q10 41 45 41q20 0 33 -15.5t13 -33.5z
" />
    <glyph glyph-name="glyph179" horiz-adv-x="133" 
d="M177 139q-9 -21 -27.5 -51.5t-42.5 -58.5t-52 -47.5t-55 -19.5q-19 0 -32 12.5t-13 31.5t13 31.5t32 12.5q9 0 19.5 10t21 24.5t20 29.5t14.5 24v-1l6 12l-1 -3q8 15 19 31t33 16q17 0 32 -12.5t15 -31.5z" />
    <glyph glyph-name="twosuperior" unicode="&#xb2;" horiz-adv-x="133" 
d="M177 139q-9 -21 -27.5 -51.5t-42.5 -58.5t-52 -47.5t-55 -19.5q-19 0 -32 12.5t-13 31.5t13 31.5t32 12.5q9 0 19.5 10t21 24.5t20 29.5t14.5 24v-1l6 12l-1 -3q8 15 19 31t33 16q17 0 32 -12.5t15 -31.5z" />
    <glyph glyph-name="ccedilla" unicode="&#xe7;" horiz-adv-x="342" 
d="M181 -131q-3 -1 -6.5 -2t-6.5 -2q5 -2 10 -3t12 -1q5 0 12.5 -0.5t7.5 -1.5q0 5 -9.5 8.5t-15.5 3.5zM387 152q0 -7 -3 -13v-1q-14 -28 -30.5 -55t-37 -50t-45 -41t-54.5 -27q0 -4 -1 -9q16 -5 31.5 -13.5t27.5 -21.5t19 -28.5t7 -33.5q0 -22 -11 -38.5t-27.5 -27.5
t-36 -16.5t-36.5 -5.5q-32 0 -62 11t-49 42q-5 6 -6 11.5t-1 12.5q0 19 13.5 31.5t30.5 13.5v11q0 5 -0.5 6.5t1.5 6.5q1 8 2 12.5t2 8t1.5 8t0.5 13.5q-35 6 -63.5 23t-49 43t-32 58t-11.5 68q0 39 14.5 74.5t40 62.5t60 43t74.5 16q37 0 74 -14.5t62 -42.5q12 -15 12 -29
q0 -18 -15 -32t-32 -14q-5 0 -13.5 4t-16.5 9q-13 8 -32.5 18.5t-38.5 10.5q-21 0 -39 -9t-31 -23.5t-20.5 -33.5t-7.5 -40t7.5 -40t21 -33t31 -22.5t38.5 -8.5q42 0 70.5 24t49.5 60v-2q2 3 3 5.5t3 5.5q6 11 11.5 22t9.5 15v-1q8 11 15.5 15.5t21.5 4.5q17 0 32 -12.5
t15 -31.5z" />
    <glyph glyph-name="idieresis" unicode="&#xef;" horiz-adv-x="265" 
d="M163 443q0 -29 -20 -48.5t-49 -19.5q-17 0 -32 7.5t-25 20.5q-9 -13 -23.5 -20.5t-31.5 -7.5q-28 0 -49.5 19.5t-21.5 48.5t21.5 48.5t49.5 19.5q17 0 31.5 -7.5t23.5 -20.5q10 13 25 20.5t32 7.5q29 0 49 -19.5t20 -48.5zM295 158q0 -1 -0.5 -1.5t-0.5 -1.5
q0 -2 -0.5 -5t-0.5 -5q-10 -27 -28 -59t-42.5 -59.5t-54.5 -46t-64 -18.5q-32 0 -51 14t-29.5 35.5t-14.5 48t-4 52.5h-5q-19 0 -32 13t-13 32q0 8 7 27t15 39v-1q5 12 9 23t6 19q1 2 2.5 8.5t3.5 14.5q4 15 7.5 28.5t12.5 22.5q14 14 32 14q20 0 33 -15t13 -32l-1 -206v-14
t1 -15.5t3 -12.5t5 -5q13 0 25 8t22.5 20t19 26t14.5 26q5 9 6.5 12.5t3.5 6.5q3 8 6.5 15.5t9.5 15.5q15 20 37 20q17 0 32 -12.5t15 -31.5z" />
    <glyph glyph-name="ae" unicode="&#xe6;" horiz-adv-x="500" 
 />
    <glyph glyph-name="uniE00A" unicode="&#xe00a;" horiz-adv-x="500" 
 />
  </font>
</defs>
</svg>
